<?xml version="1.0" encoding="UTF-8" standalone="no"?>
<svg
   class="svg-icon"
   style="width: 1em; height: 1em;vertical-align: middle;fill: currentColor;overflow: hidden;"
   viewBox="0 0 1024 1024"
   version="1.1"
   id="svg4"
   sodipodi:docname="arrow-right-active.svg"
   inkscape:version="1.2.2 (732a01da63, 2022-12-09)"
   xmlns:inkscape="http://www.inkscape.org/namespaces/inkscape"
   xmlns:sodipodi="http://sodipodi.sourceforge.net/DTD/sodipodi-0.dtd"
   xmlns="http://www.w3.org/2000/svg"
   xmlns:svg="http://www.w3.org/2000/svg">
  <defs
     id="defs8" />
  <sodipodi:namedview
     id="namedview6"
     pagecolor="#ffffff"
     bordercolor="#000000"
     borderopacity="0.25"
     inkscape:showpageshadow="2"
     inkscape:pageopacity="0.0"
     inkscape:pagecheckerboard="0"
     inkscape:deskcolor="#d1d1d1"
     showgrid="false"
     inkscape:zoom="1.1357422"
     inkscape:cx="512.88048"
     inkscape:cy="513.76096"
     inkscape:window-width="2560"
     inkscape:window-height="1368"
     inkscape:window-x="-8"
     inkscape:window-y="-8"
     inkscape:window-maximized="1"
     inkscape:current-layer="svg4" />
  <path
     d="M596.48 871.253333a17.0496 17.0496 0 0 1-17.066667-17.066666v-153.6H168.96c-27.4432-0.6656-51.114667-10.5984-70.741333-29.525334C78.882133 651.025067 68.949333 627.370667 68.266667 600.337067V424.106667c0.682667-27.0336 10.683733-50.176 29.7472-69.239467 16.878933-16.878933 36.590933-26.845867 58.5728-29.610667a107.588267 107.588267 0 0 1 27.886933-0.136533H580.266667V170.666667a17.066667 17.066667 0 0 1 29.1328-12.066134l341.333333 341.333334a17.0496 17.0496 0 0 1 0 24.132266l-342.186667 342.186667a17.066667 17.066667 0 0 1-12.066133 5.000533z m0-204.8a17.066667 17.066667 0 0 1 17.066667 17.066667v129.467733L914.5344 512 614.4 211.8656v130.321067a17.066667 17.066667 0 0 1-17.066667 17.066666H183.466667a17.032533 17.032533 0 0 1-2.082134-0.119466 75.605333 75.605333 0 0 0-20.309333-0.034134c-14.711467 1.860267-27.374933 8.362667-38.929067 19.9168-12.834133 12.817067-19.3024 27.733333-19.746133 45.5168V599.893333c0.4608 18.056533 6.980267 33.570133 19.968 47.018667 13.021867 12.561067 28.535467 19.0976 47.0016 19.541333H596.48z"
     id="path2"
     style="fill:#b6d70f;fill-opacity:1" />
</svg>
