<?xml version="1.0" encoding="UTF-8" standalone="no"?>
<svg
   class="svg-icon"
   style="width: 1em; height: 1em;vertical-align: middle;fill: currentColor;overflow: hidden;"
   viewBox="0 0 1024 1024"
   version="1.1"
   id="svg250"
   sodipodi:docname="delete-2.svg"
   inkscape:version="1.2.2 (732a01da63, 2022-12-09)"
   xmlns:inkscape="http://www.inkscape.org/namespaces/inkscape"
   xmlns:sodipodi="http://sodipodi.sourceforge.net/DTD/sodipodi-0.dtd"
   xmlns="http://www.w3.org/2000/svg"
   xmlns:svg="http://www.w3.org/2000/svg">
  <defs
     id="defs254" />
  <sodipodi:namedview
     id="namedview252"
     pagecolor="#ffffff"
     bordercolor="#000000"
     borderopacity="0.25"
     inkscape:showpageshadow="2"
     inkscape:pageopacity="0.0"
     inkscape:pagecheckerboard="0"
     inkscape:deskcolor="#d1d1d1"
     showgrid="false"
     inkscape:zoom="1.1357422"
     inkscape:cx="512"
     inkscape:cy="512.88048"
     inkscape:window-width="2560"
     inkscape:window-height="1368"
     inkscape:window-x="-8"
     inkscape:window-y="-8"
     inkscape:window-maximized="1"
     inkscape:current-layer="svg250" />
  <path
     d="M571.733333 512l226.133334-226.133333c17.066667-17.066667 17.066667-42.666667 0-59.733334s-42.666667-17.066667-59.733334 0L512 452.266667 285.866667 226.133333c-17.066667-17.066667-42.666667-17.066667-59.733334 0s-17.066667 42.666667 0 59.733334l226.133334 226.133333-226.133334 226.133333c-17.066667 17.066667-17.066667 42.666667 0 59.733334 8.533333 8.533333 17.066667 12.8 29.866667 12.8s21.333333-4.266667 29.866667-12.8l226.133333-226.133334 226.133333 226.133334c8.533333 8.533333 21.333333 12.8 29.866667 12.8s21.333333-4.266667 29.866667-12.8c17.066667-17.066667 17.066667-42.666667 0-59.733334L571.733333 512z"
     id="path248"
     style="fill:#ff7f2a" />
</svg>
