<?xml version="1.0" encoding="UTF-8" standalone="no"?>
<svg
   class="svg-icon"
   style="width: 1em; height: 1em;vertical-align: middle;fill: currentColor;overflow: hidden;"
   viewBox="0 0 1024 1024"
   version="1.1"
   id="svg4"
   sodipodi:docname="double-arrow-right.svg"
   inkscape:version="1.2.2 (732a01da63, 2022-12-09)"
   xmlns:inkscape="http://www.inkscape.org/namespaces/inkscape"
   xmlns:sodipodi="http://sodipodi.sourceforge.net/DTD/sodipodi-0.dtd"
   xmlns="http://www.w3.org/2000/svg"
   xmlns:svg="http://www.w3.org/2000/svg">
  <defs
     id="defs8" />
  <sodipodi:namedview
     id="namedview6"
     pagecolor="#ffffff"
     bordercolor="#000000"
     borderopacity="0.25"
     inkscape:showpageshadow="2"
     inkscape:pageopacity="0.0"
     inkscape:pagecheckerboard="0"
     inkscape:deskcolor="#d1d1d1"
     showgrid="false"
     inkscape:zoom="1.1357422"
     inkscape:cx="512.88048"
     inkscape:cy="513.76096"
     inkscape:window-width="2560"
     inkscape:window-height="1368"
     inkscape:window-x="-8"
     inkscape:window-y="-8"
     inkscape:window-maximized="1"
     inkscape:current-layer="svg4" />
  <path
     d="M119.168 908.501333L515.669333 512 119.168 115.498667a42.666667 42.666667 0 1 1 60.330667-60.330667l426.666666 426.666667a42.666667 42.666667 0 0 1 0 60.330666l-426.666666 426.666667a42.666667 42.666667 0 0 1-60.330667-60.330667z m298.666667 0L814.336 512 417.834667 115.498667a42.666667 42.666667 0 0 1 60.330666-60.330667l426.666667 426.666667a42.666667 42.666667 0 0 1 0 60.330666l-426.666667 426.666667a42.666667 42.666667 0 0 1-60.330666-60.330667z"
     id="path2"
     style="stroke:none;fill:#9d1818;fill-opacity:1" />
</svg>
