<?xml version="1.0" encoding="UTF-8" standalone="no"?>
<svg
   class="svg-icon"
   style="width: 1em; height: 1em;vertical-align: middle;fill: currentColor;overflow: hidden;"
   viewBox="0 0 1024 1024"
   version="1.1"
   id="svg6"
   sodipodi:docname="down-double-arrow.svg"
   inkscape:version="1.2.2 (732a01da63, 2022-12-09)"
   xmlns:inkscape="http://www.inkscape.org/namespaces/inkscape"
   xmlns:sodipodi="http://sodipodi.sourceforge.net/DTD/sodipodi-0.dtd"
   xmlns="http://www.w3.org/2000/svg"
   xmlns:svg="http://www.w3.org/2000/svg">
  <defs
     id="defs10" />
  <sodipodi:namedview
     id="namedview8"
     pagecolor="#ffffff"
     bordercolor="#000000"
     borderopacity="0.25"
     inkscape:showpageshadow="2"
     inkscape:pageopacity="0.0"
     inkscape:pagecheckerboard="0"
     inkscape:deskcolor="#d1d1d1"
     showgrid="false"
     inkscape:zoom="1.1357422"
     inkscape:cx="512"
     inkscape:cy="512.88048"
     inkscape:window-width="2560"
     inkscape:window-height="1368"
     inkscape:window-x="-8"
     inkscape:window-y="-8"
     inkscape:window-maximized="1"
     inkscape:current-layer="svg6" />
  <path
     d="M528.5 895.4L919.9 504c9.4-9.4 9.4-24.6 0-33.9-9.4-9.4-24.6-9.4-33.9 0L511.5 844.5 140 473c-9.4-9.4-24.6-9.4-33.9 0-4.7 4.7-7 10.8-7 17s2.3 12.3 7 17l388.5 388.5c9.3 9.3 24.5 9.3 33.9-0.1z"
     fill="#AAAAAA"
     id="path2"
     style="fill:#6a1d1d;fill-opacity:1" />
  <path
     d="M511.5 560.9c6.4 0 12.5-2.5 17-7l391.4-391.4c9.4-9.4 9.4-24.6 0-33.9-9.4-9.4-24.6-9.4-33.9 0L511.5 503 140 131.5c-9.4-9.4-24.6-9.4-33.9 0-4.7 4.7-7 10.8-7 17s2.3 12.3 7 17L494.6 554c4.5 4.4 10.6 6.9 16.9 6.9z"
     fill="#AAAAAA"
     id="path4"
     style="fill:#6a1d1d;fill-opacity:1" />
</svg>
