<svg class="svg-icon" style="width: 1em; height: 1em;vertical-align: middle;fill: currentColor;overflow: hidden;" viewBox="0 0 1024 1024" version="1.1" xmlns="http://www.w3.org/2000/svg"><path d="M469.333333 138.666667v277.333333a53.393333 53.393333 0 0 1-53.333333 53.333333H138.666667a53.393333 53.393333 0 0 1-53.333334-53.333333V138.666667a53.393333 53.393333 0 0 1 53.333334-53.333334h277.333333a53.393333 53.393333 0 0 1 53.333333 53.333334z m416-53.333334H608a53.393333 53.393333 0 0 0-53.333333 53.333334v277.333333a53.393333 53.393333 0 0 0 53.333333 53.333333h277.333333a53.393333 53.393333 0 0 0 53.333334-53.333333V138.666667a53.393333 53.393333 0 0 0-53.333334-53.333334zM416 554.666667H138.666667a53.393333 53.393333 0 0 0-53.333334 53.333333v277.333333a53.393333 53.393333 0 0 0 53.333334 53.333334h277.333333a53.393333 53.393333 0 0 0 53.333333-53.333334V608a53.393333 53.393333 0 0 0-53.333333-53.333333z m469.333333 0H608a53.393333 53.393333 0 0 0-53.333333 53.333333v277.333333a53.393333 53.393333 0 0 0 53.333333 53.333334h277.333333a53.393333 53.393333 0 0 0 53.333334-53.333334V608a53.393333 53.393333 0 0 0-53.333334-53.333333z" fill="#5C5C66" /></svg>