<svg class="svg-icon" style="width: 1em;height: 1em;vertical-align: middle;fill: currentColor;overflow: hidden;" viewBox="0 0 1024 1024" version="1.1" xmlns="http://www.w3.org/2000/svg"><path d="M491.52 842.565818a46.545455 46.545455 0 0 1 40.96 0l103.330909 50.501818 53.946182-101.655272a46.545455 46.545455 0 0 1 33.047273-24.017455l113.384727-19.874909-16.151273-113.943273a46.545455 46.545455 0 0 1 12.660364-38.865454L912.709818 512l-80.058182-82.711273a46.545455 46.545455 0 0 1-12.567272-38.865454l16.104727-113.943273-113.338182-19.874909a46.545455 46.545455 0 0 1-33.093818-24.017455L635.810909 130.932364l-103.330909 50.501818a46.545455 46.545455 0 0 1-40.96 0L388.189091 130.932364 334.196364 232.587636a46.545455 46.545455 0 0 1-33.047273 24.017455l-113.384727 19.874909 16.151272 113.943273a46.545455 46.545455 0 0 1-12.660363 38.865454L111.290182 512l80.058182 82.711273a46.545455 46.545455 0 0 1 12.567272 38.865454l-16.104727 113.943273 113.338182 19.874909a46.545455 46.545455 0 0 1 33.093818 24.017455l53.946182 101.655272 103.330909-50.501818zM388.654545 996.491636a46.545455 46.545455 0 0 1-61.579636-20.014545l-64.372364-121.297455-135.26109-23.738181a46.545455 46.545455 0 0 1-38.027637-52.363637l19.223273-136.005818-95.511273-98.676364a46.545455 46.545455 0 0 1 0-64.744727l95.511273-98.722909-19.223273-136.005818a46.545455 46.545455 0 0 1 38.027637-52.363637l135.26109-23.738181 64.372364-121.297455A46.545455 46.545455 0 0 1 388.654545 27.461818L512 87.831273 635.392 27.461818a46.545455 46.545455 0 0 1 61.579636 20.014546l64.372364 121.297454 135.261091 23.738182a46.545455 46.545455 0 0 1 38.027636 52.363636l-19.223272 136.005819 95.511272 98.676363a46.545455 46.545455 0 0 1 0 64.744727l-95.511272 98.72291 19.223272 136.005818a46.545455 46.545455 0 0 1-38.027636 52.363636l-135.261091 23.738182-64.372364 121.297454a46.545455 46.545455 0 0 1-61.579636 20.014546L512 936.168727 388.608 996.538182z" fill="#313645" /><path d="M614.632727 390.656a46.545455 46.545455 0 1 1 74.007273 56.506182l-142.103273 186.181818a46.545455 46.545455 0 0 1-70.330182 4.189091l-90.624-93.090909a46.545455 46.545455 0 0 1 66.653091-64.930909l53.061819 54.458182 109.381818-143.313455z" fill="#313645" /></svg>