<?xml version="1.0" encoding="UTF-8" standalone="no"?>
<svg
   class="svg-icon"
   style="width: 1em; height: 1em;vertical-align: middle;fill: currentColor;overflow: hidden;"
   viewBox="0 0 1024 1024"
   version="1.1"
   id="svg4"
   sodipodi:docname="list.svg"
   inkscape:version="1.2.2 (732a01da63, 2022-12-09)"
   xmlns:inkscape="http://www.inkscape.org/namespaces/inkscape"
   xmlns:sodipodi="http://sodipodi.sourceforge.net/DTD/sodipodi-0.dtd"
   xmlns="http://www.w3.org/2000/svg"
   xmlns:svg="http://www.w3.org/2000/svg">
  <defs
     id="defs8" />
  <sodipodi:namedview
     id="namedview6"
     pagecolor="#ffffff"
     bordercolor="#000000"
     borderopacity="0.25"
     inkscape:showpageshadow="2"
     inkscape:pageopacity="0.0"
     inkscape:pagecheckerboard="0"
     inkscape:deskcolor="#d1d1d1"
     showgrid="false"
     inkscape:zoom="1.1357422"
     inkscape:cx="512"
     inkscape:cy="512.88048"
     inkscape:window-width="2560"
     inkscape:window-height="1368"
     inkscape:window-x="-8"
     inkscape:window-y="-8"
     inkscape:window-maximized="1"
     inkscape:current-layer="svg4" />
  <path
     d="M256 232V152c0-17.674 14.326-32 32-32h704c17.674 0 32 14.326 32 32v80c0 17.674-14.326 32-32 32H288c-17.674 0-32-14.326-32-32z m32 352h704c17.674 0 32-14.326 32-32v-80c0-17.674-14.326-32-32-32H288c-17.674 0-32 14.326-32 32v80c0 17.674 14.326 32 32 32z m0 320h704c17.674 0 32-14.326 32-32v-80c0-17.674-14.326-32-32-32H288c-17.674 0-32 14.326-32 32v80c0 17.674 14.326 32 32 32zM32 288h128c17.674 0 32-14.326 32-32V128c0-17.674-14.326-32-32-32H32C14.326 96 0 110.326 0 128v128c0 17.674 14.326 32 32 32z m0 320h128c17.674 0 32-14.326 32-32v-128c0-17.674-14.326-32-32-32H32c-17.674 0-32 14.326-32 32v128c0 17.674 14.326 32 32 32z m0 320h128c17.674 0 32-14.326 32-32v-128c0-17.674-14.326-32-32-32H32c-17.674 0-32 14.326-32 32v128c0 17.674 14.326 32 32 32z"
     id="path2"
     style="fill:#ffffff" />
</svg>
