<?xml version="1.0" encoding="UTF-8" standalone="no"?>
<svg
   class="svg-icon"
   style="width: 1em; height: 1em;vertical-align: middle;fill: currentColor;overflow: hidden;"
   viewBox="0 0 1024 1024"
   version="1.1"
   id="svg2627"
   sodipodi:docname="search.svg"
   inkscape:version="1.2.2 (732a01da63, 2022-12-09)"
   xmlns:inkscape="http://www.inkscape.org/namespaces/inkscape"
   xmlns:sodipodi="http://sodipodi.sourceforge.net/DTD/sodipodi-0.dtd"
   xmlns="http://www.w3.org/2000/svg"
   xmlns:svg="http://www.w3.org/2000/svg">
  <defs
     id="defs2631" />
  <sodipodi:namedview
     id="namedview2629"
     pagecolor="#ffffff"
     bordercolor="#000000"
     borderopacity="0.25"
     inkscape:showpageshadow="2"
     inkscape:pageopacity="0.0"
     inkscape:pagecheckerboard="0"
     inkscape:deskcolor="#d1d1d1"
     showgrid="false"
     inkscape:zoom="1.1357422"
     inkscape:cx="512"
     inkscape:cy="512.88048"
     inkscape:window-width="2560"
     inkscape:window-height="1368"
     inkscape:window-x="-8"
     inkscape:window-y="-8"
     inkscape:window-maximized="1"
     inkscape:current-layer="svg2627" />
  <path
     d="M432 651.2c52.8 0 102.4-19.2 140.8-51.2l212.8 212.8 28.8-28.8-212.8-211.2c32-38.4 51.2-86.4 51.2-140.8 0-121.6-99.2-219.2-219.2-219.2S212.8 310.4 212.8 432 310.4 651.2 432 651.2z m0-398.4c99.2 0 179.2 80 179.2 179.2s-80 179.2-179.2 179.2-179.2-80-179.2-179.2 80-179.2 179.2-179.2z"
     fill="#707070"
     id="path2623"
     style="fill:#721f1f;fill-opacity:1" />
  <path
     d="M432 340.8v-40c-60.8 0-131.2 35.2-131.2 131.2h40c0-84.8 70.4-91.2 91.2-91.2z"
     fill="#707070"
     id="path2625"
     style="fill:#721f1f;fill-opacity:1" />
</svg>
