<?xml version="1.0" encoding="UTF-8" standalone="no"?>
<svg
   class="svg-icon"
   style="width: 1em;height: 1em;vertical-align: middle;fill: currentColor;overflow: hidden;"
   viewBox="0 0 1024 1024"
   version="1.1"
   id="svg6"
   sodipodi:docname="slider-01.svg"
   inkscape:version="1.2.2 (732a01da63, 2022-12-09)"
   xmlns:inkscape="http://www.inkscape.org/namespaces/inkscape"
   xmlns:sodipodi="http://sodipodi.sourceforge.net/DTD/sodipodi-0.dtd"
   xmlns="http://www.w3.org/2000/svg"
   xmlns:svg="http://www.w3.org/2000/svg">
  <defs
     id="defs10" />
  <sodipodi:namedview
     id="namedview8"
     pagecolor="#ffffff"
     bordercolor="#000000"
     borderopacity="0.25"
     inkscape:showpageshadow="2"
     inkscape:pageopacity="0.0"
     inkscape:pagecheckerboard="0"
     inkscape:deskcolor="#d1d1d1"
     showgrid="false"
     inkscape:zoom="1.1357422"
     inkscape:cx="512"
     inkscape:cy="512.88048"
     inkscape:window-width="2560"
     inkscape:window-height="1368"
     inkscape:window-x="-8"
     inkscape:window-y="-8"
     inkscape:window-maximized="1"
     inkscape:current-layer="svg6" />
  <path
     d="m 484.56199,771.45904 c 0,-14.40374 5.1354,-24.00622 15.40622,-33.60871 L 772.14486,483.38436 499.96821,228.91838 c -20.54162,-19.20497 -20.54162,-48.01244 0,-67.21742 20.54164,-19.20498 51.35409,-19.20498 71.89572,0 l 308.12451,288.07469 c 20.54163,19.20497 20.54163,48.01244 0,67.21742 L 571.86393,805.06775 c -20.54163,19.20498 -51.35408,19.20498 -71.89572,0 -10.27082,-9.60248 -15.40622,-19.20498 -15.40622,-33.60871 z"
     id="path2"
     style="fill:#ffffff;stroke-width:1.1638" />
  <path
     d="m 125.0834,771.45904 c 0,-14.40374 5.1354,-24.00622 15.40622,-33.60871 L 412.66628,483.38436 140.48962,228.91838 c -20.54162,-19.20497 -20.54162,-48.01244 0,-67.21742 20.54164,-19.20498 51.35409,-19.20498 71.89573,0 l 308.1245,288.07469 c 20.54163,19.20497 20.54163,48.01244 0,67.21742 l -308.1245,288.07468 c -20.54164,19.20498 -51.35409,19.20498 -71.89573,0 -10.27082,-9.60248 -15.40622,-19.20498 -15.40622,-33.60871 z"
     id="path4"
     style="fill:#ffffff;stroke-width:1.1638" />
</svg>
