<?xml version="1.0" encoding="UTF-8" standalone="no"?>
<svg
   class="svg-icon"
   style="width: 1em; height: 1em;vertical-align: middle;fill: currentColor;overflow: hidden;"
   viewBox="0 0 1024 1024"
   version="1.1"
   id="svg4"
   sodipodi:docname="spoiler-arrow-down.svg"
   inkscape:version="1.2.2 (732a01da63, 2022-12-09)"
   xmlns:inkscape="http://www.inkscape.org/namespaces/inkscape"
   xmlns:sodipodi="http://sodipodi.sourceforge.net/DTD/sodipodi-0.dtd"
   xmlns="http://www.w3.org/2000/svg"
   xmlns:svg="http://www.w3.org/2000/svg">
  <defs
     id="defs8" />
  <sodipodi:namedview
     id="namedview6"
     pagecolor="#ffffff"
     bordercolor="#000000"
     borderopacity="0.25"
     inkscape:showpageshadow="2"
     inkscape:pageopacity="0.0"
     inkscape:pagecheckerboard="0"
     inkscape:deskcolor="#d1d1d1"
     showgrid="false"
     inkscape:zoom="1.1357422"
     inkscape:cx="513.76096"
     inkscape:cy="514.64144"
     inkscape:window-width="2560"
     inkscape:window-height="1368"
     inkscape:window-x="-8"
     inkscape:window-y="-8"
     inkscape:window-maximized="1"
     inkscape:current-layer="svg4" />
  <path
     d="M 306.36699,281.11396 515.41893,509.33883 724.47088,281.11396 a 22.495636,24.558794 0 1 1 31.80883,34.72613 L 531.32335,561.42803 a 22.495636,24.558794 0 0 1 -31.80883,0 L 274.55816,315.84009 a 22.495636,24.558794 0 0 1 31.80883,-34.72613 z m 0,171.91155 209.05194,228.22487 209.05195,-228.22487 a 22.495636,24.558794 0 0 1 31.80883,34.72613 L 531.32335,733.33958 a 22.495636,24.558794 0 0 1 -31.80883,0 L 274.55816,487.75164 a 22.495636,24.558794 0 0 1 31.80883,-34.72613 z"
     id="path2"
     style="fill:#5f1515;fill-opacity:1;stroke:none;stroke-width:0.550889" />
</svg>
