<?xml version="1.0" encoding="UTF-8" standalone="no"?>
<svg
   class="svg-icon"
   style="width: 1em; height: 1em;vertical-align: middle;fill: currentColor;overflow: hidden;"
   viewBox="0 0 1024 1024"
   version="1.1"
   id="svg4"
   sodipodi:docname="spoiler-arrow.svg"
   inkscape:version="1.2.2 (732a01da63, 2022-12-09)"
   xmlns:inkscape="http://www.inkscape.org/namespaces/inkscape"
   xmlns:sodipodi="http://sodipodi.sourceforge.net/DTD/sodipodi-0.dtd"
   xmlns="http://www.w3.org/2000/svg"
   xmlns:svg="http://www.w3.org/2000/svg">
  <defs
     id="defs8" />
  <sodipodi:namedview
     id="namedview6"
     pagecolor="#ffffff"
     bordercolor="#000000"
     borderopacity="0.25"
     inkscape:showpageshadow="2"
     inkscape:pageopacity="0.0"
     inkscape:pagecheckerboard="0"
     inkscape:deskcolor="#d1d1d1"
     showgrid="false"
     inkscape:zoom="1.1357422"
     inkscape:cx="514.64144"
     inkscape:cy="515.52192"
     inkscape:window-width="2560"
     inkscape:window-height="1368"
     inkscape:window-x="-8"
     inkscape:window-y="-8"
     inkscape:window-maximized="1"
     inkscape:current-layer="svg4" />
  <path
     d="M 289.73615,716.40165 517.96102,507.34971 289.73615,298.29776 a 24.558794,22.495636 0 1 1 34.72613,-31.80883 l 245.58794,224.95636 a 24.558794,22.495636 0 0 1 0,31.80883 L 324.46228,748.21048 a 24.558794,22.495636 0 0 1 -34.72613,-31.80883 z m 171.91155,0 L 689.87257,507.34971 461.6477,298.29776 a 24.558794,22.495636 0 0 1 34.72613,-31.80883 l 245.58794,224.95636 a 24.558794,22.495636 0 0 1 0,31.80883 L 496.37383,748.21048 A 24.558794,22.495636 0 0 1 461.6477,716.40165 Z"
     id="path2"
     style="fill:#5f1515;fill-opacity:1;stroke:none;stroke-width:0.550889" />
</svg>
