<?xml version="1.0" encoding="UTF-8" standalone="no"?>
<svg
   class="svg-icon"
   style="width: 1em;height: 1em;vertical-align: middle;fill: currentColor;overflow: hidden;"
   viewBox="0 0 1024 1024"
   version="1.1"
   id="svg3106"
   sodipodi:docname="trash.svg"
   inkscape:version="1.2.2 (732a01da63, 2022-12-09)"
   xmlns:inkscape="http://www.inkscape.org/namespaces/inkscape"
   xmlns:sodipodi="http://sodipodi.sourceforge.net/DTD/sodipodi-0.dtd"
   xmlns="http://www.w3.org/2000/svg"
   xmlns:svg="http://www.w3.org/2000/svg">
  <defs
     id="defs3110" />
  <sodipodi:namedview
     id="namedview3108"
     pagecolor="#ffffff"
     bordercolor="#000000"
     borderopacity="0.25"
     inkscape:showpageshadow="2"
     inkscape:pageopacity="0.0"
     inkscape:pagecheckerboard="0"
     inkscape:deskcolor="#d1d1d1"
     showgrid="false"
     inkscape:zoom="1.1123047"
     inkscape:cx="512"
     inkscape:cy="512"
     inkscape:window-width="2560"
     inkscape:window-height="1368"
     inkscape:window-x="-8"
     inkscape:window-y="-8"
     inkscape:window-maximized="1"
     inkscape:current-layer="svg3106" />
  <path
     d="M 655.80113,818.42818 H 355.26779 c -30.9925,0 -56.35,-29.22839 -56.35,-64.95197 V 331.28842 c 0,-9.02112 6.26111,-16.59884 14.40055,-16.59884 7.82639,0 14.40056,7.21688 14.40056,16.59884 v 422.54864 c 0,17.68137 12.52222,32.11514 27.86194,32.11514 h 300.53334 c 15.33972,0 27.86195,-14.43377 27.86195,-32.11514 V 331.28842 c 0,-9.02112 6.26111,-16.59884 14.40056,-16.59884 7.82638,0 14.40055,7.21688 14.40055,16.59884 v 422.54864 c -0.62611,35.72358 -25.98361,64.59112 -56.97611,64.59112 z M 602.89474,300.97749 h -28.48806 v -42.21878 c 0,-12.99039 -9.07861,-23.45487 -20.34861,-23.45487 h -97.04722 c -11.27,0 -20.34861,10.46448 -20.34861,23.45487 v 42.21878 h -28.48806 v -42.21878 c 0,-31.0326 21.91389,-56.29171 48.83667,-56.29171 h 97.04722 c 26.92278,0 48.83667,25.25911 48.83667,56.29171 z"
     fill="#666666"
     id="path3102"
     style="stroke-width:0.656449" />
  <path
     d="M 751.28308,333.81433 H 259.47279 c -7.82639,0 -14.40056,-7.21689 -14.40056,-16.59884 0,-9.02111 6.26111,-16.59884 14.40056,-16.59884 h 491.81029 c 7.82639,0 14.40055,7.21688 14.40055,16.59884 0,9.38195 -6.57416,16.59884 -14.40055,16.59884 z M 602.89474,747.34186 c -7.82639,0 -14.40056,-7.21688 -14.40056,-16.59884 V 369.53791 c 0,-9.02111 6.26111,-16.59884 14.40056,-16.59884 7.82639,0 14.40055,7.21689 14.40055,16.59884 v 361.56595 c -0.31305,9.02112 -6.57416,16.238 -14.40055,16.238 z m -99.86473,0 c -7.82638,0 -14.40056,-7.21688 -14.40056,-16.59884 V 369.53791 c 0,-9.02111 6.26112,-16.59884 14.40056,-16.59884 7.82639,0 14.40056,7.21689 14.40056,16.59884 v 361.56595 c 0,9.02112 -6.57417,16.238 -14.40056,16.238 z m -99.86472,0 c -7.82639,0 -14.40055,-7.21688 -14.40055,-16.59884 V 369.53791 c 0,-9.02111 6.26111,-16.59884 14.40055,-16.59884 8.13945,0 14.40056,7.21689 14.40056,16.59884 v 361.56595 c 0,9.02112 -6.57417,16.238 -14.40056,16.238 z"
     fill="#666666"
     id="path3104"
     style="stroke-width:0.656449" />
</svg>
