<?xml version="1.0" encoding="UTF-8" standalone="no"?>
<svg
   class="svg-icon"
   style="width: 1em; height: 1em;vertical-align: middle;fill: currentColor;overflow: hidden;"
   viewBox="0 0 1024 1024"
   version="1.1"
   id="svg10280"
   sodipodi:docname="mail-r.svg"
   inkscape:version="1.2.2 (732a01da63, 2022-12-09)"
   xmlns:inkscape="http://www.inkscape.org/namespaces/inkscape"
   xmlns:sodipodi="http://sodipodi.sourceforge.net/DTD/sodipodi-0.dtd"
   xmlns="http://www.w3.org/2000/svg"
   xmlns:svg="http://www.w3.org/2000/svg">
  <defs
     id="defs10284" />
  <sodipodi:namedview
     id="namedview10282"
     pagecolor="#ffffff"
     bordercolor="#000000"
     borderopacity="0.25"
     inkscape:showpageshadow="2"
     inkscape:pageopacity="0.0"
     inkscape:pagecheckerboard="0"
     inkscape:deskcolor="#d1d1d1"
     showgrid="false"
     inkscape:zoom="1.1357422"
     inkscape:cx="512"
     inkscape:cy="512.88048"
     inkscape:window-width="2560"
     inkscape:window-height="1368"
     inkscape:window-x="-8"
     inkscape:window-y="-8"
     inkscape:window-maximized="1"
     inkscape:current-layer="svg10280" />
  <path
     d="M875.627096 216.369549 148.372904 216.369549C108.06436 216.369549 75.266536 249.167373 75.266536 289.481999l0 445.801062c0 40.447203 32.797824 73.111233 73.106368 73.111233l727.254192 0c40.447203 0 73.106368-32.66403 73.106368-73.111233L948.733464 289.481999C948.73468 249.167373 916.074299 216.369549 875.627096 216.369549L875.627096 216.369549 875.627096 216.369549 875.627096 216.369549zM858.171818 268.728086 568.16194 525.80148c-25.333324 22.586894-44.066945 33.762359-56.164373 33.762359-12.091347 0-30.824968-11.179114-56.110855-33.762359L165.829398 268.728086 858.171818 268.728086 858.171818 268.728086 858.171818 268.728086 858.171818 268.728086zM129.686719 719.019767 129.686719 316.231109l226.428441 198.623573L129.686719 719.019767 129.686719 719.019767 129.686719 719.019767 129.686719 719.019767zM167.706166 755.988322l227.392975-201.783549 37.239791 32.660381c21.623576 18.919716 48.330114 28.630743 79.658635 28.630743 31.520697 0 58.041141-9.711026 79.797294-28.630743l37.197221-32.660381 227.345539 201.783549L167.706166 755.988322 167.706166 755.988322 167.706166 755.988322 167.706166 755.988322zM894.361933 719.019767l-226.428441-204.163869 226.428441-198.623573L894.361933 719.019767 894.361933 719.019767 894.361933 719.019767 894.361933 719.019767zM894.361933 719.019767"
     id="path10278"
     style="fill:#501616;fill-opacity:1" />
</svg>
