<?xml version="1.0" encoding="UTF-8" standalone="no"?>
<svg
   class="svg-icon"
   style="width: 1em; height: 1em;vertical-align: middle;fill: currentColor;overflow: hidden;"
   viewBox="0 0 1024 1024"
   version="1.1"
   id="svg7965"
   sodipodi:docname="sign-up-r.svg"
   inkscape:version="1.2.2 (732a01da63, 2022-12-09)"
   xmlns:inkscape="http://www.inkscape.org/namespaces/inkscape"
   xmlns:sodipodi="http://sodipodi.sourceforge.net/DTD/sodipodi-0.dtd"
   xmlns="http://www.w3.org/2000/svg"
   xmlns:svg="http://www.w3.org/2000/svg">
  <defs
     id="defs7969" />
  <sodipodi:namedview
     id="namedview7967"
     pagecolor="#ffffff"
     bordercolor="#000000"
     borderopacity="0.25"
     inkscape:showpageshadow="2"
     inkscape:pageopacity="0.0"
     inkscape:pagecheckerboard="0"
     inkscape:deskcolor="#d1d1d1"
     showgrid="false"
     inkscape:zoom="1.1357422"
     inkscape:cx="512"
     inkscape:cy="512.88048"
     inkscape:window-width="2560"
     inkscape:window-height="1368"
     inkscape:window-x="-8"
     inkscape:window-y="-8"
     inkscape:window-maximized="1"
     inkscape:current-layer="svg7965" />
  <path
     d="M346.4 449.9H222.1V325.7h-82.8v124.2H15.1v82.8h124.2v124.2h82.8V532.7h124.2v-82.8z m414 41.4c68.7 0 123.8-55.5 123.8-124.2s-55.1-124.2-123.8-124.2c-13.3 0-26.1 2.1-37.7 5.8 23.6 33.5 37.3 74.1 37.3 118.4s-14.1 84.5-37.3 118.4c11.7 3.7 24.5 5.8 37.7 5.8z m-207 0c68.7 0 123.8-55.5 123.8-124.2s-55.1-124.2-123.8-124.2-124.2 55.5-124.2 124.2 55.5 124.2 124.2 124.2z m274.1 89.4c34.4 30.2 57.1 68.7 57.1 117.6v82.8h124.2v-82.8c0.1-63.7-98-103.1-181.3-117.6z m-274.1-6.6c-82.8 0-248.4 41.4-248.4 124.2v82.8h496.9v-82.8c0-82.8-165.7-124.2-248.5-124.2z"
     fill="#515151"
     id="path7963"
     style="fill:#501616;fill-opacity:1" />
</svg>
