<?xml version="1.0" encoding="UTF-8" standalone="no"?>
<!-- Created with Inkscape (http://www.inkscape.org/) -->

<svg
   version="1.1"
   id="svg2"
   width="6400"
   height="3200"
   viewBox="0 0 6400 3200"
   sodipodi:docname="logo-02.eps"
   xmlns:inkscape="http://www.inkscape.org/namespaces/inkscape"
   xmlns:sodipodi="http://sodipodi.sourceforge.net/DTD/sodipodi-0.dtd"
   xmlns="http://www.w3.org/2000/svg"
   xmlns:svg="http://www.w3.org/2000/svg">
  <defs
     id="defs6" />
  <sodipodi:namedview
     id="namedview4"
     pagecolor="#ffffff"
     bordercolor="#000000"
     borderopacity="0.25"
     inkscape:showpageshadow="2"
     inkscape:pageopacity="0.0"
     inkscape:pagecheckerboard="0"
     inkscape:deskcolor="#d1d1d1" />
  <g
     id="g8"
     inkscape:groupmode="layer"
     inkscape:label="ink_ext_XXXXXX"
     transform="matrix(1.3333333,0,0,-1.3333333,0,3200)">
    <g
       id="g10"
       transform="scale(0.1)">
      <path
         d="M 0,24000 H 24000 V 0 H 0 v 24000"
         style="fill:#ffffff;fill-opacity:1;fill-rule:evenodd;stroke:none"
         id="path12" />
      <path
         d="m 3175.48,8313.8 h 509.74 L 3480,6857.4 h 648.76 l 205.22,1456.4 h 509.74 l 46.34,324.4 H 3221.82 Z m 2012.47,324.4 -46.33,-324.4 h 1138.63 l -89.37,-638.9 H 5701 l 66.2,476.7 H 5118.45 L 4936.4,6857.4 h 648.75 l 69.51,493.2 h 228.4 l 191.97,-493.2 h 652.07 l -191.98,516.3 c 178.74,42 280.25,141.3 304.52,297.9 l 89.37,645.5 c 28.69,214 -120.26,321.1 -446.85,321.1 z m 3876.01,0 H 8415.2 L 8209.98,7181.8 H 7720.1 l 205.22,1456.4 H 7276.56 L 7071.34,7178.4 c -17.65,-108.1 12.14,-188.6 89.37,-241.6 77.23,-52.9 196.39,-79.4 357.48,-79.4 h 801.01 c 326.6,0 506.43,107 539.54,321 z m 251.55,-321.1 -158.87,-1138.7 c -17.66,-108.1 12.13,-188.6 89.37,-241.6 77.23,-52.9 196.39,-79.4 357.48,-79.4 h 1178.31 l 46.4,324.4 H 9805.4 l 158.87,1132 h 1022.83 l 46.3,324.4 H 9855.04 c -161.08,0 -287.41,-26.5 -378.99,-79.5 -91.58,-52.9 -145.09,-133.5 -160.54,-241.6 z m 2015.79,321.1 -251.6,-1780.8 h 648.8 l 105.9,758 367.4,-758 h 652.1 l -427,900.3 436.9,556.1 h 198.6 l 46.4,324.4 h -652.1 l -582.6,-738.2 106,738.2 z m 1870.1,-1459.8 c -17.6,-108.1 12.2,-188.6 89.4,-241.6 77.2,-52.9 196.4,-79.4 357.5,-79.4 h 711.6 l 46.4,324.4 h -556.1 l 205.2,1456.4 h -648.7 z m 1502.8,0 c -17.7,-108.1 12.1,-188.6 89.3,-241.6 77.3,-52.9 196.4,-79.4 357.5,-79.4 h 801 c 326.6,0 506.5,107 539.6,321 l 158.9,1138.7 c 28.6,214 -120.3,321.1 -446.9,321.1 h -801 c -161.1,0 -287.4,-26.5 -379,-79.5 -91.6,-52.9 -145.1,-133.5 -160.5,-241.6 z m 1138.6,3.4 h -489.9 l 158.9,1132 h 489.9 z m 2085.3,0 h -489.9 l 158.9,1132 h 1138.7 l 46.3,324.4 h -1294.2 c -161.1,0 -287.4,-26.5 -379,-79.5 -91.6,-52.9 -145.1,-133.5 -160.6,-241.6 l -158.8,-1138.7 c -17.7,-108.1 12.1,-188.6 89.3,-241.6 77.3,-52.9 196.4,-79.4 357.5,-79.4 h 801 c 326.6,0 506.5,107 539.6,321 l 112.5,814.3 h -648.8 z m 946.7,-3.4 c -17.7,-108.1 12.1,-188.6 89.3,-241.6 77.3,-52.9 196.4,-79.4 357.5,-79.4 h 801 c 326.6,0 506.5,107 539.6,321 l 158.8,1138.7 c 28.7,214 -120.2,321.1 -446.8,321.1 h -801 c -161.1,0 -287.4,-26.5 -379,-79.5 -91.6,-52.9 -145.1,-133.5 -160.6,-241.6 z m 1138.6,3.4 h -489.9 l 158.9,1132 h 489.9 l -158.9,-1132"
         style="fill:#1d3159;fill-opacity:1;fill-rule:nonzero;stroke:none"
         id="path14" />
      <path
         d="m 8093.38,5475 v 253.9 l -162.17,529.9 h 184.88 l 75.5,-354.6 70.82,354.6 h 172.62 L 8276.1,5728.9 V 5475 Z m 692.49,184.7 V 6073 c 0,21.8 -3.24,36.4 -9.73,43.8 -6.49,7.4 -19.28,11.2 -38.56,11.2 -19.64,0 -32.79,-3.8 -39.28,-11.2 -6.49,-7.4 -9.73,-22 -9.73,-43.8 v -413.3 c 0,-22.2 3.24,-37 9.73,-44.2 6.49,-7.2 19.64,-10.8 39.28,-10.8 19.28,0 32.07,3.6 38.56,10.8 6.49,7.2 9.73,22 9.73,44.2 z m 187.04,25.7 c 0,-53.8 -3.06,-92.2 -9,-115.3 -5.95,-23 -16.41,-42.5 -31.18,-58.4 -15.85,-17.3 -35.68,-29.3 -59.64,-36.2 -23.79,-6.8 -69.02,-10.3 -135.69,-10.3 -66.85,0 -112.26,3.5 -136.05,10.3 -23.96,6.9 -43.96,18.9 -59.82,36.2 -14.78,16.3 -25.23,36.3 -31.53,60 -6.31,23.8 -9.56,61.7 -9.56,113.7 v 362.4 c 0,52.1 3.07,89.9 9.19,113.5 6.13,23.6 16.94,43.5 31.9,59.7 16.22,17.6 37.66,29.9 64.15,36.9 26.66,7.1 70.63,10.7 131.72,10.7 60.91,0 104.51,-3.6 130.64,-10.7 26.31,-7 47.58,-19.3 63.79,-36.9 14.96,-16.2 25.77,-36.1 31.9,-59.7 6.12,-23.6 9.18,-61.4 9.18,-113.5 z m 101.45,573.4 h 182.72 v -597 c 0,-21.8 3.24,-36.4 9.55,-43.8 6.31,-7.3 19.28,-11.1 39.1,-11.1 19.47,0 32.44,3.8 38.92,11.1 6.49,7.4 9.73,22 9.73,43.8 v 597 h 175.16 v -531 c 0,-61.3 -3.25,-106.1 -9.55,-134.4 -6.31,-28.3 -16.76,-52.5 -31.54,-72.1 -15.86,-20.6 -37.48,-35 -64.69,-43.4 -27.21,-8.5 -68.12,-12.7 -122.53,-12.7 -55.68,0 -96.77,4.2 -123.44,12.7 -26.84,8.4 -47.93,22.8 -63.42,43.4 -14.42,18.9 -24.69,42.3 -30.82,70.3 -6.12,27.7 -9.19,73.1 -9.19,136.2 z m 793.76,-138.4 h -44.51 v -242.1 h 44.51 c 23.61,0 39.46,3.9 47.39,11.8 7.93,8 11.89,22.6 11.89,44 V 6064 c 0,21.8 -3.96,36.6 -11.89,44.5 -7.93,8 -23.78,11.9 -47.39,11.9 z m 57.12,-447.4 c 0,27 -5.04,45.6 -14.96,55.9 -10.08,10.2 -29.01,15.3 -56.4,15.3 h -30.27 V 5475 h -182.72 v 783.8 H 9831 c 112.8,0 187.2,-14.2 223.6,-42.7 36.2,-28.6 54.4,-81.4 54.4,-158.4 V 5968 c 0,-45.4 -9.9,-80 -29.5,-103.8 -19.8,-23.6 -51.9,-39.6 -96.6,-47.8 41.4,-5.9 72.3,-20 92.1,-42.1 19.8,-22.2 29.9,-53.5 29.9,-93.9 V 5475 h -179.66 z m 716.66,63.6 v -76 c 0,-20.4 4.1,-34.8 12.2,-43.3 8.1,-8.4 21.8,-12.6 41.3,-12.6 21.1,0 35.3,4 42.7,12.1 7.4,8.1 11.2,23.4 11.2,45.9 v 55.5 c 0,16.8 -1.1,29.4 -3.3,37.5 -2,8.1 -5.6,15.3 -10.4,21.6 -12.1,14.5 -39.7,26.5 -82.9,35.9 -19.8,4.3 -35.2,7.9 -46,11.2 -50.8,14.4 -85.6,34.6 -104.7,60.5 -18.9,26 -28.4,66.7 -28.4,122.4 v 72.4 c 0,70.3 13.7,119.3 40.9,147.2 27.2,27.8 74.4,41.7 141.6,41.7 h 54.1 c 42.1,0 76.7,-3.6 103.9,-10.9 27.1,-7.2 48.3,-18.7 63.8,-34.6 12.5,-12.2 20.9,-27.9 26,-47 4.8,-18.9 7.4,-49.4 7.4,-91.2 v -60.7 h -162 v 49 c 0,24.7 -3.3,41.1 -9.8,49.2 -6.6,8.1 -19.8,12.1 -40,12.1 -19.4,0 -32.6,-3.8 -39.4,-11.4 -6.9,-7.5 -10.3,-21.6 -10.3,-42.5 V 6030 c 0,-38.4 32.8,-65.8 98.4,-82.4 18.5,-5 33.3,-9 44.3,-12.2 50.3,-14.1 84.9,-33.9 103.6,-59.1 18.9,-25.4 28.3,-65.6 28.3,-120.6 v -105.6 c 0,-65.6 -15.5,-112.6 -46.7,-141.6 -31.1,-28.8 -81.9,-43.3 -152.2,-43.3 h -48.7 c -77.5,0 -130.6,13.2 -159.6,39.7 -29,26.3 -43.6,75.1 -43.6,146.3 v 85.4 z M 11025,5475 v 783.8 h 182.7 v -643.3 h 173 V 5475 Z m 710.6,184.7 V 6073 c 0,21.8 -3.2,36.4 -9.7,43.8 -6.5,7.4 -19.3,11.2 -38.5,11.2 -19.7,0 -32.8,-3.8 -39.3,-11.2 -6.5,-7.4 -9.8,-22 -9.8,-43.8 v -413.3 c 0,-22.2 3.3,-37 9.8,-44.2 6.5,-7.2 19.6,-10.8 39.3,-10.8 19.2,0 32,3.6 38.5,10.8 6.5,7.2 9.7,22 9.7,44.2 z m 187.1,25.7 c 0,-53.8 -3.1,-92.2 -9,-115.3 -6,-23 -16.4,-42.5 -31.2,-58.4 -15.8,-17.3 -35.7,-29.3 -59.6,-36.2 -23.8,-6.8 -69,-10.3 -135.7,-10.3 -66.9,0 -112.3,3.5 -136.1,10.3 -23.9,6.9 -43.9,18.9 -59.8,36.2 -14.8,16.3 -25.2,36.3 -31.5,60 -6.3,23.8 -9.6,61.7 -9.6,113.7 v 362.4 c 0,52.1 3.1,89.9 9.2,113.5 6.1,23.6 17,43.5 31.9,59.7 16.2,17.6 37.7,29.9 64.2,36.9 26.6,7.1 70.6,10.7 131.7,10.7 60.9,0 104.5,-3.6 130.6,-10.7 26.3,-7 47.6,-19.3 63.8,-36.9 15,-16.2 25.8,-36.1 31.9,-59.7 6.1,-23.6 9.2,-61.4 9.2,-113.5 z m 563.1,215.6 v -215.6 c 0,-52 -3.1,-90 -9.2,-113.7 -6.1,-23.7 -16.4,-43.7 -31,-60 -15.3,-17.3 -34.8,-29.3 -58.2,-36.2 -23.4,-6.8 -67.7,-10.3 -132.8,-10.3 -66.8,0 -112.3,3.5 -136.2,10.3 -23.8,6.9 -43.8,18.9 -59.7,36.2 -14.7,16.3 -25.2,36.3 -31.5,60 -6.3,23.7 -9.5,61.7 -9.5,113.7 v 362.2 c 0,52.1 3,90.1 9.1,113.7 6.2,23.6 17,43.5 31.9,59.7 16.3,17.6 37.5,29.9 64,36.9 26.3,7.1 70.3,10.7 131.9,10.7 57.7,0 99.8,-3.6 126.5,-10.9 26.5,-7.2 47.8,-19.4 63.6,-36.7 14.4,-15.9 24.7,-35.5 30.8,-59.1 6.2,-23.6 9.2,-61.8 9.2,-114.3 v -40.7 h -174.1 v 66.1 c 0,21.8 -3.5,36.4 -10.8,43.8 -7.2,7.4 -21.9,11.2 -43.9,11.2 -22.6,0 -37.5,-3.8 -44.7,-11.2 -7.2,-7.4 -10.8,-22 -10.8,-43.8 v -413.3 c 0,-21.8 3.6,-36.4 10.8,-43.8 7.2,-7.4 22.1,-11.2 44.7,-11.2 22,0 36.7,3.8 43.9,11.2 7.3,7.4 10.8,22 10.8,43.8 v 100.7 h -51.7 V 5901 Z m 304.5,-102.8 h 82.9 l -40,369.8 z m -220.7,-323.2 116.8,783.8 h 292.1 l 119.8,-783.8 h -187.1 l -21.6,192.4 h -115.7 l -21.6,-192.4 z m 602.2,0 v 783.8 h 257.3 l 141.5,-619.7 -10.7,619.7 h 165.5 V 5475 h -256.3 l -144,636.6 12.1,-636.6 z m 938.6,0 v 783.8 h 182.7 v -301.6 h 95.2 v 301.6 H 14571 V 5475 h -182.7 v 341.6 h -95.2 V 5475 Z m 575.4,0 v 783.8 h 344.7 v -140.5 h -162 v -173 h 151.9 v -135.2 h -151.9 v -194.6 h 177.3 V 5475 Z m 674.8,645.4 h -44.5 v -242.1 h 44.5 c 23.6,0 39.5,3.9 47.4,11.8 7.9,8 11.9,22.6 11.9,44 V 6064 c 0,21.8 -4,36.6 -11.9,44.5 -7.9,8 -23.8,11.9 -47.4,11.9 z m 57.1,-447.4 c 0,27 -5,45.6 -14.9,55.9 -10.1,10.2 -29,15.3 -56.4,15.3 h -30.3 V 5475 h -182.7 v 783.8 h 190.1 c 112.8,0 187.2,-14.2 223.6,-42.7 36.2,-28.6 54.4,-81.4 54.4,-158.4 V 5968 c 0,-45.4 -9.9,-80 -29.5,-103.8 -19.8,-23.6 -51.9,-39.6 -96.6,-47.8 41.4,-5.9 72.3,-20 92.1,-42.1 19.8,-22.2 29.9,-53.5 29.9,-93.9 V 5475 h -179.7 z m 291.1,-198 v 783.8 h 344.7 v -140.5 h -162 v -173 h 151.9 v -135.2 h -151.9 v -194.6 h 177.3 V 5475 h -360"
         style="fill:#1d3159;fill-opacity:1;fill-rule:nonzero;stroke:none"
         id="path16" />
      <path
         d="m 9746.64,12728.9 -4973.47,-965 754.5,-321.1 -5.9,-279.2 c -107.67,0 -215.52,0.1 -322.87,0.1 -126.33,0 -228.74,-287.3 -228.74,-641.7 0,-244.1 48.57,-456.4 120.08,-564.9 32.32,-49 69.34,-76.9 108.66,-76.9 135.38,0 270.76,0.1 406.15,0.1 35.83,2 69.64,27.1 99.62,70.2 4.92,7.1 9.73,14.7 14.44,22.7 39.48,-59.3 84.6,-93 132.51,-93 166.33,0 332.67,0.2 499.01,0.2 44.02,2.4 85.57,33.2 122.39,86.2 6.07,8.7 11.93,17.2 17.58,25.5 65.71,97 103.29,174.4 117.73,400.6 l 578.25,77 -46.46,-127.7 c -32.37,-89 11.54,-156.5 97.57,-149.9 l 879.21,67.1 c 86.03,6.5 182.9,84.7 215.27,173.7 l 69.24,190.4 c 18.49,-252.7 73.44,-468 148.75,-600.8 51.11,-90.1 111.6,-142.3 176.43,-142.3 196.5,0 392.99,0.2 589.49,0.2 52,2.9 101.08,39.3 144.59,101.9 7.15,10.2 14.14,21.3 20.98,32.9 57.3,-86.1 122.76,-135 192.31,-135 241.43,0 482.84,0.2 724.24,0.2 63.9,3.6 124.2,48.3 177.7,125.2 6.9,9.9 13.6,20.3 20.3,31.3 47.7,78.5 89.1,183.3 121.9,307.4 l 1922.8,0.5 c 40.9,-122.8 90,-227.5 145.2,-306.2 74.6,-106.5 160.3,-165.5 252.4,-157.7 v -0.4 h 911.9 c 79.5,4.4 154.8,58.7 221.8,152.1 1.9,2.7 3.9,5.5 5.8,8.2 74.4,107.1 138.5,262.7 186.9,452.1 l 2563.8,40.9 c 55.3,-232.3 134.8,-422.1 229.8,-536.2 67.1,-80.6 141.9,-123.4 221.3,-116.7 v -0.4 h 911.9 c 59.1,3.3 115.8,34 168.5,88 20.3,20.7 40,44.9 59.1,72.3 83.3,119.9 153.7,300.8 203.6,521.6 l 37.4,0.6 392.7,253.3 76,1380.7 h -201.1 l 163.1,810.6 c -175.7,252.7 -380.1,365 -613.1,336.9 -5.5,129.4 -9.2,241.8 -13.9,340.4 24.1,369.7 -130.7,677.2 -425.7,932.1 -225.8,195 -534.6,358.3 -908.1,494.4 l -79.1,508.9 4.7,0.8 c -20.6,113.2 -39.1,225.8 -56.3,333.5 l 197.7,149.6 c -590.8,2825.4 -4526.8,2463.3 -6516.8,2355.1 l -475,-224.2 1.1,-472.7 -496.49,78.7 -5019.29,-3944.5 4955.92,3290 v -2872.4 l -4975.6,-2044.4 4975.6,1172.5 z m 3431.86,4226.5 c 553.6,20.8 2346.8,88.4 3506.7,-178 -970.4,1530 -2878.8,1463.2 -4708.4,1451.6 531.2,-264.8 844.3,-740.6 994,-1347.4 l 5.2,1.3 v -23 c 10.2,-42.7 19.7,-86.2 28.4,-130.6 29.1,-148.4 30.8,-203.5 39.7,-253.9 l 2.9,-74.4 c -219.3,-54.1 -458.4,-126.9 -693.2,-185 -16.5,-1122.4 -34.2,-2348.9 -29.6,-3467.4 67.2,131.3 259.2,781.3 891.6,756.3 h 1743.1 l -80.1,149.6 -1606.3,-1.7 v 1121.4 c 1318.8,-107.6 2168.9,-443.9 2550.3,-1009 l 391.3,299.9 c -215,536.5 -781.6,703.2 -1283.3,925.8 636.2,-23.1 1420.5,-336.7 1662.4,-952 l 1365.1,-34.1 c -59.8,137.2 -143.2,486.1 -685.7,842.3 813.1,-335 939.8,-701.1 1034.9,-889 33.3,-23.3 66,-46.9 97.3,-69.8 -34.6,234.7 -162,438.1 -365.7,614.1 -259.3,224 -640.5,405.1 -1111.2,550.7 -96.1,15.8 -203.5,29.8 -322.2,42 -464,47.8 -1100.5,68.2 -1909.4,61.5 -328.8,-2.8 -686,-10.1 -1071.6,-21.8 -123.8,-18 -220.3,-80.2 -289.5,-186.7 -71.4,26.3 -119.1,112.6 -150.7,235.9 v 1565.4 z m 3636.5,-403.5 c -960.1,250.6 -2662,230 -3394,194.1 l 189.6,-302.9 4.7,-0.4 4.1,-6.3 c 1046.2,4.8 2315.3,-13.5 3338.1,-192.4 -44,108.5 -91.7,210.8 -142.5,307.9 z m -3716.3,-5837.7 c 45.6,0 82.5,-36.9 82.5,-82.5 0,-45.6 -36.9,-82.5 -82.5,-82.5 -45.6,0 -82.5,36.9 -82.5,82.5 0,45.6 36.9,82.5 82.5,82.5 z m 0,1437.5 c 45.6,0 82.5,-36.9 82.5,-82.5 0,-45.6 -36.9,-82.5 -82.5,-82.5 -45.6,0 -82.5,36.9 -82.5,82.5 0,45.6 36.9,82.5 82.5,82.5 z m 168.5,-1078.8 c 45.6,0 82.5,-36.9 82.5,-82.5 0,-45.5 -36.9,-82.5 -82.5,-82.5 -45.6,0 -82.5,37 -82.5,82.5 0,45.6 36.9,82.5 82.5,82.5 z m 0,720 c 45.6,0 82.5,-36.9 82.5,-82.5 0,-45.5 -36.9,-82.5 -82.5,-82.5 -45.6,0 -82.5,37 -82.5,82.5 0,45.6 36.9,82.5 82.5,82.5 z m 35,-360 c 45.6,0 82.5,-36.9 82.5,-82.5 0,-45.5 -36.9,-82.5 -82.5,-82.5 -45.6,0 -82.5,37 -82.5,82.5 0,45.6 36.9,82.5 82.5,82.5 z m 1194.5,1005.5 0.9,-239.8 c -261.6,-3.6 -526.6,1.7 -790.8,1.7 -65.5,330.1 -165.3,585.5 -277,767.1 h -470.1 l -232.5,140 h 1035.1 z m -2398.4,-954.9 v -112.4 l -527.7,-2.7 278.9,97.6 z M 5306.1,10522 c 0,87.3 -12.88,216.2 -58.15,294.8 -73.66,-142.1 -73.66,-447.6 0,-589.7 45.25,78.1 58.15,208.1 58.15,294.9 z m 7195.7,5516.6 -5.3,-1192.7 253.3,36.9 63.4,-205.8 201.5,14.4 v 1481.9 z m -458.5,-5147.5 h -697.2 l -695.8,1555.8 -281.9,1.6 -72.3,80.2 v 4146 l 215.8,108.1 v -4032.1 l 112.3,-184.2 564.1,-0.9 -106.4,163.4 h -200.8 v 1665.1 l 1072.2,-1002.3 v -1596.6 l -307,247 -4.8,397.1 -703.2,5.4 611.3,-1381.2 493.9,3.7 z m -2270.78,726 c -67.14,-129.5 -111.16,-346.6 -111.16,-592.5 0,-245.9 44.02,-462.9 111.16,-592.5 42.26,72.7 69.01,167.9 85.3,250.6 41.75,211.9 42.39,466.7 1,678.7 -16.73,85.7 -42.69,180 -86.3,255.7 z m -896.28,-1083.7 c 33.97,172.5 34.5,379.7 0.81,552.3 -13.61,69.8 -34.76,146.6 -70.24,208.2 -120.47,-232.5 -120.47,-732 0,-964.5 34.38,59.2 56.18,136.7 69.43,204 z m -2905.65,-94.1 c 24.15,122.6 24.5,269.8 0.58,392.4 -9.68,49.6 -24.68,104.1 -49.9,147.9 -85.57,-165.2 -85.57,-520 0,-685.2 24.43,42.1 39.91,97.2 49.32,144.9 z m -767.79,440.2 c 46.62,-4 86.96,-78.1 108.02,-186.1 9.94,-50.9 15.59,-109.3 15.59,-171.4 0,-62.2 -5.65,-120.6 -15.58,-171.6 -21.07,-107.9 -61.41,-182.1 -108.03,-186 -73.44,-6 -131.4,159.9 -131.4,357.6 0,197.6 58.11,363.8 131.4,357.5 z m 12891.7,2753.4 -1620.5,43.3 v -211.8 l 1620.5,-43.3 z m 0,-349.8 -1620.5,43.4 v -211.8 l 1620.5,-43.4 z m 0,-349.7 -1620.5,43.3 v -211.8 l 1620.5,-43.3 z M 8518.06,10811.6 c 0,323.3 94.94,594.9 214.9,584.8 v 0 c 76.26,-6.4 142.23,-127.7 176.67,-304.3 16.25,-83.3 25.49,-178.8 25.49,-280.5 0,-101.6 -9.24,-197.1 -25.49,-280.4 -34.44,-176.6 -100.41,-297.9 -176.67,-304.3 v 0 c -119.96,-10.1 -214.9,261.5 -214.9,584.7 z m 899.69,213 c 0,397.2 116.63,730.8 264.05,718.5 v -0.1 c 93.68,-7.9 174.73,-156.9 217.06,-373.8 h -0.01 c 19.97,-102.3 31.32,-219.7 31.32,-344.6 0,-124.9 -11.36,-242.3 -31.31,-344.6 v 0 c -42.33,-216.9 -123.38,-365.9 -217.06,-373.8 v -0.1 c -147.42,-12.3 -264.05,321.3 -264.05,718.5 z m 913.15,-238.3 c -4.9,485.2 -107.2,912.5 -256.9,1117.6 h 498.5 c 269.2,-637.4 190.1,-1020 -237.5,-1147.9 z m 550.2,3852.9 -0.1,1209.2 800.1,201.3 -29.5,-2114.6 z m 2250.5,-3292.8 c 0,371.5 -141.7,672.6 -316.4,672.6 -5.8,0 -11.5,-0.3 -17.3,-1 29.9,78.5 106.1,248.2 223.5,249.2 l 128.6,1.9 c 410.6,-74.8 400.8,-1772.4 0,-1845.5 -118.7,1.8 -179.6,-16 -256.4,75.6 -43,51.6 -71.3,113.4 -95.7,175.5 263,-30.1 333.7,501.3 333.7,671.7 z m -7137.28,-908.6 c -24.48,-125.5 -71.34,-211.6 -125.5,-216.2 -17.48,-1.5 -34.21,5.5 -49.77,19.5 l 0.02,0.1 c -18.23,16.4 -34.83,42.3 -49.2,75.6 -70.82,164.4 -70.96,465.1 -3.33,632.4 26.94,66.7 62.69,106.5 102.28,103.2 54.16,-4.6 101.02,-90.7 125.5,-216.2 24.15,-123.7 24.15,-274.6 0,-398.4 z m 10034.78,2009.2 -0.6,318.2 190,150.4 2.7,403.7 c -5,-2.7 -45.5,20.1 -121.4,68.7 v 195.2 l 188.7,98.3 v 160.9 l 1963,-46.7 v -157.6 l 100.4,-52.2 v -195.3 l -63.2,-55.3 0.8,-427.1 133.6,-140.4 -0.5,-307.4 -328.1,-1.9 v 125.1 L 16474,12627 v -177.5 z m -2082.4,-1584.4 -186.2,1080 600.2,-1.1 104.8,-188.5 4348.1,4.6 140.8,191.9 -47.3,-990.3 -223.3,-144.1 -321.9,-5.1 -117.7,159.3 -3171.1,-26.4 -142.9,-187.7 -841.2,-13.4 z m 4917.8,1600.4 -285,-1.8 -0.7,546.8 h 394.9 z m -3998.2,27.3 -461.7,332.5 c -9.9,-14.2 5.9,28 47.5,126.7 h 934.1 l 263.9,-448.7 z m -2051.1,-1345 c -52.2,0 -94.6,90 -94.6,201.1 0,111 42.4,201 94.6,201 52.2,0 94.6,-90 94.6,-201 0,-111.1 -42.4,-201.1 -94.6,-201.1"
         style="fill:#1d3159;fill-opacity:1;fill-rule:evenodd;stroke:none"
         id="path18" />
      <path
         d="m 20952,9495.9 c -320.9,379.3 -4205.9,679 -8952,679 -4746.12,0 -8631.12,-299.7 -8951.99,-679 H 20952"
         style="fill:#1d3159;fill-opacity:1;fill-rule:evenodd;stroke:none"
         id="path20" />
      <path
         d="M 3047.99,5747.7 H 7052.17 V 5987 H 3047.99 Z m 13899.81,0 H 20952 V 5987 h -4004.2 v -239.3"
         style="fill:#1d3159;fill-opacity:1;fill-rule:evenodd;stroke:none"
         id="path22" />
      <path
         d="M 24000,24000 H 48000 V 0 H 24000 v 24000"
         style="fill:#1d3159;fill-opacity:1;fill-rule:evenodd;stroke:none"
         id="path24" />
      <path
         d="m 27175.5,8313.8 h 509.7 L 27480,6857.4 h 648.8 l 205.2,1456.4 h 509.7 l 46.4,324.4 h -1668.3 z m 2012.4,324.4 -46.3,-324.4 h 1138.7 l -89.4,-638.9 H 29701 l 66.2,476.7 h -648.8 l -182,-1294.2 h 648.8 l 69.5,493.2 h 228.4 l 191.9,-493.2 h 652.1 l -192,516.3 c 178.8,42 280.3,141.3 304.5,297.9 l 89.4,645.5 c 28.7,214 -120.2,321.1 -446.8,321.1 z m 3876.1,0 h -648.8 L 32210,7181.8 h -489.9 l 205.2,1456.4 h -648.7 l -205.3,-1459.8 c -17.6,-108.1 12.2,-188.6 89.4,-241.6 77.2,-52.9 196.4,-79.4 357.5,-79.4 h 801 c 326.6,0 506.4,107 539.5,321 z m 251.5,-321.1 -158.9,-1138.7 c -17.6,-108.1 12.2,-188.6 89.4,-241.6 77.2,-52.9 196.4,-79.4 357.5,-79.4 h 1178.3 l 46.4,324.4 h -1022.8 l 158.9,1132 h 1022.8 l 46.3,324.4 H 33855 c -161,0 -287.4,-26.5 -378.9,-79.5 -91.6,-52.9 -145.1,-133.5 -160.6,-241.6 z m 2015.8,321.1 -251.6,-1780.8 h 648.8 l 105.9,758 367.4,-758 h 652.1 l -427,900.3 436.9,556.1 h 198.6 l 46.4,324.4 h -652.1 l -582.6,-738.2 106,738.2 z m 1870.1,-1459.8 c -17.6,-108.1 12.2,-188.6 89.4,-241.6 77.2,-52.9 196.4,-79.4 357.5,-79.4 h 711.6 l 46.4,324.4 h -556.1 l 205.2,1456.4 h -648.7 z m 1502.8,0 c -17.7,-108.1 12.1,-188.6 89.4,-241.6 77.2,-52.9 196.3,-79.4 357.4,-79.4 h 801 c 326.6,0 506.5,107 539.6,321 l 158.8,1138.7 c 28.7,214 -120.2,321.1 -446.8,321.1 h -801 c -161.1,0 -287.4,-26.5 -379,-79.5 -91.6,-52.9 -145.1,-133.5 -160.5,-241.6 z m 1138.6,3.4 h -489.9 l 158.9,1132 h 489.9 z m 2085.3,0 h -489.9 l 158.9,1132 h 1138.6 l 46.4,324.4 h -1294.2 c -161.1,0 -287.4,-26.5 -379,-79.5 -91.6,-52.9 -145.1,-133.5 -160.6,-241.6 l -158.8,-1138.7 c -17.7,-108.1 12.1,-188.6 89.3,-241.6 77.3,-52.9 196.4,-79.4 357.5,-79.4 h 801 c 326.6,0 506.5,107 539.6,321 l 112.5,814.3 h -648.8 z m 946.7,-3.4 c -17.7,-108.1 12.1,-188.6 89.3,-241.6 77.3,-52.9 196.4,-79.4 357.5,-79.4 h 801 c 326.6,0 506.5,107 539.6,321 l 158.8,1138.7 c 28.7,214 -120.2,321.1 -446.8,321.1 h -801 c -161.1,0 -287.4,-26.5 -379,-79.5 -91.6,-52.9 -145.1,-133.5 -160.5,-241.6 z m 1138.6,3.4 h -489.9 l 158.9,1132 h 489.9 l -158.9,-1132"
         style="fill:#ffffff;fill-opacity:1;fill-rule:nonzero;stroke:none"
         id="path26" />
      <path
         d="m 32093.4,5475 v 253.9 l -162.2,529.9 h 184.9 l 75.5,-354.6 70.8,354.6 h 172.6 l -158.9,-529.9 V 5475 Z m 692.5,184.7 V 6073 c 0,21.8 -3.3,36.4 -9.8,43.8 -6.4,7.4 -19.2,11.2 -38.5,11.2 -19.7,0 -32.8,-3.8 -39.3,-11.2 -6.5,-7.4 -9.7,-22 -9.7,-43.8 v -413.3 c 0,-22.2 3.2,-37 9.7,-44.2 6.5,-7.2 19.6,-10.8 39.3,-10.8 19.3,0 32.1,3.6 38.5,10.8 6.5,7.2 9.8,22 9.8,44.2 z m 187,25.7 c 0,-53.8 -3,-92.2 -9,-115.3 -5.9,-23 -16.4,-42.5 -31.2,-58.4 -15.8,-17.3 -35.6,-29.3 -59.6,-36.2 -23.8,-6.8 -69,-10.3 -135.7,-10.3 -66.9,0 -112.3,3.5 -136.1,10.3 -23.9,6.9 -43.9,18.9 -59.8,36.2 -14.7,16.3 -25.2,36.3 -31.5,60 -6.3,23.8 -9.6,61.7 -9.6,113.7 v 362.4 c 0,52.1 3.1,89.9 9.2,113.5 6.2,23.6 17,43.5 31.9,59.7 16.3,17.6 37.7,29.9 64.2,36.9 26.6,7.1 70.6,10.7 131.7,10.7 60.9,0 104.5,-3.6 130.6,-10.7 26.4,-7 47.6,-19.3 63.8,-36.9 15,-16.2 25.8,-36.1 31.9,-59.7 6.2,-23.6 9.2,-61.4 9.2,-113.5 z m 101.5,573.4 h 182.7 v -597 c 0,-21.8 3.2,-36.4 9.5,-43.8 6.3,-7.3 19.3,-11.1 39.1,-11.1 19.5,0 32.5,3.8 38.9,11.1 6.5,7.4 9.8,22 9.8,43.8 v 597 h 175.1 v -531 c 0,-61.3 -3.2,-106.1 -9.5,-134.4 -6.3,-28.3 -16.8,-52.5 -31.6,-72.1 -15.8,-20.6 -37.4,-35 -64.6,-43.4 -27.2,-8.5 -68.2,-12.7 -122.6,-12.7 -55.7,0 -96.7,4.2 -123.4,12.7 -26.9,8.4 -47.9,22.8 -63.4,43.4 -14.4,18.9 -24.7,42.3 -30.8,70.3 -6.2,27.7 -9.2,73.1 -9.2,136.2 z m 793.7,-138.4 h -44.5 v -242.1 h 44.5 c 23.6,0 39.5,3.9 47.4,11.8 7.9,8 11.9,22.6 11.9,44 V 6064 c 0,21.8 -4,36.6 -11.9,44.5 -7.9,8 -23.8,11.9 -47.4,11.9 z m 57.1,-447.4 c 0,27 -5,45.6 -14.9,55.9 -10.1,10.2 -29,15.3 -56.4,15.3 h -30.3 V 5475 h -182.7 v 783.8 h 190.1 c 112.8,0 187.2,-14.2 223.6,-42.7 36.2,-28.6 54.4,-81.4 54.4,-158.4 V 5968 c 0,-45.4 -9.9,-80 -29.5,-103.8 -19.8,-23.6 -51.9,-39.6 -96.6,-47.8 41.4,-5.9 72.3,-20 92.1,-42.1 19.8,-22.2 29.9,-53.5 29.9,-93.9 V 5475 h -179.7 z m 716.7,63.6 v -76 c 0,-20.4 4.1,-34.8 12.2,-43.3 8.1,-8.4 21.8,-12.6 41.3,-12.6 21.1,0 35.3,4 42.7,12.1 7.4,8.1 11.2,23.4 11.2,45.9 v 55.5 c 0,16.8 -1.1,29.4 -3.3,37.5 -2,8.1 -5.6,15.3 -10.4,21.6 -12.1,14.5 -39.7,26.5 -82.9,35.9 -19.8,4.3 -35.2,7.9 -46,11.2 -50.8,14.4 -85.6,34.6 -104.7,60.5 -18.9,26 -28.4,66.7 -28.4,122.4 v 72.4 c 0,70.3 13.7,119.3 40.9,147.2 27.2,27.8 74.4,41.7 141.6,41.7 h 54.1 c 42.1,0 76.7,-3.6 103.9,-10.9 27.1,-7.2 48.3,-18.7 63.8,-34.6 12.5,-12.2 20.9,-27.9 26,-47 4.9,-18.9 7.4,-49.4 7.4,-91.2 v -60.7 h -162 v 49 c 0,24.7 -3.3,41.1 -9.8,49.2 -6.6,8.1 -19.8,12.1 -40,12.1 -19.4,0 -32.6,-3.8 -39.4,-11.4 -6.9,-7.5 -10.3,-21.6 -10.3,-42.5 V 6030 c 0,-38.4 32.8,-65.8 98.4,-82.4 18.5,-5 33.3,-9 44.3,-12.2 50.3,-14.1 84.9,-33.9 103.6,-59.1 18.9,-25.4 28.3,-65.6 28.3,-120.6 v -105.6 c 0,-65.6 -15.5,-112.6 -46.6,-141.6 -31.2,-28.8 -82,-43.3 -152.3,-43.3 h -48.7 c -77.5,0 -130.6,13.2 -159.6,39.7 -29,26.3 -43.6,75.1 -43.6,146.3 v 85.4 z M 35025,5475 v 783.8 h 182.7 v -643.3 h 173 V 5475 Z m 710.7,184.7 V 6073 c 0,21.8 -3.3,36.4 -9.8,43.8 -6.5,7.4 -19.3,11.2 -38.5,11.2 -19.7,0 -32.8,-3.8 -39.3,-11.2 -6.5,-7.4 -9.8,-22 -9.8,-43.8 v -413.3 c 0,-22.2 3.3,-37 9.8,-44.2 6.5,-7.2 19.6,-10.8 39.3,-10.8 19.2,0 32,3.6 38.5,10.8 6.5,7.2 9.8,22 9.8,44.2 z m 187,25.7 c 0,-53.8 -3.1,-92.2 -9,-115.3 -6,-23 -16.4,-42.5 -31.2,-58.4 -15.8,-17.3 -35.7,-29.3 -59.6,-36.2 -23.8,-6.8 -69,-10.3 -135.7,-10.3 -66.9,0 -112.3,3.5 -136.1,10.3 -23.9,6.9 -43.9,18.9 -59.8,36.2 -14.8,16.3 -25.2,36.3 -31.5,60 -6.3,23.8 -9.6,61.7 -9.6,113.7 v 362.4 c 0,52.1 3.1,89.9 9.2,113.5 6.1,23.6 16.9,43.5 31.9,59.7 16.2,17.6 37.7,29.9 64.2,36.9 26.6,7.1 70.6,10.7 131.7,10.7 60.9,0 104.5,-3.6 130.6,-10.7 26.3,-7 47.6,-19.3 63.8,-36.9 15,-16.2 25.8,-36.1 31.9,-59.7 6.1,-23.6 9.2,-61.4 9.2,-113.5 z m 563.1,215.6 v -215.6 c 0,-52 -3.1,-90 -9.2,-113.7 -6.1,-23.7 -16.4,-43.7 -31,-60 -15.3,-17.3 -34.8,-29.3 -58.2,-36.2 -23.4,-6.8 -67.7,-10.3 -132.8,-10.3 -66.8,0 -112.2,3.5 -136.2,10.3 -23.8,6.9 -43.8,18.9 -59.7,36.2 -14.7,16.3 -25.2,36.3 -31.5,60 -6.3,23.7 -9.5,61.7 -9.5,113.7 v 362.2 c 0,52.1 3,90.1 9.1,113.7 6.2,23.6 17,43.5 31.9,59.7 16.3,17.6 37.5,29.9 64,36.9 26.3,7.1 70.3,10.7 131.9,10.7 57.7,0 99.8,-3.6 126.5,-10.9 26.5,-7.2 47.8,-19.4 63.6,-36.7 14.4,-15.9 24.7,-35.5 30.8,-59.1 6.2,-23.6 9.2,-61.8 9.2,-114.3 v -40.7 h -174 v 66.1 c 0,21.8 -3.6,36.4 -10.9,43.8 -7.2,7.4 -21.9,11.2 -43.9,11.2 -22.6,0 -37.5,-3.8 -44.7,-11.2 -7.2,-7.4 -10.8,-22 -10.8,-43.8 v -413.3 c 0,-21.8 3.6,-36.4 10.8,-43.8 7.2,-7.4 22.1,-11.2 44.7,-11.2 22,0 36.7,3.8 43.9,11.2 7.3,7.4 10.9,22 10.9,43.8 v 100.7 h -51.8 V 5901 Z m 304.5,-102.8 h 82.9 l -40,369.8 z m -220.7,-323.2 116.8,783.8 h 292.1 l 119.8,-783.8 h -187.1 l -21.6,192.4 h -115.7 l -21.6,-192.4 z m 602.2,0 v 783.8 h 257.3 l 141.5,-619.7 -10.7,619.7 h 165.5 V 5475 h -256.3 l -144,636.6 12.1,-636.6 z m 938.6,0 v 783.8 h 182.8 v -301.6 h 95.1 v 301.6 H 38571 V 5475 h -182.7 v 341.6 h -95.1 V 5475 Z m 575.4,0 v 783.8 h 344.7 v -140.5 h -162 v -173 h 151.9 v -135.2 h -151.9 v -194.6 h 177.3 V 5475 Z m 674.8,645.4 h -44.5 v -242.1 h 44.5 c 23.6,0 39.5,3.9 47.4,11.8 7.9,8 11.9,22.6 11.9,44 V 6064 c 0,21.8 -4,36.6 -11.9,44.5 -7.9,8 -23.8,11.9 -47.4,11.9 z m 57.1,-447.4 c 0,27 -5,45.6 -14.9,55.9 -10.1,10.2 -29,15.3 -56.4,15.3 h -30.3 V 5475 h -182.7 v 783.8 h 190.1 c 112.8,0 187.2,-14.2 223.6,-42.7 36.2,-28.6 54.4,-81.4 54.4,-158.4 V 5968 c 0,-45.4 -9.9,-80 -29.5,-103.8 -19.8,-23.6 -51.9,-39.6 -96.6,-47.8 41.4,-5.9 72.3,-20 92.1,-42.1 19.8,-22.2 29.9,-53.5 29.9,-93.9 V 5475 h -179.7 z m 291.1,-198 v 783.8 h 344.7 v -140.5 h -162 v -173 h 151.9 v -135.2 h -151.9 v -194.6 h 177.3 V 5475 h -360"
         style="fill:#ffffff;fill-opacity:1;fill-rule:nonzero;stroke:none"
         id="path28" />
      <path
         d="m 35830.1,19831.8 c 4569.7,0 8274.2,-3704.5 8274.2,-8274.2 0,-639.5 -72.7,-1262.1 -210,-1859.9 H 27766 c -137.4,597.8 -210,1220.4 -210,1859.9 0,4569.7 3704.4,8274.2 8274.1,8274.2"
         style="fill:#ffffff;fill-opacity:1;fill-rule:evenodd;stroke:none"
         id="path30" />
      <path
         d="m 33746.6,12728.9 -4973.4,-965 754.5,-321.1 -5.9,-279.2 c -107.7,0 -215.5,0.1 -322.9,0.1 -126.3,0 -228.7,-287.3 -228.7,-641.7 0,-244.1 48.5,-456.4 120,-564.9 32.4,-49 69.4,-76.9 108.7,-76.9 135.4,0 270.8,0.1 406.1,0.1 35.9,2 69.7,27.1 99.7,70.2 4.9,7.1 9.7,14.7 14.4,22.7 39.5,-59.3 84.6,-93 132.5,-93 166.3,0 332.7,0.2 499,0.2 44,2.4 85.6,33.2 122.4,86.2 6.1,8.7 12,17.2 17.6,25.5 65.7,97 103.3,174.4 117.7,400.6 l 578.3,77 -46.5,-127.7 c -32.3,-89 11.6,-156.5 97.6,-149.9 l 879.2,67.1 c 86,6.5 182.9,84.7 215.3,173.7 l 69.2,190.4 c 18.5,-252.7 73.5,-468 148.8,-600.8 51.1,-90.1 111.6,-142.3 176.4,-142.3 196.5,0 393,0.2 589.5,0.2 52,2.9 101.1,39.3 144.6,101.9 7.1,10.2 14.1,21.3 21,32.9 57.2,-86.1 122.7,-135 192.3,-135 241.4,0 482.8,0.2 724.2,0.2 63.9,3.6 124.2,48.3 177.7,125.2 6.9,9.9 13.6,20.3 20.3,31.3 47.7,78.5 89.1,183.3 121.9,307.4 l 1922.8,0.5 c 40.9,-122.8 90,-227.5 145.2,-306.2 74.6,-106.5 160.3,-165.5 252.4,-157.7 v -0.4 h 911.9 c 79.5,4.4 154.8,58.7 221.8,152.1 1.9,2.7 3.9,5.5 5.8,8.2 74.4,107.1 138.5,262.7 186.9,452.1 l 2563.8,40.9 c 55.3,-232.3 134.8,-422.1 229.8,-536.2 67.1,-80.6 141.9,-123.4 221.3,-116.7 v -0.4 h 911.9 c 59.1,3.3 115.8,34 168.5,88 20.3,20.7 40,44.9 59.1,72.3 83.3,119.9 153.7,300.8 203.6,521.6 l 37.4,0.6 392.6,253.3 76,1380.7 h -201 l 163.1,810.6 c -175.7,252.7 -380.1,365 -613.1,336.9 -5.6,129.4 -9.2,241.8 -13.9,340.4 24.1,369.7 -130.7,677.2 -425.7,932.1 -225.8,195 -534.6,358.3 -908.1,494.4 l -79.1,508.9 4.7,0.8 c -20.6,113.2 -39.1,225.8 -56.3,333.5 l 197.7,149.6 c -590.8,2825.4 -4526.8,2463.3 -6516.8,2355.1 l -475,-224.2 1.1,-472.7 -496.5,78.7 -5019.3,-3944.5 4955.9,3290 v -2872.4 l -4975.6,-2044.4 4975.6,1172.5 z m 3431.9,4226.5 c 553.6,20.8 2346.8,88.4 3506.7,-178 -970.4,1530 -2878.8,1463.2 -4708.4,1451.6 531.2,-264.8 844.3,-740.6 994,-1347.4 l 5.2,1.3 v -23 c 10.3,-42.7 19.7,-86.2 28.4,-130.6 29.1,-148.4 30.8,-203.5 39.7,-253.9 l 2.9,-74.4 c -219.3,-54.1 -458.4,-126.9 -693.2,-185 -16.5,-1122.4 -34.2,-2348.9 -29.6,-3467.4 67.2,131.3 259.2,781.3 891.6,756.3 h 1743.1 l -80.1,149.6 -1606.3,-1.7 v 1121.4 c 1318.8,-107.6 2168.9,-443.9 2550.3,-1009 l 391.3,299.9 c -215,536.5 -781.6,703.2 -1283.3,925.8 636.2,-23.1 1420.5,-336.7 1662.4,-952 l 1365.1,-34.1 c -59.8,137.2 -143.2,486.1 -685.7,842.3 813.1,-335 939.8,-701.1 1034.9,-889 33.3,-23.3 66,-46.9 97.3,-69.8 -34.6,234.7 -162,438.1 -365.7,614.1 -259.3,224 -640.5,405.1 -1111.2,550.7 -96.1,15.8 -203.5,29.8 -322.2,42 -464,47.8 -1100.5,68.2 -1909.4,61.5 -328.8,-2.8 -686,-10.1 -1071.7,-21.8 -123.7,-18 -220.2,-80.2 -289.4,-186.7 -71.4,26.3 -119.1,112.6 -150.7,235.9 v 1565.4 z m 3636.5,-403.5 c -960.1,250.6 -2662,230 -3394,194.1 l 189.6,-302.9 4.7,-0.4 4.1,-6.3 c 1046.2,4.8 2315.3,-13.5 3338.1,-192.4 -44,108.5 -91.7,210.8 -142.5,307.9 z m -3716.3,-5837.7 c 45.6,0 82.5,-36.9 82.5,-82.5 0,-45.6 -36.9,-82.5 -82.5,-82.5 -45.6,0 -82.5,36.9 -82.5,82.5 0,45.6 36.9,82.5 82.5,82.5 z m 0,1437.5 c 45.6,0 82.5,-36.9 82.5,-82.5 0,-45.6 -36.9,-82.5 -82.5,-82.5 -45.6,0 -82.5,36.9 -82.5,82.5 0,45.6 36.9,82.5 82.5,82.5 z m 168.5,-1078.8 c 45.6,0 82.5,-36.9 82.5,-82.5 0,-45.5 -36.9,-82.5 -82.5,-82.5 -45.6,0 -82.5,37 -82.5,82.5 0,45.6 36.9,82.5 82.5,82.5 z m 0,720 c 45.6,0 82.5,-36.9 82.5,-82.5 0,-45.5 -36.9,-82.5 -82.5,-82.5 -45.6,0 -82.5,37 -82.5,82.5 0,45.6 36.9,82.5 82.5,82.5 z m 35,-360 c 45.6,0 82.5,-36.9 82.5,-82.5 0,-45.5 -36.9,-82.5 -82.5,-82.5 -45.6,0 -82.5,37 -82.5,82.5 0,45.6 36.9,82.5 82.5,82.5 z m 1194.5,1005.5 0.9,-239.8 c -261.6,-3.6 -526.6,1.7 -790.9,1.7 -65.4,330.1 -165.2,585.5 -276.9,767.1 h -470.1 l -232.5,140 h 1035.1 z m -2398.4,-954.9 v -112.4 l -527.7,-2.7 278.9,97.6 z M 29306.1,10522 c 0,87.3 -12.9,216.2 -58.2,294.8 -73.6,-142.1 -73.6,-447.6 0,-589.7 45.3,78.1 58.2,208.1 58.2,294.9 z m 7195.7,5516.6 -5.3,-1192.7 253.3,36.9 63.4,-205.8 201.5,14.4 v 1481.9 z m -458.5,-5147.5 h -697.2 l -695.8,1555.8 -281.9,1.6 -72.3,80.2 v 4146 l 215.8,108.1 v -4032.1 l 112.3,-184.2 564.1,-0.9 -106.4,163.4 h -200.8 v 1665.1 l 1072.2,-1002.3 v -1596.6 l -307,247 -4.8,397.1 -703.2,5.4 611.3,-1381.2 493.9,3.7 z m -2270.8,726 c -67.1,-129.5 -111.1,-346.6 -111.1,-592.5 0,-245.9 44,-462.9 111.1,-592.5 42.3,72.7 69,167.9 85.3,250.6 41.8,211.9 42.4,466.7 1,678.7 -16.7,85.7 -42.7,180 -86.3,255.7 z m -896.3,-1083.7 c 34,172.5 34.5,379.7 0.9,552.3 -13.7,69.8 -34.8,146.6 -70.3,208.2 -120.5,-232.5 -120.5,-732 0,-964.5 34.4,59.2 56.2,136.7 69.4,204 z m -2905.6,-94.1 c 24.1,122.6 24.5,269.8 0.6,392.4 -9.7,49.6 -24.7,104.1 -49.9,147.9 -85.6,-165.2 -85.6,-520 0,-685.2 24.4,42.1 39.9,97.2 49.3,144.9 z m -767.8,440.2 c 46.6,-4 87,-78.1 108,-186.1 10,-50.9 15.6,-109.3 15.6,-171.4 0,-62.2 -5.6,-120.6 -15.6,-171.6 -21,-107.9 -61.4,-182.1 -108,-186 -73.4,-6 -131.4,159.9 -131.4,357.6 0,197.6 58.1,363.8 131.4,357.5 z m 12891.7,2753.4 -1620.5,43.3 v -211.8 l 1620.5,-43.3 z m 0,-349.8 -1620.5,43.4 v -211.8 l 1620.5,-43.4 z m 0,-349.7 -1620.5,43.3 v -211.8 l 1620.5,-43.3 z m -9576.4,-2121.8 c 0,323.3 94.9,594.9 214.9,584.8 v 0 c 76.2,-6.4 142.2,-127.7 176.6,-304.3 16.3,-83.3 25.5,-178.8 25.5,-280.5 0,-101.6 -9.2,-197.1 -25.5,-280.4 -34.4,-176.6 -100.4,-297.9 -176.6,-304.3 v 0 c -120,-10.1 -214.9,261.5 -214.9,584.7 z m 899.7,213 c 0,397.2 116.6,730.8 264,718.5 v -0.1 c 93.7,-7.9 174.7,-156.9 217.1,-373.8 h -0.1 c 20,-102.3 31.4,-219.7 31.4,-344.6 0,-124.9 -11.4,-242.3 -31.4,-344.6 h 0.1 c -42.4,-216.9 -123.4,-365.9 -217.1,-373.8 v -0.1 c -147.4,-12.3 -264,321.3 -264,718.5 z m 913.1,-238.3 c -4.9,485.2 -107.2,912.5 -256.9,1117.6 h 498.5 c 269.2,-637.4 190.1,-1020 -237.5,-1147.9 z m 550.2,3852.9 -0.1,1209.2 800.1,201.3 -29.5,-2114.6 z m 2250.5,-3292.8 c 0,371.5 -141.7,672.6 -316.4,672.6 -5.8,0 -11.5,-0.3 -17.3,-1 29.9,78.5 106.1,248.2 223.5,249.2 l 128.6,1.9 c 410.6,-74.8 400.8,-1772.4 0,-1845.5 -118.7,1.8 -179.6,-16 -256.4,75.6 -43,51.6 -71.3,113.4 -95.7,175.5 263,-30.1 333.7,501.3 333.7,671.7 z m -7137.3,-908.6 c -24.5,-125.5 -71.3,-211.6 -125.5,-216.2 -17.5,-1.5 -34.2,5.5 -49.8,19.5 l 0.1,0.1 c -18.3,16.4 -34.9,42.3 -49.2,75.6 -70.9,164.4 -71,465.1 -3.4,632.4 27,66.7 62.7,106.5 102.3,103.2 54.2,-4.6 101,-90.7 125.5,-216.2 24.2,-123.7 24.2,-274.6 0,-398.4 z m 10034.8,2009.2 -0.6,318.2 190,150.4 2.7,403.7 c -5,-2.7 -45.5,20.1 -121.4,68.7 v 195.2 l 188.7,98.3 v 160.9 l 1963,-46.7 v -157.6 l 100.4,-52.2 v -195.3 l -63.2,-55.3 0.8,-427.1 133.6,-140.4 -0.5,-307.4 -328.1,-1.9 v 125.1 L 40474,12627 v -177.5 z m -2082.4,-1584.4 -186.2,1080 600.2,-1.1 104.8,-188.5 4348.1,4.6 140.8,191.9 -47.3,-990.3 -223.3,-144.1 -321.9,-5.1 -117.7,159.3 -3171.1,-26.4 -142.9,-187.7 -841.2,-13.4 z m 4917.8,1600.4 -285,-1.8 -0.7,546.8 h 394.9 z m -3998.2,27.3 -461.7,332.5 c -9.9,-14.2 5.9,28 47.5,126.7 h 934.1 l 263.9,-448.7 z m -2051.1,-1345 c -52.2,0 -94.6,90 -94.6,201.1 0,111 42.4,201 94.6,201 52.2,0 94.5,-90 94.5,-201 0,-111.1 -42.3,-201.1 -94.5,-201.1"
         style="fill:#1d3159;fill-opacity:1;fill-rule:evenodd;stroke:none"
         id="path32" />
      <path
         d="m 44952,9495.9 c -320.9,379.3 -4205.9,679 -8952,679 -4746.1,0 -8631.1,-299.7 -8952,-679 h 17904"
         style="fill:#1d3159;fill-opacity:1;fill-rule:evenodd;stroke:none"
         id="path34" />
      <path
         d="m 27048,5747.7 h 4004.2 V 5987 H 27048 Z m 13899.8,0 H 44952 V 5987 h -4004.2 v -239.3"
         style="fill:#ffffff;fill-opacity:1;fill-rule:evenodd;stroke:none"
         id="path36" />
    </g>
  </g>
</svg>
