<?xml version="1.0" encoding="UTF-8" standalone="no"?>
<!-- Created with Inkscape (http://www.inkscape.org/) -->

<svg
   version="1.1"
   id="svg2"
   width="2800"
   height="2800"
   viewBox="0 0 2800 2800"
   sodipodi:docname="vecteezy_a-truck-logo-template-cargo-shipping-logistics-express_7794730.eps"
   xmlns:inkscape="http://www.inkscape.org/namespaces/inkscape"
   xmlns:sodipodi="http://sodipodi.sourceforge.net/DTD/sodipodi-0.dtd"
   xmlns="http://www.w3.org/2000/svg"
   xmlns:svg="http://www.w3.org/2000/svg">
  <defs
     id="defs6" />
  <sodipodi:namedview
     id="namedview4"
     pagecolor="#ffffff"
     bordercolor="#000000"
     borderopacity="0.25"
     inkscape:showpageshadow="2"
     inkscape:pageopacity="0.0"
     inkscape:pagecheckerboard="0"
     inkscape:deskcolor="#d1d1d1" />
  <g
     id="g8"
     inkscape:groupmode="layer"
     inkscape:label="ink_ext_XXXXXX"
     transform="matrix(1.3333333,0,0,-1.3333333,0,2800)">
    <g
       id="g10"
       transform="scale(0.1)">
      <path
         d="M -9.58984,21009.6 H 21009.6 V -9.59766 H -9.58984 V 21009.6"
         style="fill:#ffffff00;fill-opacity:1;fill-rule:evenodd;stroke:none"
         id="path12" />
      <path
         d="m 11610.3,11155.9 c -2669.33,127.2 -4657.32,227.6 -5963.91,301.4 -166.67,-141.4 -243.1,-362.4 -229.29,-663 14.13,-123.6 38.58,-223.4 73.37,-299.7 l -1.43,-0.4 c 0.54,0.5 1.01,0.7 1.41,0.4 l -1.96,-0.6 c -5.67,-1.7 -11.22,-3.4 -16.66,-5.3 -217.59,-71.9 -336.54,-220.7 -356.82,-446.2 h 0.02 c -1.46,-9.2 -2.59,-18.5 -3.34,-28 v 0 c -15.83,-198.3 133.42,-373.4 331.64,-389.2 l 7444.07,-594.2 c 198.2,-15.9 373.3,133.4 389.2,331.6 v 0 c 6.3,79.5 -13.9,155.2 -53.1,218.4 l -7854.92,531.4 c -70.66,4.8 -121.68,66.3 -113.38,136.8 1.26,10.6 3.78,20.9 7.46,30.6 81.51,52.8 192.62,77.9 333.34,75.4 l 6860.1,-464.1 c -14.8,253.4 -17.1,492.6 -16.9,717.5 0.2,297.9 11.3,507.2 -828.9,547.2 z m 2807.2,3015.7 c 254.2,-88.3 475.8,-236.8 664.7,-445.5 -254.3,198.8 -475.8,324.3 -664.5,376.3 l 1.9,-553.4 c 307.4,-74.5 621.7,-247.4 942.9,-518.9 -300.3,226.7 -614.4,333 -942.2,319.1 l 5.9,-1755.7 c 494,215.1 981.7,281.2 1463.3,198.4 -103.9,-6.4 -208,-20.2 -312.4,-41.6 -98.7,-160.2 -207.9,-218.7 -327.4,-175.5 -157.2,-177.3 -330.8,-230.1 -520.8,-158.5 -61.9,-36 -123.9,-74.5 -186,-115.6 -172.3,-147 -357.4,-342.2 -555.3,-585.6 -149.4,-170.8 -285.7,-254.5 -409.1,-251 l -8.5,-9.1 c 17.2,357 7.5,716.2 -29.1,1077.7 398.2,224.6 597.3,336.8 597.3,336.8 -20.1,2745.4 -30.1,4118.1 -30.1,4118.1 236.1,0 354.2,0 354.2,0 652,-649.1 1116.1,-1294.8 1392,-1937.1 -283.4,562.6 -763.6,973.6 -1440.5,1233 l 1,-320 c 424.2,-125.9 779,-364.7 1064.2,-716.5 -418.3,365.4 -772.9,564.5 -1063.8,597.4 l 0.9,-257.8 c 272.7,-68.8 549.6,-236.5 830.8,-503.1 -327,223.7 -603.8,350.4 -830.4,380 z m -8553.07,-1221 741.57,-7.9 c 66.97,-0.7 121.17,-56.1 120.45,-123 l -3.86,-361.6 c -0.11,-10.7 -1.61,-21 -4.33,-30.8 l -24.38,-907.1 -193.19,12.3 c 45.49,130.4 99.57,268.4 162.28,414.1 -83.42,-145.9 -152.39,-283 -206.93,-411.3 l -111.11,7.1 c 45.27,129.5 98.97,266.4 161.16,410.9 -82.74,-144.7 -151.26,-280.8 -205.58,-408.1 l -109.62,6.9 c 46.5,134.7 102.24,277.4 167.24,428.4 -86.51,-151.3 -157.5,-293.1 -212.92,-425.4 l -105.51,6.7 c 34.51,91.4 72.96,186.4 115.33,284.8 -56.17,-98.2 -105.81,-192.5 -148.88,-282.7 l -108.53,6.9 c 49.24,146.9 109.77,303.7 181.59,470.5 -95.74,-167.4 -172.44,-323.2 -230.15,-467.4 l -130.89,8.3 c 42.39,118.4 91.69,242.8 147.9,373.4 -74.72,-130.6 -137.86,-254.2 -189.4,-370.8 l -171.06,10.9 c 54.47,177.2 126.56,369.9 216.24,578.2 -119.98,-209.8 -210.09,-401.4 -270.33,-574.8 l -15.2,1 c 3.31,373.1 169.54,621.2 498.58,744.6 l -76.92,0.9 c -66.97,0.7 -121.16,56 -120.45,123 l 3.86,361.6 c 0.72,66.9 56.08,121.1 123.04,120.4 z m 40.62,-133.2 191.83,-2 c 35.52,-0.4 64.26,-29.8 63.88,-65.3 l -2.24,-210.4 c -0.39,-35.5 -29.74,-64.2 -65.27,-63.9 l -191.82,2.1 c -35.53,0.4 -64.26,29.7 -63.89,65.2 l 2.25,210.4 c 0.38,35.5 29.74,64.3 65.26,63.9 z m 461.24,0.7 191.82,-2.1 c 35.52,-0.4 64.26,-29.7 63.88,-65.3 l -2.24,-210.3 c -0.38,-35.6 -29.74,-64.3 -65.27,-63.9 l -191.82,2 c -35.52,0.4 -64.26,29.8 -63.88,65.3 l 2.25,210.4 c 0.38,35.5 29.73,64.2 65.26,63.9 z m 3558.84,4480 c -32.3,-208.3 -48.44,-312.5 -48.44,-312.5 127.51,-151.4 191.31,-227.1 191.31,-227.1 23.7,-45.2 33.3,-118.1 28.9,-218.8 -7,-368.8 -10.5,-553.3 -10.5,-553.3 92.8,50.9 168.8,80.8 227.8,89.8 8.1,404.6 12.1,606.9 12.1,606.9 10.7,143.4 -48.2,276.9 -176.5,400.4 -149.8,143.1 -224.67,214.6 -224.67,214.6 z m 3808.57,-1215.5 c 34.3,4.3 67.6,6 100.1,5.1 -32.7,22 -90.1,30.5 -172.1,25.4 l 11.5,1080.8 c 19.8,139.1 70.2,246.8 151,323.2 308.7,229.1 463.1,343.7 463.1,343.7 -38.7,-281.2 -58.1,-421.8 -58.1,-421.8 -202.3,-93.5 -301.4,-219.8 -297.4,-378.8 -4.9,-652.6 -7.3,-979 -7.3,-979 29.5,-3.7 59.3,-9.1 89.4,-16 24.6,-2756.5 36.9,-4134.8 36.9,-4134.8 -360.2,-199 -540.2,-298.5 -540.2,-298.5 -66.5,670.1 -206.2,1059.1 -419.4,1166.8 -110,20.3 -208.2,-69.7 -294.4,-269.9 -134.4,-401.9 -216.4,-819.2 -245.9,-1251.9 l -468.1,14.2 c 3.5,393.5 91.7,1866.2 656.7,1868.2 123.2,7.5 240.7,-44.8 352.5,-156.8 67,-55.8 133.4,-150.4 199.2,-283.6 -120.9,350.2 -318.1,538 -591.8,563.5 -633.4,53.3 -746.9,-983.1 -820.7,-1438.9 -110.2,-195.6 -193.9,-375.1 -251.2,-538.5 l -103.1,3.1 c 54.2,175.4 125.6,366 214.2,571.8 -118.9,-208 -208.5,-398 -268.7,-570.1 l -100.4,3 c 55,181.6 128.8,379.7 221.1,594.3 -124.1,-217 -216.2,-414.5 -276.4,-592.6 l -103.2,3.1 c 48.3,142.6 107.1,294.4 176.5,455.6 -92.8,-162.3 -167.7,-313.6 -224.8,-454.1 l -87.5,2.7 c 56.4,195.5 135.3,410.9 236.5,646.1 -136.3,-238.3 -234,-453.1 -293.2,-644.4 l -128.9,3.9 c 53.6,170.7 123.2,355.7 209,554.9 -115,-201.2 -202.6,-385.6 -262.7,-553.3 l -150.6,4.6 c 56.8,226.6 146.5,482.2 269.1,767 -164.8,-288.1 -273.2,-541.8 -325.3,-761.2 l 3.3,-4.2 -185.1,5.6 c 56.4,196 135.4,412 236.9,648 -136.7,-239.1 -234.6,-454.5 -293.7,-646.2 l -89.7,2.7 c 7,2509 10.5,3763.5 10.5,3763.5 12.9,233.6 -10.5,412.8 -70,537.6 1454.6,-839.6 2181.9,-1259.4 2181.9,-1259.4 -232.9,190.7 -349.4,286.1 -349.4,286.1 367.6,-11.3 551.4,-17 551.4,-17 75.1,-2.4 117.3,32.2 126.5,103.8 19.8,607.4 29.8,911.1 29.8,911.1 2.1,111.2 -80.3,173 -247.2,185.4 -1014.6,8.3 -1521.9,12.5 -1521.9,12.5 -212.7,-31 -434.6,-82.1 -665.8,-153.4 -145.5,80.7 -269.2,129.6 -371.01,146.9 382.51,123.6 666.21,200.6 851.11,230.8 443.7,85.9 1152.3,110.3 2125.9,73.3 357,-83.8 535.6,-125.7 535.6,-125.7 24.7,-11.5 44.8,-30.7 60.1,-57.5 l 50.1,-3284.1 69.8,-0.4 -50.2,3291.1 1.6,70 c 36.4,10.3 73.4,17.7 110.9,22.3 l 2,0.3 0.7,0.1 z M 13068.2,14781 c -24.6,225.4 -36.9,338.1 -36.9,338.1 -0.2,-247.3 -0.3,-370.9 -0.3,-370.9 175.3,-58.4 262.9,-87.6 262.9,-87.6 -150.4,80.3 -225.7,120.4 -225.7,120.4 z m 345.1,-3915.1 c 6.5,763.5 -163.7,1275.6 -510.4,1536.5 -78.5,-173.9 -153.4,-511.3 -224.9,-1012.3 84.5,312.5 187.9,436.9 310.1,373.1 225.5,-196.6 276.3,-730.9 152.4,-1602.9 -23.1,-122.5 -48.5,-225.9 -76.3,-310.2 l 181.3,-12.3 c 94.2,280 150.2,622.6 167.8,1028.1 z m -523,236.9 c 84.2,-5.9 139.8,-192.5 124.2,-416.9 -15.6,-224.5 -96.5,-401.7 -180.7,-395.8 -247.7,17.2 -86.9,953.7 69.4,1158.8 103.5,78.1 157.1,-162.9 152.5,-231.9 -115.1,312.8 -188.6,71.1 -212.2,-129.5 15.2,11 31,16.4 46.8,15.3 z m -267.8,4403.8 c 9.2,-261.6 21.8,-485.8 37.8,-672.5 0,0 5.8,252.6 17.4,758 0.2,109.5 -59.8,163.9 -179.8,163.3 0,0 -394.3,-5 -1182.8,-15.1 741.7,-36.7 1112.5,-55 1112.5,-55 132.4,-5.8 197.4,-65.3 194.9,-178.7 z m -818.3,-4207 -122.4,3.7 c 50.2,161.9 114.9,336.7 194.3,524.4 -27,-168.3 -51,-344.3 -71.9,-528.1 z m -891.9,1544.8 181,-1.9 c 181,121.2 342.4,205.2 484.4,252.1 -157.3,-61.7 -289.8,-146.1 -397.4,-253 l 332.4,-3.6 c 71.9,-0.7 130.1,-60.2 129.3,-132.1 l -4.1,-388 c -0.8,-71.9 -60.2,-130.1 -132.1,-129.3 l -796,8.5 c -71.8,0.8 -130,60.2 -129.2,132.1 l 4.1,388 c 0.5,46.5 25.5,87.2 62.6,110 v 0.1 c 384.7,248.5 902,436.3 1552.1,563.4 -533.7,-108.6 -962.8,-290.7 -1287.1,-546.3 z m -151.9,-140.9 205.9,-2.2 c 38.1,-0.4 68.9,-31.9 68.5,-70 l -2.4,-225.8 c -0.4,-38.2 -31.9,-69 -70,-68.6 l -205.9,2.2 c -38.2,0.4 -69,31.9 -68.6,70.1 l 2.4,225.7 c 0.4,38.2 31.9,69 70.1,68.6 z m 495,0.7 205.9,-2.2 c 38.2,-0.4 69,-31.9 68.6,-70 l -2.4,-225.8 c -0.4,-38.1 -31.9,-69 -70.1,-68.6 l -205.9,2.2 c -38.1,0.4 -68.9,31.9 -68.5,70 l 2.4,225.8 c 0.4,38.2 31.9,69 70,68.6 z m 2746.4,-738.6 c -292.6,-157.1 -438.9,-235.6 -438.9,-235.6 -1.2,142 -28.9,311.4 -83.2,508.2 56.8,-89.7 104.5,-223.1 143.4,-400 216.5,109.9 324.8,164.9 324.8,164.9 -16.7,573.3 -25.1,860 -25.1,860 52.7,-598.3 79,-897.5 79,-897.5 z M 12914.1,15631 c -22.1,-171 -43.2,-310.4 -63.3,-418.2 0,0 3.2,181.4 9.5,544.2 386.5,-320.2 579.7,-480.3 579.7,-480.3 -350.6,236.2 -525.9,354.3 -525.9,354.3 z m 564.4,-1079.9 c -283.9,87.4 -451.5,136.8 -502.7,148.3 0,0 -2.1,271.8 -6.1,815.5 11.3,19.3 28.2,16.6 50.6,-7.9 277.9,-227.5 416.9,-341.2 416.9,-341.2 28.6,-34.3 43.4,-81.8 44.5,-142.5 -2.1,-314.8 -3.2,-472.2 -3.2,-472.2 z m -601.4,-194.1 c -39.8,196 -59.6,294 -59.6,294 -14.3,-649.3 -21.5,-973.9 -21.5,-973.9 46.1,162.7 71.6,359.3 76.4,589.6 443.3,-69.9 664.9,-104.9 664.9,-104.9 -440.2,130.1 -660.2,195.2 -660.2,195.2 z m -2250.7,334.8 -4,-80.9 998.1,-365.2 -1001.7,294.1 -7,-140 781.1,-239.7 -783.8,185.7 -8,-158.5 1025.9,-282 -1029.4,212 -6.4,-126.9 753.4,-152 -755.9,101.8 -6.1,-122.2 362.7,-73.2 -363.9,49 -15.9,-315.3 -41.1,887.4 -0.8,0.1 0.7,1 -42.7,920.4 c 1063.9,-574.7 1595.8,-862 1595.8,-862 -962.1,435.8 -1443.1,653.7 -1443.1,653.7 0.8,-154.9 1.2,-232.4 1.2,-232.4 149.4,-91.9 263.1,-155.8 338.1,-197.5 l 597.2,-218.5 -655.3,192.4 c -71.8,18.3 -167.7,41.9 -289.1,68.7 z M 6786.78,11531.6 c 27.27,2173.4 40.92,3260.1 40.92,3260.1 -39.92,1280.4 3465.1,1620.5 3421.3,469.2 -15.3,-2575.3 -22.9,-3862.9 -22.9,-3862.9 -2292.87,89 -3439.32,133.6 -3439.32,133.6 z m 2167.83,3421.2 -124.1,-12.2 -14.19,-1.4 -16.45,-1.6 -16.07,-1.6 -15.69,-1.5 -15.3,-1.5 -14.91,-1.5 -14.52,-1.4 -14.14,-1.4 -13.73,-1.3 -13.38,-1.3 -12.96,-1.3 -12.6,-1.2 -12.19,-1.2 -11.81,-1.2 -11.43,-1.1 -11.04,-1.1 -10.66,-1 -10.24,-1 -6.81,-0.7 -124.1,-12.1 -0.26,-0.1 h -0.77 l -1.31,-0.2 -1.83,-0.1 -2.34,-0.3 -2.88,-0.3 -3.39,-0.3 -3.92,-0.4 -4.44,-0.4 -4.96,-0.5 -5.47,-0.5 -6.01,-0.6 -6.51,-0.7 -7.05,-0.6 -7.57,-0.8 -8.08,-0.8 -8.61,-0.8 -9.15,-0.9 -9.65,-1 -10.16,-1 -10.71,-1 -11.23,-1.1 -11.74,-1.2 -12.26,-1.2 -12.78,-1.2 -13.31,-1.3 -13.82,-1.3 -14.35,-1.5 -14.87,-1.4 -15.4,-1.5 -4.5,-0.5 -124.11,-12.1 -13.34,-1.3 -20.09,-2 -20.61,-2 -21.14,-2.1 -21.66,-2.1 -22.17,-2.2 -22.71,-2.2 -23.22,-2.3 -23.74,-2.3 -24.09,-2.4 -124.1,-12.1 -5.25,-0.5 -27.38,-2.7 -27.93,-2.7 -28.43,-2.8 -28.96,-2.9 -29.48,-2.9 -30.02,-2.9 -30.53,-3 -22.48,-2.2 -137.99,-13.5 c -114.9,-16.2 -173.91,-72.7 -177.06,-169.7 l -22.21,-2606.7 183.46,-4.1 27.31,2557.9 c 38.64,15.8 80.11,31.5 124.47,46.9 l -27.84,-2607.6 230.16,-5.1 28.66,2684.7 c 39.86,11.2 81.31,22.4 124.34,33.4 l -29.05,-2720.9 212.49,-4.8 29.65,2776.7 c 40.29,9 81.72,18 124.25,26.9 l -29.96,-2806.3 239.04,-5.4 30.52,2859 c 40.56,7.6 81.95,15.1 124.21,22.6 l -30.8,-2884.4 247.8,-5.5 31.3,2931.7 c 40.71,6.6 82.11,13.1 124.18,19.5 l -31.54,-2954 296.44,-6.6 32.08,3004.1 -24.59,-2.4 -24.21,-2.4 -23.82,-2.3 -23.42,-2.3 -23.06,-2.2 -22.64,-2.3 -22.27,-2.1 -21.87,-2.2 -21.5,-2.1 -21.11,-2.1 -20.72,-2 -20.34,-2 -19.94,-1.9 z m 420.92,41.2 289.36,28.3 48.61,-3055.7 -370.21,8.3 z m 543.69,-3052.8 -36.82,3118.2 c 1.1,19.5 -0.01,37.3 -3.24,53.5 h 0.01 c -22.91,236.6 -158.62,360.9 -407.15,373 187.74,-46.2 288.34,-134.4 301.88,-264.6 -42.81,13 -98.21,16.6 -166.24,10.7 -780.68,-75.9 -1553.29,-153.7 -2335.72,-208.3 50.11,13 271.03,51.2 662.82,114.7 -184.83,-6.6 -413.25,-26.1 -685.27,-58.5 259.29,73.8 589.09,133.9 989.38,180.4 -218.59,-4.1 -549.24,-43.4 -991.99,-117.8 318.61,135.6 737.66,233.1 1257.21,292.6 -453.53,-11.8 -885.51,-85.1 -1295.91,-219.8 -143.96,-148.1 -212.89,-323.8 -206.82,-527 l -0.83,-4.1 -18.62,-2849 2762.74,-88.6 c 118.54,-9.4 176.74,55.4 174.57,194.6 z M 5703,11270.3 9800.61,11007.1 c -1563.42,56.4 -2940.28,117.7 -4130.54,183.8 9.65,26.4 20.62,52.8 32.93,79.4 z m -75.66,-238.9 3112.32,-199.9 c -1139.43,41.1 -2179.7,84.9 -3120.93,131.1 1.89,22.9 4.74,45.8 8.61,68.8 z m -7.91,-206.1 4146.41,-266.3 c -1565.12,56.5 -2943.18,117.9 -4134.36,184.1 -5.44,27.3 -9.49,54.7 -12.05,82.2 z m 53.49,-224 2918.8,-187.5 c -1046.9,37.8 -2010.03,77.8 -2889.61,119.9 -10.7,22.5 -20.46,45 -29.19,67.6"
         style="fill:#dcdcdc;fill-opacity:1;fill-rule:evenodd;stroke:none"
         id="path14" />
      <path
         d="m 4634.81,8002.7 c -287.37,-7.3 -574.77,-15.7 -862.14,-24.5 0,-334.4 0,-669.2 0,-1003.4 0,-334.1 0,-668.6 0,-1002.7 -223,-28.3 -445.97,-56.2 -668.97,-88 0,345.5 0,691.1 0,1036.3 0,345.5 0,691.3 0,1036.9 -287.36,-9.9 -574.77,-19.8 -862.15,-29.7 0,206.3 0,412.7 0,619.1 797.75,2.4 1595.53,4.7 2393.26,6.7 0,-183.7 0,-367 0,-550.7 z M 6055.27,6891 c -140.4,-8.7 -279.14,-17.5 -417.88,-25.9 0,-115 0,-230.2 0,-344.9 0,-115 0,-229.7 0,-344.4 -224.61,-19.8 -449.23,-42.5 -672.23,-66.4 0,407.3 0,814.8 0,1222.3 0,407.3 0,814.8 0,1222.6 393.1,0.8 787.85,1.5 1182.6,2.3 338.59,0.7 610.51,-73.2 814.29,-216.5 204.13,-143.7 307.23,-333.9 307.23,-575.5 0,-154.9 -44.84,-294.8 -135.44,-420.1 -91.04,-125.8 -218.04,-227.3 -381.55,-303.9 115.61,-123.7 231.11,-247 346.85,-368.2 115.46,-120.9 231.23,-241.6 348.51,-360.4 -269.21,-18 -538.42,-36.1 -807.67,-54.1 -97.46,104.5 -194.87,209.9 -292.33,315 -97.43,105 -194.93,211.3 -292.38,318.1 z m -417.88,506.2 c 165.18,7 330.35,14.1 497.18,21.3 135.39,5.8 245.81,40.1 332,100.4 87.22,61 130.47,136.5 130.47,229.1 0,90.5 -44.68,162.9 -132.13,217.7 -87.61,54.9 -196.56,81.3 -330.34,78.6 -166.79,-3.4 -332,-6.7 -497.18,-10.2 0,-106.2 0,-212.5 0,-318.7 0,-106 0,-212.2 0,-318.2 z m 4476.11,1163.2 c 0,-192.7 0,-385.1 0,-577.8 0,-192.7 0,-385.1 0,-577.8 0,-166.8 -29.8,-315.3 -85.9,-445.7 -56.15,-130.3 -139.62,-243.8 -252.72,-337.4 -227.1,-187.8 -535.19,-286.9 -923.28,-298.3 -391.44,-11.5 -699.97,68 -921.63,247.1 -111.96,90.5 -198.35,201.5 -252.7,333.3 -54.6,132.4 -82.61,285.9 -82.61,459.4 0,199.4 0,398.5 0,597.8 0,199.2 0,398.6 0,597.6 224.62,0.4 450.93,0.7 677.2,0.9 0,-198.5 0,-396.4 0,-594.4 0,-198.2 0,-396.2 0,-594.4 0,-168.8 51.79,-301.5 156.9,-398.7 104.62,-96.9 246.12,-144.4 422.84,-140.4 178.33,4.1 320.38,56.9 426.14,158.4 105.62,101.3 158.56,234.9 158.56,401.1 0,194.7 0,389.5 0,584.5 0,194.8 0,389.5 0,584.5 224.62,0.3 450.89,0.3 677.2,0.3 z m 1802,-1720 c 175.1,-4.2 320.5,30.7 437.7,105.6 117.3,75 193.2,183.4 231.2,325.2 229.6,-6.4 460.8,-13.4 692.1,-19.8 -21.5,-144.1 -69.3,-273.8 -142.1,-388.3 -72.5,-114.2 -171,-215.6 -295.6,-299 -247,-165.1 -553.4,-241.7 -920,-231.1 -408,11.8 -748.1,121.6 -1022.4,336.5 -136.9,107.3 -239.6,228.5 -307.2,363.3 -67.7,134.7 -102.4,283.5 -102.4,447.1 0,161.8 34.6,310 102.4,443.9 67.6,133.6 170.2,253.7 307.2,359.8 275.9,213.8 617.7,321.3 1022.4,321.3 370,0 675.4,-88.7 920,-266.9 123.7,-90.1 223.1,-193.8 295.6,-311.4 72.8,-117.9 120.6,-249.5 142.1,-394.5 -231.3,5 -462.5,9.6 -692.1,14.6 -38,142.9 -113.9,253.6 -231.2,332.1 -117.2,78.4 -262.7,117.8 -437.7,119.1 -219.7,1.5 -401.5,-57 -541.8,-175.8 -137.1,-116.1 -206.5,-264.9 -206.5,-445.4 0,-182.8 69.2,-333.3 206.5,-450.9 138.5,-118.7 318.9,-180.1 541.8,-185.4 z m 2832.6,244.2 c -128.8,-120.2 -257.7,-241 -386.5,-360.7 0,-155.7 0,-311.4 0,-466.6 -224.6,14.9 -449.2,30.6 -672.2,45.7 0,375.8 0,751.9 0,1127.7 0,375.8 0,751.6 0,1127.7 223,-0.3 447.6,-0.6 672.2,-0.9 0,-174.4 0,-348.7 0,-523.1 0,-174 0,-348.1 0,-522.2 178.4,169.1 360.8,339.3 538.5,512 179,173.9 360,351.7 540.1,531.3 264.3,-0.6 530.2,-1.2 796.1,-1.8 -171.8,-178.4 -343.2,-355 -515.3,-527.4 -171.4,-171.6 -343.6,-340.9 -515.4,-508 185,-230.5 374.6,-463.3 558.3,-701.5 186.2,-241.5 373.3,-488.7 559.9,-738.5 -274.2,29.1 -548.3,58.5 -820.8,84.4 -127.2,156.6 -252.6,312.9 -378.3,466.6 -125.3,153.3 -251,305.1 -376.6,455.3 z m 2847.6,1523.9 c 252.7,0 489.8,-56.5 711.8,-176.5 123.2,-66.5 222.7,-167.2 302.3,-295.7 80.6,-130.3 127.1,-281.8 143.7,-454.7 -226.3,10.8 -450.9,21.3 -675.6,32 -39.6,228.5 -186.6,346.5 -437.7,353.1 -120.5,3.2 -214.4,-18.3 -282.4,-61.7 -69,-44.1 -104.1,-106 -104.1,-186.9 0,-65.7 25.2,-117.7 74.4,-157.2 48.2,-38.7 127.4,-72 236.2,-101.3 125.7,-33.8 251.2,-69.8 378.2,-106.5 277.6,-80.2 484.5,-186.1 616.1,-315.8 132.6,-130.8 199.8,-308.3 199.8,-529.8 0,-278.6 -101,-489.2 -307.2,-622.4 -203.4,-131.4 -475.4,-165.2 -815.9,-119 -330,44.8 -609.1,153.7 -834.1,330.1 -115.2,90.3 -206.5,191.9 -270.9,307.7 -64.4,115.5 -102.4,245.7 -115.6,390.6 223,-16.3 447.6,-34.6 672.2,-53.6 21.5,-115.2 81.5,-208.8 181.7,-283.5 99.6,-74.1 228,-119.8 386.5,-136.5 125.6,-13.2 219.9,-4.4 285.7,30.3 64.6,34 97.5,88.7 97.5,162.7 0,110.3 -95.6,196.8 -287.4,255.6 -148.4,45.4 -297.3,88.4 -446,131.8 -267.4,78.2 -463.1,182 -591.2,308 -127.8,125.7 -191.6,285.6 -191.6,484.1 0,246.8 98.7,440.7 293.9,587.7 197.9,149 455.9,227.4 779.7,227.4"
         style="fill:#dcdcdc;fill-opacity:1;fill-rule:nonzero;stroke:none"
         id="path16" />
      <path
         d="m 6623.67,5383.3 h -203.79 v -507 h -130.17 v 507 h -203.78 v 122.1 h 537.74 v -122.1"
         style="fill:#dcdcdc;fill-opacity:1;fill-rule:nonzero;stroke:none"
         id="path18" />
      <path
         d="m 7357.12,4997.5 h -276.5 l -47.58,-121.2 h -138.25 l 263.03,632.8 h 122.09 l 262.15,-632.8 H 7404.7 Z m -48.48,121.2 -90.67,230.4 -89.78,-230.4 z"
         style="fill:#dcdcdc;fill-opacity:1;fill-rule:nonzero;stroke:none"
         id="path20" />
      <path
         d="m 8436.2,5226.9 v -350.6 h -99.65 l -7.17,86.9 c -46.09,-66.6 -113.73,-99.9 -202.9,-99.9 -92.16,0 -168.47,31.2 -228.92,93.5 -60.45,62.3 -90.68,137.5 -90.68,225.7 0,98.1 30.83,178.6 92.48,241.5 62.24,62.9 139.15,94.4 230.72,94.4 71.21,0 134.66,-20.4 190.31,-61.1 55.07,-39.5 91.27,-96.8 108.63,-172.1 h -138.25 c -23.94,71 -76.91,106.4 -158.9,106.4 -57.46,0 -104.14,-18.8 -140.05,-56.4 -35.91,-37.6 -53.86,-88.2 -53.86,-151.8 0,-53.6 17.35,-99.3 52.07,-136.9 35.3,-37 81.09,-55.5 137.35,-55.5 40.7,0 75.41,10.3 104.14,31 28.72,20.7 50.27,49.5 64.63,86.5 h -180.44 v 118.4 h 320.49"
         style="fill:#dcdcdc;fill-opacity:1;fill-rule:nonzero;stroke:none"
         id="path22" />
      <path
         d="m 9226.21,4995.6 v -119.3 h -441.69 v 629.1 h 130.18 v -509.8 h 311.51"
         style="fill:#dcdcdc;fill-opacity:1;fill-rule:nonzero;stroke:none"
         id="path24" />
      <path
         d="m 9668.8,5505.4 v -629.1 h -130.18 v 629.1 h 130.18"
         style="fill:#dcdcdc;fill-opacity:1;fill-rule:nonzero;stroke:none"
         id="path26" />
      <path
         d="m 10572.8,5505.4 v -629.1 h -100.5 l -320.5,382.1 v -382.1 h -130.2 v 629.1 h 97.9 l 323.1,-392.3 v 392.3 h 130.2"
         style="fill:#dcdcdc;fill-opacity:1;fill-rule:nonzero;stroke:none"
         id="path28" />
      <path
         d="m 11055.8,5384.2 v -136.9 h 285.5 v -121.2 h -285.5 v -128.6 h 322.3 v -121.2 h -452.5 v 629.1 h 452.5 v -121.2 h -322.3"
         style="fill:#dcdcdc;fill-opacity:1;fill-rule:nonzero;stroke:none"
         id="path30" />
      <path
         d="m 12473.3,5505.4 v -629.1 h -130.1 v 246.1 h -273 v -246.1 h -130.1 v 629.1 h 130.1 v -260.9 h 273 v 260.9 h 130.1"
         style="fill:#dcdcdc;fill-opacity:1;fill-rule:nonzero;stroke:none"
         id="path32" />
      <path
         d="m 12956.3,5384.2 v -136.9 h 285.5 v -121.2 h -285.5 v -128.6 h 322.3 v -121.2 h -452.5 v 629.1 h 452.5 v -121.2 h -322.3"
         style="fill:#dcdcdc;fill-opacity:1;fill-rule:nonzero;stroke:none"
         id="path34" />
      <path
         d="m 13844.2,5071.5 h -106 v -195.2 h -130.1 v 629.1 h 260.3 c 70.6,0 128.7,-20 174.2,-60.1 45.5,-39.5 68.2,-91.6 68.2,-156.4 0,-44.4 -11.2,-83.7 -33.7,-117.9 -22.4,-34.3 -53.7,-60 -93.8,-77.3 l 167,-217.4 h -156.2 z m -106,123.1 h 125.7 c 34.1,0 62.4,8.7 84.9,26.3 22.4,17.6 33.6,40.3 33.6,68 0,27.8 -11.2,50.4 -33.6,68 -22.5,17.6 -50.8,26.4 -84.9,26.4 h -125.7 v -188.7"
         style="fill:#dcdcdc;fill-opacity:1;fill-rule:nonzero;stroke:none"
         id="path36" />
      <path
         d="m 14591.1,5384.2 v -136.9 h 285.5 v -121.2 h -285.5 v -128.6 h 322.3 v -121.2 h -452.5 v 629.1 h 452.5 v -121.2 h -322.3"
         style="fill:#dcdcdc;fill-opacity:1;fill-rule:nonzero;stroke:none"
         id="path38" />
      <path
         d="m 10476.6,4458.2 158.1,-504.9 514.7,1.1 -417,-311 160,-504.2 -415.8,312.6 -415.8,-312.6 160,504.2 -416.98,311 514.68,-1.1 158.1,504.9"
         style="fill:#dcdcdc;fill-opacity:1;fill-rule:evenodd;stroke:none"
         id="path40" />
      <path
         d="m 9045.4,4256.2 91.74,-292.9 298.64,0.6 -241.94,-180.5 92.83,-292.5 -241.27,181.4 -241.26,-181.4 92.83,292.5 -241.94,180.5 298.64,-0.6 91.73,292.9"
         style="fill:#dcdcdc;fill-opacity:1;fill-rule:evenodd;stroke:none"
         id="path42" />
      <path
         d="m 11954.6,4256.2 91.7,-292.9 298.7,0.6 -242,-180.5 92.9,-292.5 -241.3,181.4 -241.3,-181.4 92.9,292.5 -242,180.5 298.7,-0.6 91.7,292.9"
         style="fill:#dcdcdc;fill-opacity:1;fill-rule:evenodd;stroke:none"
         id="path44" />
    </g>
  </g>
</svg>
