<?xml version="1.0" encoding="UTF-8" standalone="no"?>
<!-- Generator: Adobe Illustrator 26.1.0, SVG Export Plug-In . SVG Version: 6.00 Build 0) -->

<svg
   version="1.1"
   id="Layer_1"
   x="0px"
   y="0px"
   viewBox="0 0 1617.5094 1926.594"
   xml:space="preserve"
   sodipodi:docname="truck-01.svg"
   width="1554.397"
   height="1851.4216"
   inkscape:version="1.2.2 (732a01da63, 2022-12-09)"
   xmlns:inkscape="http://www.inkscape.org/namespaces/inkscape"
   xmlns:sodipodi="http://sodipodi.sourceforge.net/DTD/sodipodi-0.dtd"
   xmlns="http://www.w3.org/2000/svg"
   xmlns:svg="http://www.w3.org/2000/svg"><defs
   id="defs25448" /><sodipodi:namedview
   id="namedview25446"
   pagecolor="#ffffff"
   bordercolor="#000000"
   borderopacity="0.25"
   inkscape:showpageshadow="2"
   inkscape:pageopacity="0.0"
   inkscape:pagecheckerboard="0"
   inkscape:deskcolor="#d1d1d1"
   showgrid="false"
   inkscape:zoom="0.31638889"
   inkscape:cx="739.59614"
   inkscape:cy="1641.9666"
   inkscape:window-width="2560"
   inkscape:window-height="1368"
   inkscape:window-x="-8"
   inkscape:window-y="-8"
   inkscape:window-maximized="1"
   inkscape:current-layer="Layer_1" /> <style
   type="text/css"
   id="style25307"> .st0{fill:#FFFFFF;} </style> <g
   id="g25443"
   transform="translate(-1027.4291,-126.44835)"
   style="stroke:none"> <path
   d="m 1149.28,986.72 c -50.61,-7.04 -73.41,-24.58 -83.15,-63.19 -0.92,-3.64 -2.98,-7.99 -1.83,-10.99 10.18,-26.63 -2.91,-52.57 -1.81,-78.87 1.16,-27.72 1.92,-55.45 2.85,-83.18 0.89,-26.47 1.95,-52.93 2.59,-79.4 0.46,-18.82 1.51,-37.13 22.55,-45.34 -9.3,-24.79 -5.77,-45.85 14.32,-60.8 39.4,-29.31 75.26,-24.82 105.16,19.47 1.12,-1.62 2.23,-3.25 3.35,-4.87 0.35,-6.49 1.13,-12.98 0.98,-19.46 -1.91,-83.84 -2.97,-167.72 -6.77,-251.48 -0.8,-17.67 -9.15,-36.46 -18.58,-51.96 -16.66,-27.39 -15.73,-55.85 7,-79.07 18.35,-18.75 57.85,-23.27 78.98,-9.01 1.51,1.02 3.32,2.1 4.12,3.61 20.27,38.23 44.99,74.93 45.42,120.51 0.41,43.44 0.09,86.88 0.09,129.51 64.31,-3.96 123.82,-7.63 183.33,-11.32 5.01,-0.31 11.32,1.03 14.81,-1.48 25.84,-18.6 55.38,-14.32 84.07,-14.35 160.82,-0.19 321.65,-0.54 482.47,0.49 19.94,0.13 39.66,9.21 59.77,12.25 21.66,3.28 43.62,4.85 65.51,6.28 43.3,2.83 86.65,5.06 132.17,7.66 1.21,-40.82 3.43,-83.92 3.51,-127.02 0.09,-46.75 23.62,-84.64 46.38,-121.87 10.29,-16.83 34.08,-14.42 52.68,-11.17 42.84,7.49 61.43,58.88 36.75,94.66 -9.23,13.38 -17.55,30.44 -18.21,46.15 -3.77,89.45 -5.1,179 -7.21,268.52 -0.06,2.46 0.48,4.94 1.26,12.24 6.74,-5.89 11.79,-9.2 15.42,-13.67 20.73,-25.52 48.38,-30.01 81.38,-12.78 26.24,13.7 35.16,35.87 26.32,68.52 19.8,8.16 21.32,26.14 22.04,44.89 2.25,58.56 4.87,117.1 7.33,175.65 0.05,1.26 0.54,2.95 -0.07,3.71 -14.93,18.64 -4.28,38.55 -3.6,58.17 1.18,34.25 -24.33,65.64 -58.64,74.27 -8.48,2.13 -17.2,3.28 -27.93,5.27 0,22.96 0.15,46.17 -0.03,69.38 -0.42,54.86 -1.34,109.73 -1.16,164.58 0.03,8.61 5.34,17.08 7.2,25.84 3.62,17.02 7.93,34.08 9.24,51.34 0.92,12.02 4.05,18.6 14.09,26.98 15.38,12.83 28.63,30.14 37.77,48.1 18.31,35.94 23.29,75.87 23.39,115.71 0.4,167.76 -0.3,335.52 -0.08,503.28 0.02,14.04 -4.01,18.29 -18.19,18.28 -505.79,-0.32 -1011.58,-0.31 -1517.36,-0.03 -13.59,0.01 -18.62,-3.21 -18.59,-17.84 0.33,-169.02 -0.33,-338.04 0.1,-507.07 0.1,-40.55 7.29,-80.19 24.93,-117.35 9.39,-19.77 21.56,-36.65 41.43,-47.5 4.15,-2.27 7.67,-9.4 7.93,-14.47 1.22,-23.7 -2.21,-48.21 16.33,-67.83 1.67,-1.77 0.95,-6.03 0.93,-9.13 -0.43,-78.83 -0.91,-157.66 -1.44,-236.49 0.02,-1.78 -0.71,-3.59 -1.3,-6.33 z m 1416.4,690.49 c -486.42,0 -970.89,0 -1455.64,0 0,93.35 0,186.94 0,280.55 485.84,0 970.38,0 1455.64,0 0,-94.41 0,-187.55 0,-280.55 z m -1066.25,-35.27 c 226.44,4.88 450.98,5.29 676.64,-0.08 0,-9.93 0.02,-16.79 0,-23.66 -0.29,-80.69 -0.46,-161.38 -0.91,-242.07 -0.63,-115.32 -1.35,-230.65 -2.26,-345.97 -0.33,-41.69 -25.14,-71.3 -65.21,-78.02 -18.61,-3.12 -37.39,-5.25 -56.13,-7.61 -53.09,-6.69 -106.23,-12.98 -159.23,-20.28 -5.91,-0.82 -15.28,-6.58 -15.86,-10.99 -2.68,-20.25 -14.48,-24.3 -31.91,-22.48 -7.48,0.78 -15.15,0.61 -22.67,0.03 -12.12,-0.94 -20.35,4.01 -21.15,16.05 -0.93,13.98 -8.89,16.8 -20.67,18.25 -68.72,8.44 -137.4,17.2 -206.05,26.25 -47.06,6.2 -71.55,34.04 -71.89,81.28 -0.99,134.21 -1.97,268.42 -2.65,402.63 -0.34,68.01 -0.05,136.01 -0.05,206.67 z m 327.52,-777.17 c 0,-76.7 0,-151.31 0,-227.55 -8.77,0 -16.22,0 -23.67,0 -98.99,0 -197.98,0.53 -296.97,-0.44 -20.56,-0.2 -41.06,-6.02 -63.85,-9.61 -0.52,1.97 -3.4,8.37 -3.74,14.9 -3,57.91 -6.29,115.82 -7.95,173.77 -1,34.61 21.41,56.92 55.93,58.12 13.83,0.48 27.71,-0.74 41.57,-1.12 98.92,-2.68 197.83,-5.34 298.68,-8.07 z m 20.71,-0.94 c 4.49,0.49 6.94,0.93 9.4,1 109,3.12 217.99,6.32 327,9.24 36.56,0.98 61.36,-22.87 60.24,-59.81 -1.71,-56.68 -4.88,-113.33 -7.92,-169.96 -0.41,-7.59 -3.68,-15.03 -4.37,-17.7 -21,3.92 -39.04,10.05 -57.14,10.22 -101.49,0.93 -202.99,0.42 -304.49,0.41 -7.3,0 -14.61,0 -22.72,0 0,76.82 0,150.96 0,226.6 z M 1417.98,586.8 c 15.67,-2.41 28.49,-6.09 41.32,-6.11 244,-0.44 488,-0.56 732,-0.32 21.6,0.02 43.19,3.04 69.49,5.02 3.78,-8.72 13.56,-21.15 13.86,-33.81 0.97,-40.75 -14.68,-55.72 -55.42,-56.66 -206.08,-4.78 -412.14,-13.33 -618.33,-4.17 -49.12,2.18 -98.32,2.64 -147.46,4.28 -37.39,1.25 -50.96,16.85 -54.51,53.17 -1.94,19.73 13.51,26.69 19.05,38.6 z m 1112.01,8.06 c -0.62,0.93 -1.23,1.87 -1.85,2.8 -81.23,2.93 -162.46,5.72 -243.68,9.06 -6.69,0.27 -18.36,3.46 -18.84,6.64 -1.23,8.06 0.16,18.6 4.77,25.15 42.45,60.28 85.86,119.89 128.88,179.76 10.72,14.91 21.07,30.09 33.54,47.92 -45.65,0 -87.19,-0.89 -128.67,0.43 -17.31,0.55 -34.47,5.82 -51.7,8.94 0.27,2.93 0.54,5.87 0.8,8.8 6.02,0 12.14,0.68 18.04,-0.14 13.5,-1.88 26.88,-6.31 40.34,-6.47 35.3,-0.42 70.62,1.13 105.93,1.43 35.7,0.31 71.41,0.07 100.92,0.07 3.32,12.83 4.37,22.54 8.28,30.92 11.11,23.87 10.41,29.6 -9.75,44.75 20.82,1.8 38.98,-2.36 50.98,-19.02 16.4,-22.78 11.85,-46.34 0.76,-64.38 3.42,-13.94 7.98,-23.8 7.89,-33.61 -0.53,-58.01 -1.6,-116.04 -3.88,-174.01 -0.4,-10.28 -7.34,-20.31 -11.26,-30.45 4.45,-23.85 0.2,-42.05 -18.72,-52.83 -13.12,-7.48 -27.09,-13.38 -39.18,1.21 9.23,4.56 17.81,8.8 26.4,13.03 z M 1421.31,880.43 c -56.67,-24.58 -117.02,-8.02 -177.02,-16.4 3.28,-5.18 5.66,-9.36 8.45,-13.25 22,-30.75 44.06,-61.46 66.13,-92.15 28.32,-39.39 57.1,-78.47 84.62,-118.41 4.94,-7.17 6.71,-18.11 5.8,-26.87 -0.31,-3 -13.21,-6.2 -20.53,-6.68 -25.16,-1.66 -50.39,-2.21 -75.59,-3.09 -55.63,-1.95 -111.27,-3.85 -166.91,-5.76 -0.45,-0.95 -0.91,-1.91 -1.36,-2.86 8.89,-4.29 17.78,-8.58 27,-13.03 -12.64,-13.78 -26.36,-9.07 -39.37,-1.78 -18.14,10.15 -22.53,27.6 -17.64,55.25 -5.59,8.25 -12.31,17.09 -12.65,26.15 -2.15,57.97 -3.28,115.99 -3.77,174 -0.09,10.98 4.2,22 7.32,37.1 -12.2,18.17 -14.8,41.72 1.9,64.09 11.98,16.04 29.73,20.34 50.04,16.86 -17.74,-7.63 -20.68,-19.77 -13.05,-35.6 2.18,-4.53 5.25,-8.84 6.38,-13.61 1.69,-7.18 2.03,-14.67 3.37,-25.37 86.15,6.07 176.37,-9.58 266.88,1.41 z m 1115.99,772.73 c -1.91,-23.24 -4.18,-42.6 -4.89,-62 -0.66,-17.99 -9.34,-27.08 -26.83,-27.06 -94.61,0.12 -189.23,0.1 -283.82,1.61 -7.99,0.13 -20.67,9.77 -22.78,17.34 -6.36,22.79 -8.57,46.74 -12.38,70.12 116.98,-0.01 232.11,-0.01 350.7,-0.01 z m -1399.54,-0.26 c 118.02,0 233.51,0 350.15,0 -2.86,-20.13 -6,-40.57 -8.62,-61.08 -2.41,-18.85 -12.69,-27.41 -31.69,-27.19 -30.85,0.36 -61.71,0 -92.57,-0.1 -59.82,-0.2 -119.64,-0.52 -179.46,-0.61 -13.53,-0.02 -28.83,0.56 -31.53,17.17 -3.69,22.68 -4.18,45.89 -6.28,71.81 z M 1297.08,582.86 c 0.46,-3.48 1.08,-5.9 1.07,-8.32 -0.38,-90.74 -0.24,-181.48 -1.51,-272.21 -0.53,-37.96 -13.56,-72.86 -34.96,-104.1 -3.83,-5.59 -12.48,-10.72 -19.13,-11.01 -26.67,-1.19 -42.69,30.18 -27.61,54.82 13.64,22.29 19.21,45.63 19.33,71.62 0.39,83.8 1.97,167.6 3.17,251.39 0.07,4.77 0.84,9.54 1.29,14.31 4.22,-6.75 4.25,-13.39 4.21,-20.02 -0.41,-79.4 -1.36,-158.8 -0.98,-238.19 0.14,-29.59 -3.82,-57.43 -18.1,-83.79 -3.36,-6.2 -1.94,-14.99 -2.72,-22.59 1.92,-0.25 3.83,-0.5 5.75,-0.74 20.07,26.01 28.91,56.15 29.15,88.78 0.65,86.33 0.65,172.66 0.97,258.99 0.03,6.63 0.58,13.27 0.94,21.08 13.77,-0.02 25.55,-0.02 39.13,-0.02 z m 1134.74,-3.21 c 1.73,-0.13 3.45,-0.26 5.18,-0.39 0.23,-3.6 0.61,-7.2 0.66,-10.81 1.15,-86.95 1.21,-173.94 4.13,-260.84 0.71,-21.01 10.7,-41.74 16.75,-62.5 1.73,-5.94 5.54,-11.36 6.74,-17.36 3.01,-15.06 -8.45,-35.46 -22.13,-39.82 -16.67,-5.32 -28.36,1.25 -34.67,16.9 -9.58,23.78 -25.52,47.56 -26.46,71.82 -3.93,101.26 -3.26,202.7 -4.23,304.08 0,0.46 0.76,0.94 1.01,1.22 12.91,0 25.58,0 39.33,0 0,-11.49 -0.02,-20.91 0,-30.33 0.25,-83.19 0.49,-166.37 0.77,-249.56 0.11,-32.91 9.99,-62.37 32.58,-87.74 1.52,8.94 0.34,17.29 -1.45,25.5 -5.42,24.87 -15.09,49.56 -15.88,74.55 -2.53,79.97 -1.8,160.04 -2.31,240.07 -0.07,8.42 -0.02,16.82 -0.02,25.21 z M 1539.89,458.48 c 7.53,-12.69 23.16,-14.11 40.43,-14.07 169.56,0.33 339.12,0.37 508.68,-0.04 19.54,-0.05 37.67,0.85 47.01,14.07 8.25,-3.51 13.77,-8 19.11,-7.79 32.72,1.28 65.49,2.75 98.08,5.86 35.24,3.36 72.93,-3.51 103.04,24.01 -12.39,-26.69 -24.89,-34.58 -53.11,-35.95 -50.35,-2.46 -100.69,-4.94 -151.02,-7.74 -5.39,-0.3 -10.64,-2.83 -15.97,-4.23 -10.13,-2.65 -20.28,-7.48 -30.43,-7.51 -178.38,-0.46 -356.77,-0.35 -535.15,-0.22 -7.48,0.01 -15.05,1.02 -22.42,2.43 -16.24,3.12 -32.22,8.64 -48.57,9.9 -44.59,3.45 -89.32,4.98 -133.97,7.7 -24.81,1.51 -39.51,13.32 -44.82,31.42 14.38,-4.98 30.8,-14.23 47.98,-15.93 50.12,-4.97 100.52,-7.15 150.85,-9.72 5.39,-0.26 11.02,4.1 20.28,7.81 z m -425.37,956.79 c 1.34,0.85 2.69,1.7 4.03,2.55 7.88,-12.79 14.79,-26.32 23.86,-38.2 12.46,-16.33 27.75,-28.75 50.11,-29.8 75.51,-3.54 151.03,-7.25 226.48,-11.79 13.34,-0.8 21.84,3.68 27.93,14.32 7.97,13.9 15.44,28.09 26.02,47.43 0,-100.96 0,-196.24 0,-292.18 -1.31,2.89 -3.04,5.48 -3.68,8.32 -13.93,61.92 -28.28,123.76 -41.17,185.91 -2.82,13.61 -8.36,16.45 -21.19,17.11 -61.6,3.19 -123.24,6.51 -184.65,12.13 -28.89,2.64 -60.65,3.41 -79.16,32.19 -10.66,16.6 -19.12,34.62 -28.58,52.01 z m 1442.47,4.83 c -8.4,-50.68 -36.6,-80.89 -84.44,-85.76 -66.95,-6.81 -134.16,-11.4 -201.36,-15.18 -16.28,-0.92 -22.58,-5.58 -25.83,-21.35 -12.06,-58.49 -25.53,-116.7 -38.59,-174.98 -0.78,-3.47 -2.56,-6.72 -4.27,-11.08 0,95.27 0,188.73 0,282.18 8.73,-11.09 15.04,-22.4 20.52,-34.1 8.3,-17.72 21,-22.98 40.86,-21.53 65.32,4.77 130.79,9.88 196.21,9.96 43.48,0.05 69.78,19.23 87.75,55.61 2.48,4.99 5.47,9.74 9.15,16.23 z M 1431.8,989.81 c -30.31,0 -57.48,1.84 -84.27,-0.56 -23.31,-2.08 -33.79,8.68 -38.72,28.55 -2.56,10.29 -6.12,21.24 -4.97,31.4 6.06,53.75 13.39,107.37 20.56,160.99 0.52,3.87 2.37,9.66 5.14,10.78 16.41,6.66 33.26,12.2 49.97,18.12 -10.46,-9.28 -22.46,-14.88 -33.36,-22.13 -5.04,-3.35 -10.74,-9.6 -11.38,-15.09 -5.1,-43.55 -9.06,-87.23 -13.64,-133.63 29.8,1.48 57.94,2.49 85.99,4.76 3.29,0.27 7.8,7.04 8.69,11.41 2.89,14.27 4.37,28.83 6.39,43.28 1.17,-0.15 2.34,-0.29 3.51,-0.44 1.98,-44.97 3.98,-89.95 6.09,-137.44 z m 921.66,78.5 c -1.45,17.13 -2.54,30.91 -3.81,44.68 -1.33,14.42 -4.52,28.88 -3.96,43.22 1.51,38.8 -10.57,68 -50.66,80.03 -0.5,0.15 -0.82,0.93 -3.47,4.1 19.17,-6.58 35.8,-11.61 51.74,-18.27 3.72,-1.55 6.69,-8.4 7.38,-13.19 6.48,-45.46 12.78,-90.96 18.3,-136.54 2.97,-24.54 3.96,-49.37 -10.76,-71.26 -3.13,-4.66 -8.9,-10.56 -13.6,-10.69 -33.16,-0.92 -66.35,-0.49 -101.49,-0.49 2.15,48.16 4.18,93.79 6.21,139.42 1.06,0.04 2.11,0.08 3.17,0.11 2.61,-18.45 5.22,-36.9 8.03,-56.71 31.03,-1.48 60.96,-2.9 92.92,-4.41 z m -1187.4,390.27 c 36.41,-28.07 40.49,-29.33 85.95,-29.71 62.38,-0.52 124.76,-1.23 187.13,-1.96 7.16,-0.08 14.31,-0.83 24.11,-1.43 -7,-12.01 -11.24,-22.07 -18.02,-29.93 -4.42,-5.12 -12.65,-10.16 -18.98,-9.94 -63.58,2.2 -127.11,5.64 -190.67,8.43 -45.28,1.99 -61.55,16.43 -69.52,64.54 z m 1342.49,2.06 c -5.01,-46.05 -24.57,-64.74 -65.98,-66.51 -64.23,-2.74 -128.45,-5.95 -192.68,-8.72 -5.31,-0.23 -13.35,-0.48 -15.58,2.59 -8.16,11.22 -14.39,23.83 -24.21,40.88 72.95,0 140.38,0.64 207.79,-0.27 33.87,-0.44 65.54,3.06 90.66,32.03 z M 1247.03,1287.36 c 20.41,0 36.36,0 51.34,0 0,-91.81 0,-182.09 0,-273.79 -13.06,0 -23.76,0.8 -34.28,-0.2 -14.24,-1.35 -18.53,3.92 -17.99,18.18 1.22,32.69 0.84,65.45 0.9,98.17 0.1,52.21 0.03,104.4 0.03,157.64 z m 1179.48,0.8 c 0,-92.21 0,-182.5 0,-273.23 -17.17,0 -33.14,0 -50.75,0 0,91.82 0,182.15 0,273.23 16.62,0 32.19,0 50.75,0 z m -1165.55,164.52 c 0,-0.03 0,-0.07 0,-0.1 -14.47,0 -28.94,0.08 -43.42,-0.02 -11.96,-0.08 -19.07,4.12 -18.52,17.66 0.53,13.18 -0.04,26.42 -0.32,39.63 -0.29,13.9 5.99,21.17 20.25,21.16 27.69,-0.02 55.37,-0.09 83.06,0.26 12.75,0.16 18.56,-5.92 18.62,-18.22 0.07,-13.84 0.07,-27.69 0.04,-41.53 -0.03,-13.33 -6.78,-19.3 -20.08,-18.93 -13.19,0.38 -26.41,0.09 -39.63,0.09 z m 137.07,-0.1 c -13.85,0 -27.71,0.26 -41.55,-0.07 -13.73,-0.34 -21.48,4.23 -20.52,19.68 0.82,13.16 -0.02,26.43 -0.13,39.65 -0.1,12.27 5.83,18.95 18.23,19.04 28.96,0.2 57.95,0.82 86.87,-0.31 5.53,-0.22 15.19,-7.51 15.38,-11.87 0.89,-19.88 -0.92,-39.88 -1.75,-59.84 -16.32,-2.1 -32.64,-4.25 -48.97,-6.27 -2.5,-0.31 -5.05,-0.04 -7.56,-0.01 z m 878.04,1.54 c -69.19,1.45 -57.34,-13.08 -58.39,59.48 -0.01,0.63 0.04,1.26 0.05,1.88 0.2,10.66 5.22,16.1 16.29,16.01 28.89,-0.25 57.79,-0.23 86.69,-0.31 12.42,-0.03 18.48,-6.38 18.46,-18.65 -0.02,-14.45 1.24,-29.1 -0.87,-43.25 -0.84,-5.64 -8.74,-13.72 -14.28,-14.48 -14.81,-2.02 -30.08,-0.68 -47.95,-0.68 z m 140.53,-0.07 c -2.51,0 -5.03,-0.04 -7.54,0.01 -62.02,1.26 -53.95,-11.05 -54.72,57.07 -0.16,13.91 5.12,20.89 20,20.54 27,-0.65 54.03,-0.65 81.03,-0.31 14.17,0.18 21.14,-5.87 20.96,-20.08 -0.17,-13.82 -0.53,-27.64 -0.33,-41.46 0.17,-11.23 -5.19,-15.95 -16.06,-15.82 -14.44,0.17 -28.89,0.04 -43.34,0.05 z m 76.18,-216.82 c 0,-84.35 0,-168.01 0,-252.34 -14.44,0 -27.09,0 -39.74,0 16.34,8.32 16.55,22.25 16.7,37.15 0.51,51.55 0.63,103.16 3.21,154.63 1.14,22.75 -0.58,42.13 -20.84,55.87 -0.53,0.36 -0.07,2.19 -0.07,4.69 13.44,0 26.85,0 40.74,0 z M 1181.71,984.91 c 0,84.87 0,168.4 0,251.67 15.02,0 28.73,0 39.78,0 -6.86,-13.21 -18.82,-25.76 -19.06,-38.53 -1.07,-56.07 1.17,-112.21 2.39,-168.32 0.37,-16.81 -3.68,-35.48 16.74,-44.82 -12.97,0 -25.94,0 -39.85,0 z m 196.35,-84.85 c -67.22,0 -131.83,0 -197.3,0 0,9.32 0,17.08 0,24.76 65.84,0 130.38,0 196.2,0 0.4,-9.09 0.73,-16.39 1.1,-24.76 z m 1116.44,0.03 c -66.09,0 -131.23,0 -197.47,0 0.42,8.7 0.8,16.45 1.22,25.05 66.92,0 131.44,0 196.25,0 0,-8.81 0,-16.17 0,-25.05 z m -1269.46,423.79 c 1.04,0.87 2.08,1.74 3.12,2.62 3.73,-4.52 9.18,-8.47 10.92,-13.67 13.59,-40.63 0.64,-57.89 -41.62,-56.33 -4.37,0.16 -9.08,0.02 -12.98,1.62 -3.72,1.53 -9.26,5.02 -9.4,7.87 -0.86,18.06 -0.44,36.18 -0.44,54.29 1.53,-0.03 3.05,-0.06 4.58,-0.1 0.8,-5.19 1.6,-10.38 2.21,-14.28 9.5,1.09 17.45,2.74 25.39,2.71 7.66,-0.02 15.32,-1.76 24.69,-2.96 -2.45,6.91 -4.46,12.57 -6.47,18.23 z m 1270.61,-1.28 c 10.99,-22.16 8.68,-58.22 -2.37,-63.83 -15.98,-8.11 -52.95,-2.91 -57.89,8.15 -7.46,16.67 0.76,51.33 14.66,58.12 -2.19,-6.73 -4.16,-12.78 -5.9,-18.13 17.38,0 33.54,0 49.9,0 0.38,3.69 0.81,7.97 1.6,15.69 z m -2.15,-348.99 c 0,-12.28 0,-22.75 0,-32.79 -37.16,-13.01 -57.08,15.13 -81.58,32.79 26.69,0 53.37,0 81.58,0 z m -1230.68,0.1 c 0.49,-1.6 0.98,-3.2 1.47,-4.8 -26.24,-12.53 -46.36,-42.09 -82.53,-27.63 0,10.89 0,21.24 0,32.44 27.76,-0.01 54.41,-0.01 81.06,-0.01 z m 931.1,-11.43 c -18.07,-31.07 18.95,-47.5 25.77,-74.25 -17.83,0.49 -32.32,5.47 -38.85,24.64 -5.27,15.45 -15.87,22.12 -32.9,16.62 -5.58,-1.8 -12.24,-0.28 -14.95,-0.28 19.08,10.42 40.47,22.1 60.93,33.27 z m -712.89,0.11 c 20.29,-11.37 40.67,-22.78 61.62,-34.51 -11.77,1.2 -23.45,2.4 -36.66,3.75 -6.16,-9.79 -11.2,-22 -19.92,-30.41 -7.87,-7.59 -19.76,-11.01 -32.55,-17.65 9.57,30.57 43.89,47.98 27.51,78.82 z M 1329,782.66 c -14.97,24.42 -27.44,44.76 -40.61,66.26 15.09,0 27.74,0 40.61,0 0,-21.58 0,-41.4 0,-66.26 z m 1058.37,67.05 c -13.92,-22.54 -26.47,-42.86 -41.13,-66.6 0,25.35 0,45.52 0,66.6 13.72,0 25.85,0 41.13,0 z"
   id="path25309"
   style="stroke:none" /> <path
   class="st0"
   d="m 2565.68,1677.21 c 0,93 0,186.13 0,280.55 -485.26,0 -969.8,0 -1455.64,0 0,-93.61 0,-187.2 0,-280.55 484.75,0 969.22,0 1455.64,0 z m -47.46,86.49 c -39.74,71.39 -102.18,102.15 -177.39,102.49 -335.44,1.52 -670.9,0.73 -1006.35,0.43 -14.95,-0.01 -30.28,-1.8 -44.76,-5.45 -56.47,-14.21 -105.03,-40.14 -132.36,-98.1 0,55.5 0,107.77 0,159.91 454.45,0 906.95,0 1360.86,0 0,-52.95 0,-104.87 0,-159.28 z"
   id="path25311"
   style="stroke:none" /> <path
   class="st0"
   d="m 1499.43,1641.94 c 0,-70.66 -0.29,-138.67 0.06,-206.67 0.69,-134.21 1.66,-268.42 2.65,-402.63 0.35,-47.24 24.83,-75.07 71.89,-81.28 68.64,-9.05 137.33,-17.81 206.05,-26.25 11.78,-1.45 19.74,-4.27 20.67,-18.25 0.8,-12.04 9.03,-16.99 21.15,-16.05 7.52,0.58 15.19,0.75 22.67,-0.03 17.43,-1.82 29.23,2.23 31.91,22.48 0.58,4.42 9.94,10.18 15.86,10.99 53,7.3 106.14,13.6 159.23,20.28 18.73,2.36 37.52,4.49 56.13,7.61 40.06,6.72 64.88,36.34 65.21,78.02 0.92,115.32 1.63,230.64 2.26,345.97 0.44,80.69 0.62,161.38 0.91,242.07 0.02,6.86 0,13.73 0,23.66 -225.67,5.38 -450.21,4.96 -676.65,0.08 z m 66.96,-557.28 c 0,175.11 0,348.08 0,521.82 20.32,0 38.26,0 56.75,0 0,-174.68 0,-348.16 0,-521.82 -19.84,0 -38.01,0 -56.75,0 z m 542.88,522.01 c 0,-175.28 0,-348.22 0,-521.51 -19.73,0 -38.33,0 -57.34,0 0,174.68 0,348.14 0,521.51 19.3,0 36.8,0 57.34,0 z m -197.41,0.7 c 19.41,0 37.25,0 55.4,0 0,-175 0,-348.48 0,-523.42 -19.25,0 -37.07,0 -55.4,0 0,174.78 0,347.94 0,523.42 z m -149.33,0.13 c 0,-175.06 0,-348.74 0,-522.9 -18.9,0 -36.64,0 -55.27,0 0,175.34 0,348.45 0,522.9 18.55,0 35.94,0 55.27,0 z m 65.61,1.05 c 0,-175.83 0,-350.53 0,-526.8 -8.41,0 -14.59,-0.13 -20.77,0.02 -30.92,0.77 -30.93,0.79 -30.93,31.91 0.02,149.94 0.07,299.87 0.08,449.81 0.01,49.43 -0.02,49.43 51.62,45.06 z m 206.99,-1.81 c 0,-174.52 0,-348.06 0,-522.03 -18.04,0 -34.79,0 -51.58,0 0,174.59 0,348.1 0,522.03 18.4,0 34.52,0 51.58,0 z m -343.77,-0.16 c 0,-174.55 0,-347.98 0,-521.79 -17.3,0 -33.91,0 -51.31,0 0,174.73 0,348.15 0,521.79 17.54,0 33.65,0 51.31,0 z m 155.17,-523.31 c 0,174.7 0,349.6 0,526.29 9.81,0 19.18,-0.77 28.37,0.17 17.52,1.79 23.5,-4.17 23.41,-22.86 -0.78,-153.84 -0.42,-307.68 -0.47,-461.52 -0.01,-43.65 -0.11,-43.66 -43.91,-43.72 -1.77,-0.02 -3.54,0.75 -7.4,1.64 z m -46.25,-128.81 c -19.53,2.92 -38.79,5.79 -58.04,8.68 -57.21,8.6 -114.43,17.05 -171.6,25.9 -17.03,2.63 -28.56,11.41 -29.76,28.65 12.44,-5.45 24.25,-13.9 36.99,-15.67 76,-10.59 152.21,-19.71 228.39,-29.02 4.56,-0.56 9.99,0.48 14.06,2.61 12.22,6.38 23.61,6.42 35.87,-0.23 4.37,-2.37 10.65,-2.42 15.86,-1.82 56.87,6.63 113.94,12.05 170.43,21.09 30.74,4.92 65.24,-1.08 92.13,27.58 -2.24,-20.69 -11.78,-30.06 -28.8,-32.64 -57.75,-8.77 -115.77,-16.11 -173.09,-27.12 -24.22,-4.65 -57.01,6.9 -69.64,-34.99 -3.6,20.56 -6.21,35.72 -25.56,35.87 -19.75,0.15 -20.93,-16.46 -27.01,-33.58 -4.09,9.87 -6.82,16.46 -10.23,24.69 z"
   id="path25313"
   style="stroke:none" /> <path
   class="st0"
   d="m 1826.95,864.77 c -100.85,2.72 -199.76,5.39 -298.67,8.07 -13.86,0.38 -27.74,1.6 -41.57,1.12 -34.52,-1.2 -56.93,-23.51 -55.93,-58.12 1.67,-57.95 4.95,-115.86 7.95,-173.77 0.34,-6.53 3.22,-12.93 3.74,-14.9 22.79,3.59 43.29,9.41 63.85,9.61 98.98,0.98 197.98,0.44 296.97,0.44 7.45,0 14.89,0 23.67,0 -0.01,76.24 -0.01,150.85 -0.01,227.55 z"
   id="path25315"
   style="stroke:none" /> <path
   class="st0"
   d="m 1847.66,863.83 c 0,-75.64 0,-149.78 0,-226.61 8.12,0 15.42,0 22.72,0 101.5,0.02 203,0.52 304.49,-0.41 18.1,-0.17 36.14,-6.29 57.14,-10.22 0.69,2.67 3.96,10.11 4.37,17.7 3.04,56.63 6.21,113.28 7.92,169.96 1.11,36.94 -23.68,60.79 -60.24,59.81 -109,-2.92 -218,-6.12 -327,-9.24 -2.46,-0.06 -4.91,-0.5 -9.4,-0.99 z"
   id="path25317"
   style="stroke:none" /> <path
   class="st0"
   d="m 1417.98,586.8 c -5.54,-11.9 -20.99,-18.87 -19.06,-38.6 3.55,-36.32 17.12,-51.92 54.51,-53.17 49.15,-1.64 98.34,-2.1 147.46,-4.28 206.19,-9.16 412.25,-0.61 618.33,4.17 40.74,0.95 56.39,15.91 55.42,56.66 -0.3,12.66 -10.08,25.09 -13.86,33.81 -26.3,-1.98 -47.89,-4.99 -69.49,-5.02 -244,-0.24 -488,-0.11 -732,0.32 -12.82,0.02 -25.64,3.69 -41.31,6.11 z"
   id="path25319"
   style="stroke:none" /> <path
   class="st0"
   d="m 2529.99,594.86 c -8.58,-4.23 -17.16,-8.47 -26.4,-13.02 12.09,-14.59 26.06,-8.69 39.18,-1.21 18.92,10.78 23.17,28.98 18.72,52.83 3.92,10.14 10.86,20.17 11.26,30.45 2.28,57.97 3.35,115.99 3.88,174.01 0.09,9.81 -4.47,19.67 -7.89,33.61 11.09,18.04 15.63,41.6 -0.76,64.38 -11.99,16.66 -30.16,20.81 -50.98,19.02 20.16,-15.15 20.86,-20.88 9.75,-44.75 -3.9,-8.39 -4.96,-18.1 -8.28,-30.92 -29.51,0 -65.22,0.24 -100.92,-0.07 -35.32,-0.31 -70.63,-1.86 -105.93,-1.43 -13.47,0.16 -26.84,4.59 -40.34,6.47 -5.9,0.82 -12.02,0.14 -18.04,0.14 -0.27,-2.93 -0.54,-5.87 -0.8,-8.8 17.23,-3.12 34.39,-8.39 51.7,-8.94 41.48,-1.32 83.03,-0.43 128.67,-0.43 -12.47,-17.84 -22.82,-33.01 -33.54,-47.92 -43.03,-59.88 -86.43,-119.49 -128.88,-179.76 -4.61,-6.54 -6,-17.09 -4.77,-25.15 0.49,-3.19 12.15,-6.37 18.84,-6.64 81.21,-3.34 162.45,-6.13 243.68,-9.06 0.62,-0.94 1.23,-1.88 1.85,-2.81 z M 2547,830.11 c -5.19,11.39 -6.94,24.28 -14.14,29.2 -17.51,11.98 -43.85,-3.87 -44.4,-25.42 -1.28,-50.39 -1.69,-100.8 -2.96,-151.19 -0.93,-36.76 -1.23,-36.83 33.56,-47.12 -2.6,-3.66 -5.09,-7.17 -8.4,-11.84 16.52,1.73 22.02,9.68 22.53,24.12 1.65,47.21 4.14,94.39 6.74,141.56 0.34,6.2 3.21,12.26 4.91,18.39 5.08,-2.81 5.91,-4.49 5.86,-6.13 -1.7,-49.74 -4.45,-99.47 -4.93,-149.22 -0.36,-37 -16.46,-41.27 -44.44,-40.74 -56.06,1.05 -112.1,3.09 -168.15,4.89 -18.55,0.6 -37.09,1.7 -56.62,2.62 1.39,3.48 1.75,5.35 2.75,6.75 55.89,77.69 111.76,155.39 167.96,232.84 2.96,4.08 8.73,8.5 13.31,8.62 28.76,0.79 57.54,0.4 86.42,0.4 0,-12.74 0,-24.22 0,-37.73 z"
   id="path25321"
   style="stroke:none" /> <path
   class="st0"
   d="m 1421.31,880.43 c -90.51,-10.99 -180.73,4.66 -266.88,-1.44 -1.33,10.7 -1.67,18.2 -3.37,25.37 -1.13,4.77 -4.2,9.08 -6.38,13.61 -7.62,15.83 -4.69,27.97 13.05,35.6 -20.31,3.48 -38.07,-0.82 -50.04,-16.86 -16.7,-22.37 -14.1,-45.93 -1.9,-64.09 -3.11,-15.1 -7.41,-26.12 -7.32,-37.1 0.49,-58.01 1.62,-116.03 3.77,-174 0.34,-9.07 7.06,-17.9 12.65,-26.15 -4.89,-27.64 -0.5,-45.09 17.64,-55.25 13.01,-7.28 26.73,-12 39.37,1.78 -9.22,4.45 -18.11,8.74 -27,13.03 0.45,0.95 0.91,1.91 1.36,2.86 55.64,1.92 111.27,3.82 166.91,5.76 25.2,0.88 50.43,1.43 75.59,3.09 7.32,0.48 20.22,3.69 20.53,6.68 0.91,8.77 -0.86,19.7 -5.8,26.87 -27.52,39.95 -56.3,79.02 -84.62,118.41 -22.07,30.7 -44.13,61.4 -66.13,92.15 -2.78,3.89 -5.16,8.07 -8.45,13.25 60,8.41 120.35,-8.16 177.02,16.43 z m -293.76,-12.41 c 27.18,0 52.89,-0.39 78.58,0.18 11.15,0.25 18.14,-3.44 24.83,-12.86 43.37,-61.08 87.56,-121.57 131.37,-182.34 12.34,-17.12 24.32,-34.51 39.21,-55.7 -18.6,0 -32.91,0.35 -47.2,-0.06 -61.08,-1.77 -122.15,-4.15 -183.24,-5.54 -31.94,-0.72 -40.68,8.06 -41.9,39.3 -1.45,37.14 -2.76,74.29 -3.84,111.44 -0.43,14.68 -0.07,29.38 -0.07,44.07 1.85,0.33 3.69,0.67 5.54,1 1.54,-6.97 4.09,-13.89 4.47,-20.92 2.51,-46.54 4.85,-93.1 6.56,-139.68 0.54,-14.62 7.03,-21.72 22.59,-23.02 -3.44,4.75 -6.1,8.42 -8.89,12.27 15.9,5.62 34.88,4.38 34.12,28.79 -1.73,55.41 -2.95,110.86 -3.03,166.3 -0.03,18.87 -7.29,27.36 -25.53,29.97 -18.21,2.6 -27.02,-4.53 -28.91,-22.14 -0.27,-2.5 -1.61,-4.89 -2.46,-7.32 -0.73,0.17 -1.47,0.33 -2.2,0.5 0,11.22 0,22.45 0,35.76 z"
   id="path25323"
   style="stroke:none" /> <path
   class="st0"
   d="m 2537.3,1653.16 c -118.58,0 -233.72,0 -350.71,0 3.81,-23.38 6.02,-47.33 12.38,-70.12 2.11,-7.56 14.8,-17.21 22.78,-17.34 94.59,-1.51 189.21,-1.49 283.82,-1.61 17.49,-0.02 26.17,9.07 26.83,27.06 0.72,19.42 2.99,38.77 4.9,62.01 z"
   id="path25325"
   style="stroke:none" /> <path
   class="st0"
   d="m 1137.76,1652.9 c 2.1,-25.92 2.59,-49.13 6.28,-71.82 2.7,-16.61 18.01,-17.19 31.53,-17.17 59.82,0.09 119.64,0.41 179.46,0.61 30.86,0.11 61.72,0.46 92.57,0.1 19.01,-0.22 29.29,8.34 31.69,27.19 2.62,20.51 5.76,40.95 8.62,61.08 -116.63,0.01 -232.12,0.01 -350.15,0.01 z"
   id="path25327"
   style="stroke:none" /> <path
   class="st0"
   d="m 1297.08,582.86 c -13.58,0 -25.35,0 -39.13,0 -0.36,-7.81 -0.91,-14.45 -0.94,-21.08 -0.33,-86.33 -0.33,-172.66 -0.97,-258.99 -0.24,-32.63 -9.08,-62.76 -29.15,-88.78 -1.92,0.25 -3.83,0.5 -5.75,0.74 0.78,7.6 -0.64,16.39 2.72,22.59 14.28,26.36 18.24,54.2 18.1,83.79 -0.39,79.39 0.56,158.79 0.98,238.19 0.03,6.64 0,13.28 -4.21,20.02 -0.45,-4.77 -1.22,-9.53 -1.29,-14.31 -1.2,-83.8 -2.78,-167.59 -3.17,-251.39 -0.12,-26 -5.68,-49.33 -19.33,-71.62 -15.08,-24.64 0.95,-56.01 27.61,-54.82 6.65,0.3 15.3,5.43 19.13,11.01 21.4,31.24 34.43,66.14 34.96,104.1 1.27,90.73 1.14,181.47 1.51,272.21 0,2.44 -0.61,4.85 -1.07,8.34 z"
   id="path25329"
   style="stroke:none" /> <path
   class="st0"
   d="m 2431.82,579.65 c 0,-8.4 -0.05,-16.79 0.01,-25.19 0.51,-80.03 -0.21,-160.1 2.31,-240.07 0.79,-24.99 10.47,-49.68 15.88,-74.55 1.79,-8.21 2.97,-16.56 1.45,-25.5 -22.59,25.37 -32.47,54.83 -32.58,87.74 -0.28,83.19 -0.52,166.37 -0.77,249.56 -0.03,9.42 0,18.84 0,30.33 -13.74,0 -26.41,0 -39.33,0 -0.25,-0.29 -1.01,-0.76 -1.01,-1.22 0.97,-101.38 0.3,-202.82 4.23,-304.08 0.94,-24.26 16.88,-48.04 26.46,-71.82 6.3,-15.64 17.99,-22.21 34.67,-16.9 13.67,4.36 25.14,24.76 22.13,39.82 -1.2,5.99 -5.01,11.41 -6.74,17.36 -6.05,20.76 -16.04,41.5 -16.75,62.5 -2.92,86.89 -2.98,173.88 -4.13,260.84 -0.05,3.6 -0.43,7.2 -0.66,10.81 -1.72,0.12 -3.45,0.24 -5.17,0.37 z"
   id="path25331"
   style="stroke:none" /> <path
   class="st0"
   d="m 1539.89,458.48 c -9.27,-3.71 -14.89,-8.07 -20.28,-7.8 -50.33,2.57 -100.73,4.75 -150.85,9.72 -17.17,1.7 -33.6,10.95 -47.98,15.93 5.31,-18.11 20.01,-29.91 44.82,-31.42 44.65,-2.72 89.38,-4.26 133.97,-7.7 16.34,-1.26 32.33,-6.78 48.57,-9.9 7.36,-1.42 14.94,-2.43 22.42,-2.43 178.38,-0.14 356.77,-0.24 535.15,0.22 10.15,0.03 20.3,4.86 30.43,7.51 5.34,1.4 10.59,3.93 15.97,4.23 50.33,2.8 100.67,5.28 151.02,7.74 28.22,1.38 40.72,9.26 53.11,35.95 -30.12,-27.52 -67.8,-20.65 -103.04,-24.01 -32.59,-3.1 -65.35,-4.57 -98.08,-5.86 -5.34,-0.21 -10.86,4.27 -19.11,7.79 -9.34,-13.22 -27.47,-14.12 -47.01,-14.07 -169.56,0.41 -339.12,0.37 -508.68,0.04 -17.27,-0.05 -32.89,1.37 -40.43,14.06 z"
   id="path25333"
   style="stroke:none" /> <path
   class="st0"
   d="m 1114.52,1415.27 c 9.46,-17.38 17.92,-35.41 28.6,-52.01 18.51,-28.77 50.27,-29.54 79.16,-32.19 61.41,-5.62 123.05,-8.94 184.65,-12.13 12.83,-0.66 18.37,-3.5 21.19,-17.11 12.89,-62.14 27.23,-123.98 41.17,-185.91 0.64,-2.84 2.37,-5.43 3.68,-8.32 0,95.93 0,191.22 0,292.18 -10.57,-19.34 -18.05,-33.52 -26.02,-47.43 -6.1,-10.64 -14.59,-15.12 -27.93,-14.32 -75.46,4.54 -150.97,8.25 -226.48,11.79 -22.36,1.05 -37.65,13.47 -50.11,29.8 -9.07,11.88 -15.98,25.4 -23.86,38.2 -1.36,-0.85 -2.71,-1.7 -4.05,-2.55 z"
   id="path25335"
   style="stroke:none" /> <path
   class="st0"
   d="m 2556.99,1420.1 c -3.68,-6.5 -6.67,-11.24 -9.14,-16.24 -17.97,-36.38 -44.27,-55.55 -87.75,-55.61 -65.42,-0.08 -130.89,-5.19 -196.21,-9.96 -19.86,-1.45 -32.56,3.81 -40.86,21.53 -5.48,11.69 -11.79,23 -20.52,34.1 0,-93.46 0,-186.91 0,-282.18 1.71,4.36 3.49,7.61 4.27,11.08 13.06,58.29 26.53,116.49 38.59,174.98 3.25,15.78 9.55,20.44 25.83,21.35 67.2,3.78 134.41,8.37 201.36,15.18 47.83,4.88 76.03,35.1 84.43,85.77 z"
   id="path25337"
   style="stroke:none" /> <path
   class="st0"
   d="m 1431.8,989.81 c -2.11,47.49 -4.11,92.47 -6.1,137.45 -1.17,0.15 -2.34,0.29 -3.51,0.44 -2.02,-14.45 -3.5,-29.01 -6.39,-43.28 -0.89,-4.38 -5.4,-11.15 -8.69,-11.41 -28.04,-2.27 -56.18,-3.28 -85.99,-4.76 4.58,46.4 8.54,90.08 13.64,133.63 0.64,5.49 6.34,11.74 11.38,15.09 10.9,7.25 22.9,12.84 33.36,22.13 -16.71,-5.92 -33.56,-11.47 -49.97,-18.12 -2.77,-1.12 -4.62,-6.91 -5.14,-10.78 -7.17,-53.62 -14.51,-107.24 -20.56,-160.99 -1.15,-10.17 2.41,-21.11 4.97,-31.4 4.94,-19.87 15.42,-30.63 38.72,-28.55 26.8,2.39 53.97,0.55 84.28,0.55 z"
   id="path25339"
   style="stroke:none" /> <path
   class="st0"
   d="m 2353.46,1068.31 c -31.96,1.51 -61.89,2.93 -92.93,4.4 -2.8,19.81 -5.41,38.26 -8.03,56.71 -1.06,-0.04 -2.11,-0.08 -3.17,-0.11 -2.03,-45.63 -4.06,-91.26 -6.21,-139.42 35.14,0 68.33,-0.43 101.49,0.49 4.7,0.13 10.46,6.03 13.6,10.69 14.71,21.89 13.73,46.71 10.76,71.26 -5.52,45.59 -11.82,91.08 -18.3,136.54 -0.68,4.79 -3.66,11.64 -7.38,13.19 -15.95,6.66 -32.57,11.69 -51.74,18.27 2.65,-3.17 2.97,-3.95 3.47,-4.1 40.08,-12.02 52.16,-41.23 50.66,-80.03 -0.56,-14.33 2.63,-28.8 3.96,-43.22 1.28,-13.76 2.37,-27.54 3.82,-44.67 z"
   id="path25341"
   style="stroke:none" /> <path
   class="st0"
   d="m 1166.06,1458.58 c 7.96,-48.1 24.24,-62.54 69.52,-64.53 63.56,-2.79 127.09,-6.23 190.67,-8.43 6.34,-0.22 14.56,4.82 18.98,9.94 6.78,7.86 11.02,17.92 18.02,29.93 -9.8,0.6 -16.95,1.34 -24.11,1.43 -62.38,0.73 -124.75,1.43 -187.13,1.96 -45.46,0.37 -49.53,1.62 -85.95,29.7 z"
   id="path25343"
   style="stroke:none" /> <path
   class="st0"
   d="m 2508.55,1460.64 c -25.12,-28.97 -56.79,-32.47 -90.66,-32.02 -67.41,0.9 -134.83,0.27 -207.79,0.27 9.82,-17.05 16.05,-29.67 24.21,-40.88 2.23,-3.07 10.27,-2.82 15.58,-2.59 64.23,2.76 128.45,5.98 192.68,8.72 41.41,1.76 60.97,20.45 65.98,66.5 z"
   id="path25345"
   style="stroke:none" /> <path
   class="st0"
   d="m 1247.03,1287.36 c 0,-53.24 0.07,-105.44 -0.03,-157.63 -0.06,-32.73 0.32,-65.48 -0.9,-98.17 -0.53,-14.26 3.76,-19.53 17.99,-18.18 10.52,1 21.22,0.2 34.28,0.2 0,91.7 0,181.97 0,273.79 -14.99,-0.01 -30.94,-0.01 -51.34,-0.01 z m 25.42,-215.99 c 8.3,-10.4 16.55,-16.3 16.99,-22.73 0.34,-4.99 -9.45,-15.29 -14.05,-14.91 -6.48,0.53 -16.09,7.98 -17.32,13.93 -1.1,5.37 7.25,12.7 14.38,23.71 z m 24.53,63.21 c -10.23,-7.33 -16.8,-15.63 -21.96,-14.84 -6.66,1.03 -12.2,9.34 -18.22,14.52 5.53,5.84 10.6,15.67 16.72,16.38 5.82,0.66 12.72,-8.22 23.46,-16.06 z m -24.31,20.8 c -7.48,11.39 -15.2,18 -14.71,23.93 0.44,5.33 10.6,14.44 15.21,13.72 6.39,-0.99 15.23,-9.05 16.18,-15.14 0.79,-5.12 -8.23,-11.75 -16.68,-22.51 z m 25.29,-62.87 c -11.72,-7.53 -18.64,-15.48 -24.55,-14.8 -6.03,0.69 -11.09,9.88 -16.57,15.35 5.41,5.07 10.66,13.97 16.26,14.2 6.36,0.25 13.03,-7.26 24.86,-14.75 z m -25.9,147.47 c 8.54,-10.3 17.64,-16.53 17.28,-22.17 -0.36,-5.72 -9.51,-14.11 -15.84,-15.16 -4.66,-0.77 -15.14,8.11 -15.47,13.19 -0.41,6.22 7.06,12.97 14.03,24.14 z m 25.38,20.75 c -10.86,-7.93 -17.07,-15.94 -23.51,-16.12 -5.53,-0.16 -16.5,9.51 -15.86,13.24 1.17,6.8 8.48,16.34 14.52,17.4 5.8,1.03 13.23,-7.25 24.85,-14.52 z"
   id="path25347"
   style="stroke:none" /> <path
   class="st0"
   d="m 2426.51,1288.16 c -18.56,0 -34.13,0 -50.75,0 0,-91.07 0,-181.41 0,-273.23 17.61,0 33.59,0 50.75,0 0,90.73 0,181.02 0,273.23 z m -26.25,-216.4 c 8.28,-10.59 17.31,-17.15 16.84,-22.95 -0.47,-5.85 -9.8,-14.16 -16.3,-15.27 -4.45,-0.76 -14.85,8.78 -15.07,14.03 -0.26,6.38 7.39,13.08 14.53,24.19 z m -0.59,164.94 c -6.92,11.32 -14.59,18.33 -13.96,24.48 0.57,5.62 11.17,15.22 15.49,14.3 6.52,-1.39 15.27,-10.04 15.84,-16.26 0.51,-5.56 -8.78,-12.02 -17.37,-22.52 z m 0.33,-35.62 c 8.45,-10.44 16.75,-16.27 17.12,-22.56 0.3,-5.08 -9.25,-15.28 -13.93,-14.99 -6.42,0.39 -16.18,7.73 -17.42,13.59 -1.14,5.38 7.12,12.74 14.23,23.96 z m 1.35,-89.39 c -7.74,10.95 -15.76,17.36 -15.61,23.59 0.12,5.46 10.1,15.53 14.49,14.91 6.57,-0.93 15.9,-8.84 16.87,-14.93 0.87,-5.5 -7.91,-12.54 -15.75,-23.57 z m -0.26,-42.29 c -7.7,10.99 -15.53,17.32 -15.36,23.43 0.14,5.19 10.13,14.72 14.63,14.1 6.5,-0.89 15.72,-8.58 16.76,-14.57 0.89,-5.21 -7.98,-12.1 -16.03,-22.96 z m 24.72,148.54 c -11.61,-7.8 -18.36,-15.9 -24.29,-15.34 -6.04,0.57 -11.28,9.66 -16.87,15.01 5.23,5.15 10.24,14.13 15.73,14.43 6.41,0.36 13.24,-6.87 25.43,-14.1 z"
   id="path25349"
   style="stroke:none" /> <path
   class="st0"
   d="m 1260.96,1452.68 c 13.21,0 26.44,0.29 39.64,-0.08 13.3,-0.38 20.05,5.59 20.08,18.93 0.03,13.84 0.03,27.69 -0.04,41.53 -0.06,12.3 -5.87,18.38 -18.62,18.22 -27.68,-0.35 -55.37,-0.28 -83.06,-0.26 -14.26,0.01 -20.55,-7.26 -20.25,-21.16 0.28,-13.21 0.85,-26.44 0.32,-39.63 -0.55,-13.54 6.56,-17.75 18.52,-17.66 14.47,0.1 28.94,0.02 43.42,0.02 -0.01,0.02 -0.01,0.05 -0.01,0.09 z m 14,61.2 c 0.33,-1.21 0.66,-2.42 0.99,-3.63 -18.03,-11 -36.06,-22 -57.02,-34.79 2.67,16.24 -7.82,33.97 13.79,37.96 13.64,2.51 28.13,0.46 42.24,0.46 z"
   id="path25351"
   style="stroke:none" /> <path
   class="st0"
   d="m 1398.03,1452.56 c 2.52,-0.02 5.07,-0.28 7.55,0.03 16.33,2.02 32.65,4.16 48.97,6.27 0.84,19.96 2.64,39.96 1.75,59.84 -0.2,4.36 -9.86,11.65 -15.38,11.87 -28.92,1.13 -57.9,0.51 -86.87,0.31 -12.39,-0.08 -18.33,-6.77 -18.23,-19.04 0.11,-13.22 0.94,-26.49 0.13,-39.65 -0.96,-15.45 6.79,-20.02 20.52,-19.68 13.84,0.33 27.7,0.07 41.56,0.05 z m 15.16,61.37 c 0.25,-1.2 0.5,-2.4 0.75,-3.6 -18.37,-11.07 -36.74,-22.14 -56.04,-33.77 -2.71,28.61 -0.68,36.24 10.95,37.1 14.7,1.1 29.55,0.27 44.34,0.27 z"
   id="path25353"
   style="stroke:none" /> <path
   class="st0"
   d="m 2276.07,1454.12 c 17.88,0 33.14,-1.34 47.94,0.69 5.54,0.76 13.44,8.84 14.28,14.48 2.12,14.14 0.85,28.8 0.87,43.25 0.02,12.28 -6.04,18.62 -18.46,18.65 -28.9,0.07 -57.79,0.06 -86.69,0.31 -11.06,0.09 -16.09,-5.35 -16.29,-16.01 -0.01,-0.63 -0.06,-1.26 -0.05,-1.88 1.06,-72.58 -10.79,-58.05 58.4,-59.49 z m 41.26,22.4 c -20.07,12.51 -37.86,23.59 -59.28,36.94 59.64,4.65 61.23,3.64 59.28,-36.94 z"
   id="path25355"
   style="stroke:none" /> <path
   class="st0"
   d="m 2416.6,1454.04 c 14.45,-0.01 28.9,0.13 43.35,-0.05 10.87,-0.13 16.22,4.59 16.06,15.82 -0.2,13.82 0.16,27.64 0.33,41.46 0.18,14.21 -6.79,20.26 -20.96,20.08 -27.01,-0.34 -54.03,-0.34 -81.03,0.31 -14.88,0.36 -20.16,-6.63 -20,-20.54 0.77,-68.12 -7.3,-55.81 54.72,-57.07 2.5,-0.04 5.02,0 7.53,-0.01 z m -18.08,56.75 c 58.87,5.57 59.93,4.89 55.77,-33.63 -19.15,11.55 -37.46,22.59 -55.77,33.63 z"
   id="path25357"
   style="stroke:none" /> <path
   class="st0"
   d="m 2492.78,1237.23 c -13.89,0 -27.3,0 -40.75,0 0,-2.5 -0.47,-4.33 0.07,-4.69 20.26,-13.75 21.98,-33.13 20.84,-55.87 -2.58,-51.47 -2.7,-103.07 -3.21,-154.63 -0.15,-14.89 -0.35,-28.83 -16.7,-37.15 12.65,0 25.3,0 39.74,0 0.01,84.33 0.01,167.99 0.01,252.34 z"
   id="path25359"
   style="stroke:none" /> <path
   class="st0"
   d="m 1181.71,984.91 c 13.91,0 26.88,0 39.84,0 -20.42,9.34 -16.38,28.01 -16.74,44.82 -1.22,56.11 -3.46,112.25 -2.39,168.32 0.24,12.77 12.2,25.32 19.06,38.53 -11.05,0 -24.76,0 -39.78,0 0.01,-83.27 0.01,-166.8 0.01,-251.67 z"
   id="path25361"
   style="stroke:none" /> <path
   class="st0"
   d="m 1378.06,900.06 c -0.37,8.37 -0.7,15.67 -1.1,24.76 -65.82,0 -130.36,0 -196.2,0 0,-7.68 0,-15.45 0,-24.76 65.47,0 130.08,0 197.3,0 z"
   id="path25363"
   style="stroke:none" /> <path
   class="st0"
   d="m 2494.5,900.09 c 0,8.89 0,16.24 0,25.05 -64.81,0 -129.33,0 -196.25,0 -0.42,-8.6 -0.8,-16.35 -1.22,-25.05 66.24,0 131.39,0 197.47,0 z"
   id="path25365"
   style="stroke:none" /> <path
   class="st0"
   d="m 1225.04,1323.88 c 2.01,-5.66 4.02,-11.32 6.47,-18.23 -9.37,1.2 -17.03,2.94 -24.69,2.96 -7.94,0.02 -15.88,-1.62 -25.39,-2.71 -0.6,3.9 -1.4,9.09 -2.21,14.28 -1.53,0.03 -3.05,0.06 -4.58,0.1 0,-18.1 -0.42,-36.22 0.44,-54.29 0.14,-2.85 5.67,-6.34 9.4,-7.87 3.9,-1.6 8.61,-1.46 12.98,-1.62 42.26,-1.56 55.21,15.7 41.62,56.33 -1.74,5.19 -7.19,9.14 -10.92,13.67 -1.04,-0.88 -2.08,-1.75 -3.12,-2.62 z"
   id="path25367"
   style="stroke:none" /> <path
   class="st0"
   d="m 2495.65,1322.6 c -0.79,-7.72 -1.23,-12 -1.61,-15.7 -16.36,0 -32.52,0 -49.9,0 1.74,5.34 3.71,11.4 5.9,18.13 -13.9,-6.79 -22.11,-41.45 -14.66,-58.12 4.94,-11.06 41.91,-16.26 57.89,-8.15 11.07,5.61 13.37,41.68 2.38,63.84 z"
   id="path25369"
   style="stroke:none" /> <path
   class="st0"
   d="m 2493.5,973.61 c -28.2,0 -54.89,0 -81.58,0 24.5,-17.66 44.42,-45.81 81.58,-32.79 0,10.04 0,20.5 0,32.79 z"
   id="path25371"
   style="stroke:none" /> <path
   class="st0"
   d="m 1262.82,973.71 c -26.65,0 -53.3,0 -81.06,0 0,-11.2 0,-21.55 0,-32.44 36.17,-14.46 56.29,15.11 82.53,27.63 -0.49,1.6 -0.98,3.21 -1.47,4.81 z"
   id="path25373"
   style="stroke:none" /> <path
   class="st0"
   d="m 2193.92,962.28 c -20.46,-11.17 -41.84,-22.86 -60.93,-33.28 2.7,0 9.36,-1.52 14.95,0.28 17.02,5.5 27.63,-1.17 32.9,-16.62 6.53,-19.16 21.02,-24.14 38.86,-24.63 -6.83,26.75 -43.85,43.18 -25.78,74.25 z"
   id="path25375"
   style="stroke:none" /> <path
   class="st0"
   d="m 1481.03,962.39 c 16.38,-30.84 -17.95,-48.25 -27.5,-78.83 12.79,6.65 24.68,10.07 32.55,17.65 8.72,8.41 13.76,20.63 19.92,30.41 13.21,-1.35 24.89,-2.54 36.66,-3.75 -20.95,11.74 -41.33,23.16 -61.63,34.52 z"
   id="path25377"
   style="stroke:none" /> <path
   class="st0"
   d="m 1329,782.66 c 0,24.86 0,44.68 0,66.26 -12.86,0 -25.52,0 -40.61,0 13.17,-21.5 25.64,-41.84 40.61,-66.26 z"
   id="path25379"
   style="stroke:none" /> <path
   class="st0"
   d="m 2387.37,849.71 c -15.28,0 -27.41,0 -41.13,0 0,-21.07 0,-41.25 0,-66.6 14.66,23.74 27.21,44.06 41.13,66.6 z"
   id="path25381"
   style="stroke:none" /> <path
   d="m 2518.22,1763.7 c 0,54.41 0,106.34 0,159.29 -453.91,0 -906.41,0 -1360.86,0 0,-52.14 0,-104.41 0,-159.91 27.32,57.96 75.89,83.89 132.36,98.1 14.48,3.64 29.82,5.43 44.76,5.45 335.45,0.3 670.91,1.09 1006.35,-0.43 75.21,-0.35 137.66,-31.12 177.39,-102.5 z"
   id="path25383"
   style="stroke:none" /> <path
   d="m 1566.39,1084.66 c 18.74,0 36.92,0 56.75,0 0,173.66 0,347.14 0,521.82 -18.49,0 -36.43,0 -56.75,0 0,-173.73 0,-346.7 0,-521.82 z"
   id="path25385"
   style="stroke:none" /> <path
   d="m 2109.27,1606.67 c -20.54,0 -38.04,0 -57.34,0 0,-173.37 0,-346.83 0,-521.51 19.01,0 37.61,0 57.34,0 0,173.29 0,346.23 0,521.51 z"
   id="path25387"
   style="stroke:none" /> <path
   d="m 1911.86,1607.37 c 0,-175.48 0,-348.63 0,-523.42 18.33,0 36.15,0 55.4,0 0,174.93 0,348.42 0,523.42 -18.14,0 -35.99,0 -55.4,0 z"
   id="path25389"
   style="stroke:none" /> <path
   d="m 1762.53,1607.5 c -19.34,0 -36.72,0 -55.27,0 0,-174.45 0,-347.56 0,-522.9 18.63,0 36.36,0 55.27,0 0,174.16 0,347.84 0,522.9 z"
   id="path25391"
   style="stroke:none" /> <path
   d="m 1828.14,1608.55 c -51.64,4.37 -51.61,4.37 -51.62,-45.05 -0.01,-149.94 -0.05,-299.87 -0.08,-449.81 0,-31.12 0.01,-31.15 30.93,-31.91 6.18,-0.15 12.36,-0.02 20.77,-0.02 0,176.26 0,350.96 0,526.79 z"
   id="path25393"
   style="stroke:none" /> <path
   d="m 2035.13,1606.74 c -17.05,0 -33.18,0 -51.58,0 0,-173.94 0,-347.44 0,-522.03 16.79,0 33.54,0 51.58,0 0,173.97 0,347.51 0,522.03 z"
   id="path25395"
   style="stroke:none" /> <path
   d="m 1691.36,1606.58 c -17.67,0 -33.78,0 -51.31,0 0,-173.64 0,-347.07 0,-521.79 17.4,0 34.02,0 51.31,0 0,173.82 0,347.24 0,521.79 z"
   id="path25397"
   style="stroke:none" /> <path
   d="m 1846.53,1083.27 c 3.86,-0.89 5.62,-1.65 7.39,-1.65 43.8,0.06 43.9,0.07 43.91,43.72 0.05,153.84 -0.31,307.69 0.47,461.52 0.1,18.69 -5.89,24.65 -23.41,22.86 -9.19,-0.94 -18.55,-0.17 -28.37,-0.17 0.01,-176.68 0.01,-351.59 0.01,-526.28 z"
   id="path25399"
   style="stroke:none" /> <path
   d="m 1800.28,954.46 c 3.41,-8.23 6.14,-14.82 10.24,-24.7 6.09,17.11 7.26,33.73 27.01,33.58 19.36,-0.15 21.97,-15.31 25.56,-35.87 12.63,41.89 45.42,30.34 69.64,34.99 57.32,11.01 115.34,18.35 173.09,27.12 17.02,2.58 26.56,11.95 28.8,32.64 -26.89,-28.66 -61.39,-22.66 -92.13,-27.58 -56.49,-9.04 -113.57,-14.46 -170.43,-21.09 -5.21,-0.61 -11.5,-0.55 -15.86,1.82 -12.25,6.65 -23.65,6.61 -35.87,0.23 -4.07,-2.13 -9.51,-3.16 -14.06,-2.61 -76.18,9.31 -152.39,18.43 -228.39,29.02 -12.74,1.78 -24.55,10.22 -36.99,15.67 1.2,-17.24 12.73,-26.02 29.76,-28.65 57.17,-8.85 114.39,-17.3 171.6,-25.9 19.24,-2.88 38.5,-5.75 58.03,-8.67 z"
   id="path25401"
   style="stroke:none" /> <path
   d="m 2547,830.11 c 0,13.5 0,24.98 0,37.72 -28.88,0 -57.67,0.39 -86.42,-0.4 -4.58,-0.12 -10.35,-4.55 -13.31,-8.62 -56.2,-77.46 -112.07,-155.16 -167.96,-232.84 -1.01,-1.4 -1.36,-3.27 -2.75,-6.75 19.53,-0.92 38.06,-2.02 56.62,-2.62 56.04,-1.8 112.09,-3.83 168.15,-4.89 27.98,-0.53 44.08,3.74 44.44,40.74 0.49,49.75 3.24,99.48 4.93,149.22 0.06,1.64 -0.77,3.32 -5.86,6.13 -1.7,-6.12 -4.56,-12.19 -4.91,-18.39 -2.6,-47.17 -5.09,-94.35 -6.74,-141.56 -0.51,-14.44 -6.01,-22.39 -22.53,-24.12 3.31,4.67 5.8,8.18 8.4,11.84 -34.79,10.29 -34.48,10.36 -33.56,47.12 1.27,50.39 1.68,100.8 2.96,151.19 0.55,21.56 26.89,37.4 44.4,25.42 7.19,-4.9 8.94,-17.8 14.14,-29.19 z M 2347.85,674.88 c 11.5,-40.58 44.67,-29.26 73.82,-31.42 0,45.56 0,89.93 0,135.61 -6.52,-1.75 -12.07,-3.23 -21.16,-5.66 13.91,17.97 25.5,32.94 37.09,47.91 1.38,-0.48 2.76,-0.95 4.14,-1.43 0,-64.3 0,-128.6 0,-195.01 -30.97,1.76 -62.03,3.53 -93.89,5.34 0,16.09 0,30.37 0,44.66 z"
   id="path25403"
   style="stroke:none" /> <path
   d="m 1127.55,868.02 c 0,-13.31 0,-24.54 0,-35.78 0.73,-0.17 1.47,-0.33 2.2,-0.5 0.85,2.44 2.19,4.82 2.46,7.32 1.89,17.61 10.7,24.74 28.91,22.14 18.25,-2.61 25.5,-11.1 25.53,-29.97 0.08,-55.44 1.3,-110.89 3.03,-166.3 0.76,-24.41 -18.22,-23.17 -34.12,-28.79 2.79,-3.85 5.45,-7.52 8.89,-12.27 -15.56,1.3 -22.05,8.4 -22.59,23.02 -1.72,46.58 -4.06,93.13 -6.56,139.68 -0.38,7.03 -2.93,13.95 -4.47,20.92 -1.85,-0.33 -3.69,-0.67 -5.54,-1 0,-14.69 -0.36,-29.39 0.07,-44.07 1.08,-37.15 2.38,-74.3 3.84,-111.44 1.22,-31.24 9.96,-40.02 41.9,-39.3 61.09,1.38 122.16,3.76 183.24,5.54 14.29,0.41 28.6,0.06 47.2,0.06 -14.9,21.18 -26.87,38.57 -39.21,55.7 -43.81,60.77 -87.99,121.26 -131.37,182.34 -6.69,9.42 -13.68,13.11 -24.83,12.86 -25.69,-0.55 -51.41,-0.16 -78.58,-0.16 z m 125.97,-222.9 c 16.52,0 32.56,-3.91 44.96,1.14 11.56,4.71 19.24,18.93 28.76,29.1 0,-14.58 0,-28.87 0,-45.1 -31.9,-1.82 -62.99,-3.6 -93.67,-5.36 0,66.6 0,130.92 0,195.24 1.35,0.32 2.69,0.65 4.04,0.97 11.41,-15 22.83,-30 37.71,-49.57 -10.41,3.96 -15.31,5.83 -21.79,8.3 -0.01,-46.1 -0.01,-90.46 -0.01,-134.72 z"
   id="path25405"
   style="stroke:none" /> <path
   d="m 1272.45,1071.37 c -7.12,-11.01 -15.48,-18.34 -14.37,-23.71 1.23,-5.94 10.84,-13.39 17.32,-13.93 4.6,-0.38 14.39,9.91 14.05,14.91 -0.45,6.43 -8.7,12.33 -17,22.73 z"
   id="path25407"
   style="stroke:none" /> <path
   d="m 1296.98,1134.58 c -10.74,7.84 -17.65,16.72 -23.46,16.06 -6.12,-0.7 -11.19,-10.53 -16.72,-16.38 6.02,-5.18 11.56,-13.49 18.22,-14.52 5.17,-0.79 11.74,7.51 21.96,14.84 z"
   id="path25409"
   style="stroke:none" /> <path
   d="m 1272.67,1155.38 c 8.45,10.76 17.47,17.39 16.68,22.5 -0.94,6.09 -9.79,14.15 -16.18,15.14 -4.61,0.72 -14.77,-8.39 -15.21,-13.72 -0.48,-5.93 7.23,-12.54 14.71,-23.92 z"
   id="path25411"
   style="stroke:none" /> <path
   d="m 1297.96,1092.51 c -11.84,7.49 -18.51,15 -24.86,14.74 -5.6,-0.23 -10.85,-9.13 -16.26,-14.2 5.48,-5.47 10.54,-14.65 16.57,-15.35 5.92,-0.67 12.83,7.28 24.55,14.81 z"
   id="path25413"
   style="stroke:none" /> <path
   d="m 1272.06,1239.98 c -6.97,-11.18 -14.44,-17.92 -14.03,-24.14 0.33,-5.08 10.81,-13.97 15.47,-13.19 6.33,1.05 15.48,9.45 15.84,15.16 0.35,5.65 -8.74,11.88 -17.28,22.17 z"
   id="path25415"
   style="stroke:none" /> <path
   d="m 1297.44,1260.73 c -11.62,7.26 -19.05,15.54 -24.85,14.53 -6.04,-1.06 -13.35,-10.61 -14.52,-17.4 -0.64,-3.73 10.33,-13.4 15.86,-13.24 6.44,0.18 12.65,8.18 23.51,16.11 z"
   id="path25417"
   style="stroke:none" /> <path
   d="m 2400.26,1071.76 c -7.15,-11.11 -14.8,-17.82 -14.53,-24.19 0.22,-5.25 10.62,-14.79 15.07,-14.03 6.5,1.11 15.83,9.42 16.3,15.27 0.47,5.8 -8.56,12.36 -16.84,22.95 z"
   id="path25419"
   style="stroke:none" /> <path
   d="m 2399.67,1236.7 c 8.59,10.5 17.88,16.96 17.36,22.52 -0.57,6.23 -9.32,14.88 -15.84,16.26 -4.31,0.92 -14.91,-8.68 -15.49,-14.3 -0.62,-6.16 7.05,-13.16 13.97,-24.48 z"
   id="path25421"
   style="stroke:none" /> <path
   d="m 2400,1201.08 c -7.11,-11.21 -15.37,-18.58 -14.23,-23.96 1.24,-5.86 10.99,-13.21 17.42,-13.59 4.69,-0.28 14.23,9.92 13.93,14.99 -0.37,6.29 -8.67,12.11 -17.12,22.56 z"
   id="path25423"
   style="stroke:none" /> <path
   d="m 2401.35,1111.69 c 7.85,11.04 16.62,18.07 15.75,23.56 -0.97,6.09 -10.3,14 -16.87,14.93 -4.39,0.62 -14.36,-9.45 -14.49,-14.91 -0.15,-6.22 7.87,-12.63 15.61,-23.58 z"
   id="path25425"
   style="stroke:none" /> <path
   d="m 2401.09,1069.4 c 8.05,10.86 16.92,17.75 16.02,22.96 -1.03,6 -10.26,13.68 -16.76,14.57 -4.5,0.62 -14.49,-8.91 -14.63,-14.1 -0.16,-6.11 7.67,-12.44 15.37,-23.43 z"
   id="path25427"
   style="stroke:none" /> <path
   d="m 2425.81,1217.94 c -12.19,7.23 -19.02,14.46 -25.43,14.11 -5.49,-0.3 -10.51,-9.29 -15.73,-14.43 5.59,-5.36 10.83,-14.44 16.87,-15.01 5.93,-0.57 12.68,7.53 24.29,15.33 z"
   id="path25429"
   style="stroke:none" /> <path
   d="m 1274.96,1513.88 c -14.11,0 -28.6,2.05 -42.24,-0.47 -21.61,-3.98 -11.12,-21.72 -13.79,-37.96 20.96,12.79 38.99,23.79 57.02,34.79 -0.33,1.22 -0.66,2.43 -0.99,3.64 z"
   id="path25431"
   style="stroke:none" /> <path
   d="m 1413.19,1513.93 c -14.79,0 -29.63,0.83 -44.34,-0.26 -11.63,-0.87 -13.66,-8.49 -10.95,-37.1 19.3,11.63 37.67,22.7 56.04,33.77 -0.25,1.19 -0.5,2.39 -0.75,3.59 z"
   id="path25433"
   style="stroke:none" /> <path
   d="m 2317.33,1476.52 c 1.95,40.58 0.36,41.59 -59.28,36.94 21.42,-13.35 39.21,-24.43 59.28,-36.94 z"
   id="path25435"
   style="stroke:none" /> <path
   d="m 2398.52,1510.79 c 18.31,-11.04 36.62,-22.08 55.77,-33.63 4.16,38.52 3.1,39.21 -55.77,33.63 z"
   id="path25437"
   style="stroke:none" /> <path
   class="st0"
   d="m 2347.85,674.88 c 0,-14.29 0,-28.57 0,-44.66 31.86,-1.81 62.91,-3.58 93.89,-5.34 0,66.41 0,130.71 0,195.01 -1.38,0.48 -2.76,0.95 -4.14,1.43 -11.59,-14.97 -23.18,-29.95 -37.09,-47.91 9.09,2.43 14.64,3.92 21.16,5.66 0,-45.69 0,-90.05 0,-135.61 -29.16,2.15 -62.33,-9.17 -73.82,31.42 z"
   id="path25439"
   style="stroke:none" /> <path
   class="st0"
   d="m 1253.52,645.12 c 0,44.27 0,88.63 0,134.72 6.48,-2.47 11.39,-4.34 21.79,-8.3 -14.89,19.56 -26.3,34.57 -37.71,49.57 -1.35,-0.32 -2.69,-0.65 -4.04,-0.97 0,-64.32 0,-128.64 0,-195.24 30.68,1.75 61.77,3.53 93.67,5.36 0,16.23 0,30.52 0,45.1 -9.52,-10.17 -17.2,-24.39 -28.76,-29.1 -12.39,-5.05 -28.43,-1.14 -44.95,-1.14 z"
   id="path25441"
   style="stroke:none" /> </g> </svg>
